<svg width="74" height="100" viewBox="0 0 74 100" fill="none" xmlns="http://www.w3.org/2000/svg">
<path d="M20.8935 53V47.232H21.5415V52.352H26.6535V53H20.8935ZM27.9039 53V52.344H28.5599V53H27.9039ZM33.4185 53V47.232H34.0665V52.352H39.1785V53H33.4185ZM40.4609 53V47.24H45.7169V47.888H41.1089V49.792H44.8129V50.448H41.1089V52.352H45.7169V53H40.4609ZM48.3299 53C48.1539 53 47.9912 52.9573 47.8419 52.872C47.6979 52.7867 47.5832 52.672 47.4979 52.528C47.4125 52.3787 47.3699 52.216 47.3699 52.04V48.2C47.3699 48.024 47.4125 47.864 47.4979 47.72C47.5832 47.5707 47.6979 47.4533 47.8419 47.368C47.9912 47.2827 48.1539 47.24 48.3299 47.24H52.1699C52.3459 47.24 52.5059 47.2827 52.6499 47.368C52.7992 47.4533 52.9165 47.5707 53.0019 47.72C53.0872 47.864 53.1299 48.024 53.1299 48.2V48.432H52.4819V48.2C52.4819 48.1147 52.4499 48.0427 52.3859 47.984C52.3272 47.92 52.2552 47.888 52.1699 47.888H48.3299C48.2445 47.888 48.1699 47.92 48.1059 47.984C48.0472 48.0427 48.0179 48.1147 48.0179 48.2V52.04C48.0179 52.1253 48.0472 52.2 48.1059 52.264C48.1699 52.3227 48.2445 52.352 48.3299 52.352H52.1699C52.2552 52.352 52.3272 52.3227 52.3859 52.264C52.4499 52.2 52.4819 52.1253 52.4819 52.04V50.616H51.0579V49.96H53.1299V52.04C53.1299 52.216 53.0872 52.3787 53.0019 52.528C52.9165 52.672 52.7992 52.7867 52.6499 52.872C52.5059 52.9573 52.3459 53 52.1699 53H48.3299Z" fill="#B9B29D"/>
<path fill-rule="evenodd" clip-rule="evenodd" d="M73.4756 32L52.6904 67.999L62.9395 85.75L63.083 86L62.9395 86.25L55.2891 99.5H48.793L45.793 96.5H28.207L25.207 99.5H18.7119L6.58691 78.5L16.9795 60.499L0.669922 32.25L0.524414 32L0.669922 31.75L18.7119 0.5H55.2891L73.4756 32ZM11.7129 85.3789L17.5566 95.5H56.4434L61.9287 85.999L47.4951 61H25.7891L11.7129 85.3789ZM12.1924 50.207L17.8457 60H56.1553L61.8076 50.207L56.1719 41.5H17.8291L12.1924 50.207ZM1.67871 31.999L11.6309 49.2344L17.1377 40.7285L17.2852 40.5H56.7158L56.8633 40.7285L62.3691 49.2344L72.3203 31.999L54.7119 1.5H19.2891L1.67871 31.999Z" fill="#B9B29D"/>
<path d="M45.5977 97.1494L47.9053 99.5H26.1143L28.4883 97.1455L28.6338 97H45.4502L45.5977 97.1494Z" fill="#B9B29D"/>
<g opacity="0.5">
<path d="M11.5605 85L25.417 61H34.2061L15.9551 92.6123L11.5605 85Z" fill="#B9B29D"/>
<path d="M25.5459 96L45.7529 61H48.3545L52.8281 68.7471L37.0929 96H25.5459Z" fill="#B9B29D"/>
<path d="M48.4382 96.3491L58.6016 78.7471L62.5 85.5L54.9941 98.5L48.4382 96.3491Z" fill="#B9B29D"/>
</g>
</svg>
