<svg width="64" height="64" viewBox="0 0 64 64" fill="none" xmlns="http://www.w3.org/2000/svg">
<path d="M4 60H16V64H0V48H4V60Z" fill="white"/>
<path d="M64 64H48V60H60V48H64V64Z" fill="white"/>
<path d="M16 4H4V16H0V0H16V4Z" fill="white"/>
<path d="M64 16H60V4H48V0H64V16Z" fill="white"/>
<path d="M10.2487 8C10.1728 8 10.097 8.00439 10.0198 8.01221C8.78497 8.13799 7.88604 9.24004 8.01173 10.4751C8.13751 11.7099 9.23966 12.6089 10.4746 12.4829C11.7093 12.3574 12.6083 11.2553 12.4825 10.0203C12.3646 8.8625 11.3881 7.99971 10.2487 8ZM22.0834 8.89111C22.0385 8.89111 21.9919 8.89258 21.9462 8.89727C21.2157 8.97148 20.6847 9.62549 20.7591 10.356C20.8333 11.0864 21.4872 11.6175 22.2177 11.5431C22.9482 11.4688 23.4792 10.818 23.4048 10.0875C23.3351 9.40264 22.7572 8.89092 22.0834 8.89111ZM14.68 10.6429C14.6351 10.6429 14.5911 10.6442 14.5456 10.6489C13.8151 10.7233 13.281 11.3771 13.3554 12.1077C13.4298 12.8382 14.0836 13.3692 14.8142 13.2948C15.5446 13.2203 16.0757 12.5695 16.0013 11.8391C15.9316 11.1542 15.3538 10.6427 14.68 10.6429ZM25.3946 11.7964C25.3217 11.7964 25.2489 11.798 25.1749 11.8056C23.9898 11.9262 23.1255 12.9854 23.2462 14.1706C23.3668 15.3557 24.4262 16.2199 25.6112 16.0993C26.7963 15.9786 27.6576 14.9192 27.537 13.7341C27.4237 12.6231 26.488 11.7961 25.3946 11.7964ZM18.0794 14.125C17.9503 14.125 17.8202 14.1299 17.6888 14.1432C16.9391 14.2195 16.2624 14.5111 15.7112 14.9459C15.4566 14.7361 15.1628 14.5789 14.8469 14.4836C14.531 14.3882 14.1993 14.3564 13.8711 14.3902C12.4969 14.5304 11.4941 15.7564 11.6342 17.1309C11.7742 18.5052 13.0035 19.5047 14.3778 19.3647C14.425 19.3599 14.472 19.3538 14.5183 19.3464C14.9558 20.4613 15.8935 21.303 17.0329 21.6261C16.9021 21.9745 16.854 22.3486 16.8925 22.7188C17.0277 24.0468 18.2164 25.0147 19.5444 24.8794C20.8726 24.7441 21.8374 23.5585 21.7022 22.2305C21.6707 21.9145 21.5771 21.6078 21.4268 21.3281C21.2764 21.0484 21.0723 20.8012 20.8262 20.6006C21.5788 19.8191 21.9977 18.725 21.8791 17.5611C21.6786 15.5918 20.0173 14.1244 18.0794 14.125ZM28.7118 18.3638C28.5162 18.363 28.3206 18.3721 28.1259 18.3911C24.9765 18.712 22.6843 21.5253 23.0051 24.6748C23.052 25.1394 23.1554 25.5965 23.3132 26.0359C21.6579 26.7916 20.5886 28.5379 20.7833 30.4487C21.0274 32.8476 23.1694 34.5933 25.5685 34.3489C25.9618 34.3087 26.3478 34.2153 26.7159 34.0712C26.7205 34.2038 26.7296 34.3368 26.7433 34.4708C27.047 37.4534 29.4792 39.7044 32.38 39.8694C31.8933 41.3538 31.7018 42.9606 31.8702 44.6149C31.8751 44.6628 31.88 44.7106 31.8855 44.7583C31.855 44.7606 31.8245 44.7612 31.794 44.7645C29.8669 44.9605 28.4665 46.6826 28.6627 48.6096C28.859 50.5363 30.5779 51.9399 32.5049 51.7438C33.2505 51.669 33.9523 51.3566 34.5068 50.8526C36.8762 53.669 40.5518 55.3032 44.4893 54.9022C50.8138 54.2583 55.4177 48.608 54.7734 42.2834C54.3795 38.4141 52.1123 35.189 48.9629 33.4149C49.1491 32.6859 49.2115 31.912 49.1309 31.12C48.7627 27.5038 45.5326 24.871 41.9165 25.2392C39.4509 25.4903 37.445 27.0731 36.5332 29.2005C35.562 28.4075 34.3467 27.9167 33.0358 27.8516C34.0363 26.6988 34.5759 25.1535 34.4092 23.5151C34.1084 20.5624 31.6173 18.363 28.7118 18.3638ZM39.3349 18.5317C39.2378 18.5317 39.1408 18.5368 39.0421 18.5469C37.462 18.7078 36.3116 20.1191 36.4725 21.6992C36.6334 23.2795 38.0447 24.4299 39.6248 24.2689C41.2051 24.108 42.3555 22.6967 42.1945 21.1166C42.0436 19.6352 40.7926 18.5313 39.3349 18.5317ZM45.1517 21.1043C45.1067 21.1043 45.0599 21.1088 45.0144 21.1134C44.2839 21.1879 43.7528 21.8387 43.8273 22.5691C43.9015 23.2996 44.5555 23.8309 45.2859 23.7563C46.0164 23.6819 46.5475 23.0312 46.4731 22.3007C46.4034 21.6158 45.8255 21.1041 45.1517 21.1043ZM12.4185 26.2983C12.3735 26.2983 12.3299 26.2998 12.2843 26.3045C11.5538 26.3787 11.0196 27.0296 11.0941 27.7602C11.1561 28.3695 11.6224 28.8388 12.1988 28.935C12.1433 29.1956 12.1289 29.4634 12.1561 29.7285C12.2991 31.1336 13.5525 32.1572 14.9576 32.0143C16.3626 31.8712 17.3863 30.6148 17.2434 29.2096C17.1002 27.8047 15.8469 26.7809 14.4416 26.9239C14.1697 26.9517 13.904 27.0228 13.6545 27.1346C13.4565 26.637 12.9686 26.2981 12.4185 26.2983ZM16.7276 33.711C16.6622 33.711 16.5956 33.7136 16.5292 33.7203C15.4664 33.8285 14.6937 34.7784 14.802 35.8414C14.9101 36.9041 15.86 37.6769 16.9229 37.5686C17.9857 37.4605 18.7583 36.5136 18.6501 35.4508C18.5485 34.4544 17.7081 33.7108 16.7276 33.711ZM21.4913 37.3487C21.3466 37.3486 21.202 37.3558 21.058 37.3702C18.7267 37.6075 17.0304 39.6927 17.268 42.0241C17.5053 44.3556 19.5873 46.0519 21.9188 45.8145C22.8787 45.7177 23.7768 45.2955 24.4639 44.6182C24.9849 44.9179 25.5871 45.046 26.1851 44.9844C27.7653 44.8232 28.9157 43.4119 28.7548 41.8317C28.5939 40.2517 27.1825 39.1013 25.6024 39.2622C25.4283 39.2798 25.2611 39.3133 25.0987 39.3599C24.3429 38.1398 22.9906 37.3483 21.4913 37.3487Z" fill="white"/>
</svg>
