<svg width="64" height="64" viewBox="0 0 64 64" fill="none" xmlns="http://www.w3.org/2000/svg">
<path d="M4 60H16V64H0V48H4V60Z" fill="#FF0044"/>
<path d="M64 64H48V60H60V48H64V64Z" fill="#FF0044"/>
<path fill-rule="evenodd" clip-rule="evenodd" d="M7 7C13.6098 11.3573 21.6495 13.1547 27.5459 11.0107C29.3902 16.6527 34.6982 19.6007 38.2744 19.8857C33.7937 23.1189 41.5321 27.4481 41.8076 19.8291C43.8247 25.1433 47.0937 29.0019 52.0156 31.4863C41.485 31.2095 50.0826 40.0828 55.9014 42.043C54.7776 46.7514 54.8076 52.2159 56 57C50.9277 52.9377 46.8451 51.2458 41.1006 51.4111C46.0979 47.4932 39.5813 42.2117 36.29 45.3691C34.9631 40.0751 28.8536 37.7309 24.8047 41.2588C24.4313 34.0623 19.7697 31.0182 12.3721 30.8623C12.8119 23.4918 13.5042 18.8932 7 7ZM12.5107 13.7393C18.8027 18.5712 21.0088 23.4542 17.9648 26.9121C22.6389 26.2971 27.2539 27.0267 31.7236 30.9658L25.8906 34.3418C33.2622 33.3867 38.1795 37.683 35.6953 39.3867C42.718 40.7104 49.8224 46.3614 53.8584 53.0996C50.7425 41.9035 46.9231 37.2918 38.873 32.0566L43.791 31.5898C39.9845 27.6216 33.0719 24.4384 28.0361 23.1719L30.8027 20.9902C25.1411 16.1784 19.1923 14.6144 12.5107 13.7393Z" fill="#FF0044"/>
<path d="M41.5479 14.2705C42.5585 14.2707 43.3768 15.1003 43.377 16.125C43.377 17.1499 42.5586 17.9832 41.5479 17.9834C40.5369 17.9834 39.7188 17.15 39.7188 16.125C39.7189 15.1002 40.537 14.2705 41.5479 14.2705Z" fill="#FF0044"/>
<path d="M16 4H4V16H0V0H16V4Z" fill="#FF0044"/>
<path d="M64 16H60V4H48V0H64V16Z" fill="#FF0044"/>
</svg>
