<svg width="36" height="36" viewBox="0 0 36 36" fill="none" xmlns="http://www.w3.org/2000/svg">
<path d="M1 35H9V36H0V27H1V35Z" fill="#FF0044"/>
<path d="M36 36H27V35H35V27H36V36Z" fill="#FF0044"/>
<path fill-rule="evenodd" clip-rule="evenodd" d="M3.9375 3.9375C7.65553 6.3885 12.1779 7.39952 15.4946 6.19354C16.532 9.36713 19.5177 11.0254 21.5294 11.1857C19.0089 13.0044 23.3618 15.4395 23.5168 11.1539C24.6514 14.1431 26.4902 16.3136 29.2588 17.7111C23.3353 17.5554 28.1714 22.5466 31.4445 23.6492C30.8124 26.2977 30.8293 29.3714 31.5 32.0625C28.6468 29.7774 26.3504 28.8257 23.1191 28.9188C25.9301 26.7149 22.2645 23.7441 20.4131 25.5201C19.6667 22.5422 16.2302 21.2236 13.9526 23.2081C13.7426 19.1601 11.1204 17.4477 6.95929 17.36C7.2067 13.2142 7.59613 10.6274 3.9375 3.9375ZM7.03729 7.72833C10.5765 10.4463 11.8175 13.193 10.1052 15.1381C12.7344 14.7921 15.3303 15.2025 17.8445 17.4183L14.5635 19.3173C18.71 18.78 21.476 21.1967 20.0786 22.155C24.0289 22.8996 28.0251 26.0783 30.2953 29.8685C28.5427 23.5707 26.3943 20.9766 21.8661 18.0319L24.6324 17.7693C22.4913 15.5372 18.603 13.7466 15.7703 13.0342L17.3265 11.807C14.1419 9.10035 10.7956 8.22061 7.03729 7.72833Z" fill="#FF0044"/>
<path d="M23.3707 8.02716C23.9391 8.02725 24.3994 8.49391 24.3995 9.07031C24.3995 9.64679 23.9392 10.1156 23.3707 10.1157C22.802 10.1157 22.3418 9.64685 22.3418 9.07031C22.3419 8.49385 22.802 8.02716 23.3707 8.02716Z" fill="#FF0044"/>
<path d="M9 1H1V9H0V0H9V1Z" fill="#FF0044"/>
<path d="M36 9H35V1H27V0H36V9Z" fill="#FF0044"/>
</svg>
