<svg width="64" height="64" viewBox="0 0 64 64" fill="none" xmlns="http://www.w3.org/2000/svg">
<path d="M4 60H16V64H0V48H4V60Z" fill="white"/>
<path d="M64 64H48V60H60V48H64V64Z" fill="white"/>
<path fill-rule="evenodd" clip-rule="evenodd" d="M33 10C44 10 55 15.5001 55 23.75C55 29.2501 50.875 31.9999 50.875 37.5C50.875 41.625 52.25 41.625 52.25 44.375C52.25 45.7498 47.8489 47.3087 44 48.5V54H22V48.5C21.9352 48.48 13.6987 45.9312 13.75 44.375C13.8355 41.8132 15.125 41.6248 15.125 37.5C15.125 34.75 10.9419 29.1197 11.001 23.75C11.001 15.5 22.0003 10.0001 33 10ZM33 36.125C31.625 36.1257 28.8752 41.6248 28.875 43C28.875 45.7497 28.8753 45.75 30.25 45.75H35.75C37.125 45.75 37.125 45.75 37.125 43C37.125 41.625 34.375 36.125 33 36.125ZM24.75 26.5C21.7127 26.5002 19.25 28.9626 19.25 32C19.25 35.0374 21.7127 37.4998 24.75 37.5C27.7875 37.5 30.25 35.0375 30.25 32C30.25 28.9625 27.7875 26.5 24.75 26.5ZM41.25 26.5C38.2126 26.5001 35.75 28.9626 35.75 32C35.75 35.0374 38.2126 37.4999 41.25 37.5C44.2873 37.4999 46.75 35.0375 46.75 32C46.75 28.9625 44.2875 26.5 41.25 26.5Z" fill="white"/>
<path d="M16 4H4V16H0V0H16V4Z" fill="white"/>
<path d="M64 16H60V4H48V0H64V16Z" fill="white"/>
</svg>
