<svg width="36" height="36" viewBox="0 0 36 36" fill="none" xmlns="http://www.w3.org/2000/svg">
<path d="M1 35H9V36H0V27H1V35Z" fill="white"/>
<path d="M36 36H27V35H35V27H36V36Z" fill="white"/>
<path d="M5.3866 3.9375L15.1315 13.522L9.22467 5.2597L19.4705 16.3976L10.9786 3.9375H12.314L26.5946 24.4473L25.5987 20.8416L27.228 22.7175L28.1442 17.2095L32.0537 32.0625L17.3936 28.2096L21.6013 28.0305L19.9951 26.1848L25.1812 27.2302L3.9375 12.3074V8.79236L25.2916 26.0744L3.9375 5.8634V3.9375H5.3866Z" fill="white"/>
<path d="M24.65 31.2742L15.744 32.0367L14.4503 30.3893L15.9406 28.9896L24.65 31.2742Z" fill="white"/>
<path d="M32.0625 11.1588L31.1501 24.1474L27.8564 11.7301L29.7801 9.43506L32.0625 11.1588Z" fill="white"/>
<path d="M9 1H1V9H0V0H9V1Z" fill="white"/>
<path d="M36 9H35V1H27V0H36V9Z" fill="white"/>
</svg>
