<svg width="64" height="64" viewBox="0 0 64 64" fill="none" xmlns="http://www.w3.org/2000/svg">
<path d="M4 60H16V64H0V48H4V60Z" fill="white"/>
<path d="M64 64H48V60H60V48H64V64Z" fill="white"/>
<path d="M16 4H4V16H0V0H16V4Z" fill="white"/>
<path d="M64 16H60V4H48V0H64V16Z" fill="white"/>
<path d="M22.3019 7C18.5105 7 15.0744 7.63788 12.5001 8.72519C11.2129 9.26896 10.1358 9.92315 9.33578 10.7221C8.53584 11.521 8.00041 12.5161 8.00041 13.6103C8.00041 13.6918 8.00455 13.7726 8.01033 13.8529H8V21.1989C8 22.2927 8.53594 23.2876 9.33619 24.0863C10.1364 24.885 11.2138 25.5392 12.501 26.083C15.0759 27.1705 18.5117 27.8086 22.3013 27.8086C26.0911 27.8086 29.5268 27.1705 32.1016 26.083C33.3891 25.5392 34.4663 24.885 35.2665 24.0863C36.0668 23.2876 36.6024 22.2929 36.6024 21.1988V19.0339C37.5603 19.0782 38.4323 19.196 39.2173 19.3717C39.1348 19.7641 39.1155 20.1748 39.1514 20.5794C39.2486 21.6728 39.714 22.802 40.4995 23.8117C41.285 24.8213 42.2602 25.5444 43.2876 25.8963C43.5372 25.9821 43.7943 26.0438 44.0553 26.0806C43.7147 26.6611 43.206 27.2366 42.5042 27.7742C42.0506 27.188 41.378 26.787 40.6551 26.5761C40.1991 26.443 39.7112 26.374 39.2049 26.3699C39.1325 26.3694 39.06 26.3701 38.9869 26.3722C38.4028 26.3889 37.7972 26.4906 37.19 26.6786C35.976 27.0543 34.9572 27.7128 34.2611 28.5551C33.822 29.0863 33.5041 29.7248 33.4111 30.395C33.0001 30.4119 32.5803 30.4226 32.1453 30.4226C31.343 30.4226 30.5738 30.4747 29.8385 30.573C29.3477 30.1061 28.6999 29.8094 28.0233 29.6758C27.7523 29.6227 27.4776 29.5917 27.2017 29.5832C27.0956 29.5798 26.9895 29.5794 26.8834 29.5822C26.1357 29.601 25.3529 29.7689 24.5803 30.0854C23.4035 30.5674 22.4457 31.3141 21.8254 32.2147C21.2323 33.0757 20.9391 34.1563 21.2804 35.1652C20.2402 36.4877 19.5669 37.9802 19.2928 39.4986C19.2284 39.5294 19.1642 39.5621 19.1013 39.5989C18.1339 40.1641 17.6725 41.247 17.6141 42.3433C17.5556 43.4396 17.8569 44.6244 18.492 45.7373C19.1268 46.8501 19.9899 47.7068 20.9573 48.2038C21.9244 48.7008 23.0819 48.8378 24.0493 48.2726C24.0706 48.26 24.0903 48.2461 24.111 48.2332C25.3315 48.7278 26.7644 49.0185 28.3962 49.0558V50.3901C28.3962 51.4841 28.9322 52.4789 29.7325 53.2777C30.5328 54.0763 31.6099 54.7304 32.8973 55.2742C35.4722 56.3617 38.908 57 42.6976 57C46.4873 57 49.9231 56.3617 52.4977 55.2742C53.7852 54.7304 54.8626 54.0763 55.663 53.2776C56.4632 52.4787 56.999 51.4839 56.999 50.3899V42.8349C56.999 42.8238 57 42.8129 57 42.8019C57 42.7909 56.999 42.78 56.999 42.769V42.7276H56.9977C56.974 41.6628 56.4462 40.6945 55.6643 39.9138C54.8643 39.1149 53.7872 38.4606 52.5 37.9169C49.9256 36.8294 46.4898 36.1917 42.6984 36.1917C38.9068 36.1917 35.4708 36.8296 32.8964 37.9169C31.6092 38.4607 30.5321 39.1149 29.7321 39.9138C28.932 40.7127 28.3964 41.7078 28.3964 42.802C28.3964 42.8836 28.4006 42.9644 28.4063 43.0449H28.396V47.0999C27.2171 47.0704 26.2007 46.8968 25.3347 46.6124C25.4499 46.2653 25.5166 45.8978 25.5362 45.5284C25.5947 44.432 25.2934 43.2472 24.6585 42.1342C24.0236 41.0213 23.1603 40.1649 22.1931 39.6679C21.9112 39.5226 21.6136 39.4106 21.3063 39.3343C21.5375 38.4346 21.9502 37.535 22.5448 36.6949C22.9295 36.9271 23.3631 37.0871 23.8094 37.1751C24.8742 37.3855 26.0753 37.2475 27.2522 36.7652C28.4293 36.2831 29.3869 35.5365 30.0074 34.6358C30.454 33.9872 30.7301 33.214 30.694 32.4407C31.1609 32.3991 31.6444 32.3769 32.1453 32.3769C32.734 32.3769 33.3029 32.3612 33.8546 32.3325C34.3055 32.9965 35.0274 33.4448 35.8073 33.6722C36.8496 33.9763 38.0582 33.9456 39.2724 33.5698C40.4867 33.1939 41.5053 32.5353 42.2014 31.6931C42.6601 31.1382 42.9853 30.4663 43.0613 29.7633C44.8241 28.5992 45.9569 27.109 46.3659 25.5098C47.2369 24.8099 47.5386 23.6757 47.4419 22.5857C47.345 21.4923 46.8794 20.3632 46.0939 19.3535C45.3084 18.3438 44.3333 17.6207 43.3058 17.2689C42.9204 17.1369 42.5159 17.0589 42.1145 17.0497C41.9805 17.0466 41.8469 17.0511 41.7146 17.0639C41.2018 17.1136 40.7072 17.288 40.2779 17.6166C39.1819 17.3181 37.9536 17.1335 36.6026 17.0786V13.6431C36.6026 13.632 36.6037 13.6212 36.6037 13.6102C36.6037 13.5991 36.6026 13.5882 36.6026 13.5772V13.5358H36.6014C36.5776 12.4711 36.0501 11.5028 35.2683 10.7221C34.4684 9.92315 33.3913 9.26885 32.1041 8.72519C29.5297 7.63767 26.0934 7 22.3019 7ZM22.3019 8.95441C25.8757 8.95441 29.1079 9.57765 31.3601 10.5288C32.4861 11.0046 33.3622 11.5641 33.9119 12.1131C34.4616 12.662 34.6723 13.1487 34.6723 13.6102C34.6723 14.0715 34.4616 14.5581 33.9119 15.107C33.6396 15.3789 33.2868 15.6533 32.8636 15.919C30.2221 14.6119 26.4785 13.8449 22.3015 13.8449C18.1247 13.8449 14.3822 14.6104 11.74 15.9189C11.317 15.6533 10.9643 15.3789 10.692 15.107C10.1423 14.558 9.93154 14.0714 9.93154 13.6101C9.93154 13.1486 10.1423 12.6619 10.692 12.1129C11.2417 11.564 12.1176 11.0045 13.2437 10.5287C15.496 9.57744 18.7283 8.95441 22.3019 8.95441ZM22.3016 15.7993C25.4238 15.7993 28.286 16.2825 30.4607 17.0354C28.2858 17.79 25.4244 18.2657 22.302 18.2657C19.1788 18.2657 16.3165 17.7899 14.1411 17.0349C16.3158 16.2824 19.1802 15.7993 22.3016 15.7993ZM42.09 18.9973C42.2625 19.0046 42.4609 19.0428 42.6866 19.1201C43.2886 19.3263 44.0015 19.8233 44.5767 20.5626C45.152 21.3021 45.462 22.1201 45.5188 22.7607C45.5756 23.4014 45.4116 23.784 45.1632 23.9818C44.9149 24.1798 44.5088 24.2514 43.9067 24.0452C43.3048 23.839 42.5918 23.3422 42.0166 22.6029C41.4414 21.8636 41.1315 21.0454 41.0746 20.4048C41.0178 19.7641 41.1819 19.3815 41.4303 19.1837C41.5543 19.0846 41.718 19.0174 41.9258 19.0004C41.9778 18.9963 42.0324 18.995 42.09 18.9973ZM39.1917 28.3291C39.5371 28.3314 39.853 28.3762 40.1202 28.454C40.7309 28.6322 41.0241 28.9254 41.1165 29.2314C41.2089 29.5372 41.1278 29.9462 40.7201 30.4396C40.3124 30.9331 39.597 31.426 38.7078 31.7012C37.8186 31.9762 36.9529 31.9728 36.3422 31.7946C35.7315 31.6165 35.4383 31.3232 35.3459 31.0173C35.2534 30.7113 35.3342 30.3024 35.7421 29.809C36.1498 29.3156 36.8655 28.8226 37.7546 28.5474C38.1992 28.4099 38.638 28.3418 39.042 28.3305C39.0925 28.3291 39.1424 28.3286 39.1917 28.3291ZM27.1445 31.5396C27.3153 31.5435 27.4855 31.5617 27.6533 31.594C28.2771 31.7172 28.5946 31.9832 28.7131 32.2798C28.8316 32.5763 28.7865 32.9908 28.4231 33.5187C28.0596 34.0464 27.3895 34.601 26.5277 34.954C25.6657 35.3072 24.803 35.3804 24.1791 35.2573C23.5554 35.1339 23.2382 34.8679 23.1195 34.5713C23.0009 34.2748 23.0459 33.8602 23.4093 33.3326C23.7727 32.8049 24.4429 32.2503 25.3048 31.8973C25.9511 31.6324 26.5984 31.5248 27.1445 31.5396ZM42.698 38.146C46.2719 38.146 49.5039 38.7693 51.7561 39.7207C52.8823 40.1965 53.7581 40.7559 54.3077 41.3049C54.8574 41.8539 55.0686 42.3407 55.0686 42.802C55.0686 43.2634 54.8574 43.7499 54.3077 44.2988C54.0353 44.5707 53.6824 44.8453 53.2591 45.111C50.6182 43.806 46.8745 43.037 42.6976 43.037C38.5593 43.037 34.8448 43.793 32.2085 45.0748L32.2612 45.1859C31.7833 44.897 31.3863 44.5965 31.0882 44.2988C30.5385 43.7498 30.3273 43.2633 30.3273 42.8019C30.3273 42.3406 30.5385 41.8538 31.0882 41.3049C31.6379 40.7559 32.5137 40.1961 33.6398 39.7204C35.8923 38.7692 39.124 38.146 42.698 38.146ZM20.5828 41.182C20.7908 41.1953 21.0356 41.2652 21.319 41.4107C21.8858 41.7019 22.5212 42.2966 22.9862 43.1116C23.4511 43.9266 23.6423 44.7811 23.6082 45.4234C23.5739 46.0658 23.3575 46.4207 23.0838 46.5807C22.81 46.7406 22.3981 46.7527 21.8315 46.4614C21.2647 46.1704 20.629 45.5757 20.1641 44.7606C19.6991 43.9457 19.508 43.0912 19.542 42.4489C19.5761 41.8066 19.7927 41.4516 20.0665 41.2917C20.2033 41.2117 20.3747 41.1687 20.5828 41.182ZM42.6976 44.9912C45.8206 44.9912 48.6822 45.4733 50.8575 46.2272C48.6822 46.9819 45.8207 47.4576 42.698 47.4576C39.5745 47.4576 36.712 46.9816 34.5364 46.2265C36.712 45.4722 39.5747 44.9912 42.6976 44.9912Z" fill="white"/>
</svg>
