<svg width="64" height="64" viewBox="0 0 64 64" fill="none" xmlns="http://www.w3.org/2000/svg">
<path d="M16 6.99382e-07V4H4V16H6.99381e-07V6.99382e-07H16Z" fill="#FF0044"/>
<path d="M64 16H60V4L48 4V0L64 6.99382e-07V16Z" fill="#FF0044"/>
<path d="M48 64V60H60L60 48H64V64H48Z" fill="#FF0044"/>
<path d="M0 48H4L4 60H16V64H6.99381e-07L0 48Z" fill="#FF0044"/>
<path d="M7 8C8.28576 12.9588 13.1597 22.383 14.401 34.8861C13.6776 43.3519 11.9163 45.8217 11.9163 51.7902C11.9163 54.845 13.1586 56 14.4661 56C15.7449 56 17.067 54.6915 17.067 51.4739C17.067 45.2092 15.2099 43.3019 14.514 34.6904C15.2237 25.4327 21.0618 29.6069 21.0618 34.9965C21.0618 22.529 32.2451 25.5716 33.7839 31.1484C33.2177 35.0341 32.1361 36.2334 32.1361 39.4895C32.1361 41.3304 33.0692 42.6836 33.9716 42.6836C34.8944 42.6836 35.771 41.4182 35.771 39.6704C35.771 36.5768 34.7509 35.1255 34.1794 31.2786C35.8732 27.1085 46.8489 27.4513 46.8819 31.0845C46.508 34.0078 45.4823 34.6404 45.4823 36.7465C45.4823 37.8216 46.2038 38.6119 46.9015 38.6119C47.6149 38.6119 48.2924 37.8729 48.2924 36.8522C48.2924 34.812 47.2876 33.9927 46.9113 31.0027C48.4615 25.5621 56.4037 28.804 57 22.8907C51.3837 27.9716 17.8356 25.852 7 8ZM21.1285 37.4632C20.6157 40.9828 19.1948 41.9211 19.1948 44.2944C19.1948 45.4722 20.1369 46.3248 21.1286 46.3248C22.0983 46.3248 23.101 45.4128 23.101 44.1722C23.101 41.7 21.6245 40.9896 21.1285 37.4632Z" fill="#FF0044"/>
</svg>
