<svg width="36" height="36" viewBox="0 0 36 36" fill="none" xmlns="http://www.w3.org/2000/svg">
<path d="M9 3.93403e-07V1H1V9H3.93402e-07V3.93403e-07H9Z" fill="#FF0044"/>
<path d="M36 9H35V1H27V0L36 3.93403e-07V9Z" fill="#FF0044"/>
<path d="M27 36V35H35V27H36V36H27Z" fill="#FF0044"/>
<path d="M0 27H1V35H9V36H3.93402e-07L0 27Z" fill="#FF0044"/>
<path d="M3.9375 4.5C4.66074 7.28932 7.40235 12.5904 8.10055 19.6234C7.69366 24.3854 6.70291 25.7747 6.70291 29.132C6.70291 30.8503 7.40173 31.5 8.13719 31.5C8.85648 31.5 9.6002 30.764 9.6002 28.9541C9.6002 25.4302 8.55555 24.3573 8.16414 19.5134C8.56332 14.3059 11.8473 16.6539 11.8473 19.6855C11.8473 12.6726 18.1379 14.384 19.0034 17.521C18.6849 19.7067 18.0765 20.3813 18.0765 22.2129C18.0765 23.2483 18.6014 24.0095 19.109 24.0095C19.6281 24.0095 20.1212 23.2978 20.1212 22.3146C20.1212 20.5744 19.5474 19.7581 19.2259 17.5942C20.1787 15.2485 26.3525 15.4413 26.3711 17.485C26.1607 19.1294 25.5838 19.4852 25.5838 20.6699C25.5838 21.2746 25.9896 21.7192 26.3821 21.7192C26.7834 21.7192 27.1645 21.3035 27.1645 20.7294C27.1645 19.5817 26.5993 19.1209 26.3876 17.439C27.2596 14.3787 31.7271 16.2022 32.0625 12.876C28.9033 15.734 10.0325 14.5418 3.9375 4.5ZM11.8848 21.0731C11.5964 23.0528 10.7971 23.5806 10.7971 24.9156C10.7971 25.5781 11.327 26.0577 11.8848 26.0577C12.4303 26.0577 12.9943 25.5447 12.9943 24.8469C12.9943 23.4563 12.1638 23.0566 11.8848 21.0731Z" fill="#FF0044"/>
</svg>
