<svg width="64" height="64" viewBox="0 0 64 64" fill="none" xmlns="http://www.w3.org/2000/svg">
<path d="M4 60H16V64H0V48H4V60Z" fill="white"/>
<path d="M64 64H48V60H60V48H64V64Z" fill="white"/>
<path d="M49.9512 43.2715C51.9239 46.2338 53.6177 49.6609 53.4814 52.3828C52.3724 53.6816 51.1602 54.8917 49.8564 56H45.8936C47.6383 53.9606 48.632 51.1129 48.9912 48.0059C49.1751 46.4155 49.51 44.8298 49.9512 43.2715Z" fill="white"/>
<path d="M43.0508 11C43.1599 10.9999 43.2665 11.0026 43.3701 11.0078C43.3806 11.0084 43.391 11.0091 43.4014 11.0098C44.6466 11.079 45.4892 11.5326 45.9287 12.374C45.9287 12.8324 45.6709 13.6271 45.3691 14.4131L45.3701 14.415C45.3646 14.4295 45.3581 14.4436 45.3525 14.458C45.3193 14.5441 45.285 14.6296 45.251 14.7148C45.1997 14.8436 45.1491 14.9714 45.0977 15.0957C44.8501 15.6929 44.6135 16.22 44.4902 16.501C44.2331 17.0868 44.0434 17.6107 43.9043 18.0771C43.8711 18.1891 43.8408 18.2978 43.8135 18.4033C43.8006 18.4529 43.788 18.5016 43.7764 18.5498C43.7385 18.7069 43.7072 18.8565 43.6816 18.999C43.3831 20.6621 43.8866 21.3519 44.2061 21.5137C44.2668 21.5444 44.3403 21.5437 44.4268 21.5156C44.5125 21.4877 44.6095 21.4306 44.7188 21.3418L44.7178 21.3438C45.31 20.8638 46.2381 19.4658 47.3672 16.8936C47.6866 16.1664 47.7789 15.1739 48.3262 13.749C49.2854 13.7476 50.245 14.6643 50.7246 15.124C50.245 16.0406 50.0411 16.8404 49.7656 17.417C48.8371 19.3606 48.7729 19.7874 49.1787 20.0107C49.5845 20.234 51.2346 18.4426 52.1631 16.499C52.1631 16.499 55.5204 18.3339 56 22.917C54.3129 25.3353 51.2478 29.7735 48.7549 35.1484C48.4595 35.7857 48.1717 36.4359 47.8955 37.0977L47.8945 37.0957C47.5458 37.9311 47.2172 38.7853 46.9111 39.6533C46.7148 40.21 46.53 40.7732 46.3555 41.3408C45.9357 42.7072 45.5819 44.1017 45.3232 45.5127C45.3034 45.621 45.2844 45.7294 45.2656 45.8379C45.1675 46.4055 45.0837 46.9754 45.0176 47.5469C44.3299 53.4943 41.2123 55.7955 38.3516 54.7549C38.3318 54.7477 38.3118 54.7409 38.292 54.7334C38.1029 54.6614 37.9154 54.5748 37.7295 54.4736C37.6943 54.4545 37.6591 54.4352 37.624 54.415C37.5616 54.3791 37.4994 54.342 37.4375 54.3027C37.3736 54.2623 37.3103 54.2197 37.2471 54.1758C37.2086 54.149 37.1701 54.1218 37.1318 54.0938C37.067 54.0462 37.0026 53.9967 36.9385 53.9453C36.7045 53.7578 36.4744 53.5474 36.2529 53.3105C34.8693 51.8306 33.3081 50.4955 31.6465 49.3418C31.4333 49.1938 31.2183 49.0492 31.002 48.9072C30.5388 48.6033 30.069 48.3132 29.5938 48.0381C28.4563 47.38 27.2886 46.8066 26.1123 46.3281C25.1613 45.9414 24.2047 45.6172 23.2539 45.3604C23.1229 45.325 22.9921 45.2907 22.8613 45.2578C22.6323 45.2003 22.4038 45.1471 22.1758 45.0977C22.0372 45.0675 21.8988 45.0389 21.7607 45.0117C21.1073 44.8839 20.4595 44.7885 19.8213 44.7305C19.6737 44.717 19.5282 44.7004 19.3848 44.6826C19.3304 44.6759 19.2764 44.6685 19.2227 44.6611C19.1123 44.646 19.0034 44.6289 18.8955 44.6113C18.8527 44.6044 18.81 44.5982 18.7676 44.5908C18.6425 44.5691 18.5191 44.5463 18.3975 44.5215C18.3321 44.5082 18.2675 44.4937 18.2031 44.4795C18.1193 44.461 18.0363 44.4418 17.9541 44.4219C17.9089 44.411 17.864 44.4 17.8193 44.3887C17.6957 44.3573 17.5738 44.3254 17.4541 44.291C17.3973 44.2747 17.3411 44.2572 17.2852 44.2402C17.2185 44.2201 17.1524 44.1997 17.0869 44.1787C17.0315 44.1609 16.9764 44.1434 16.9219 44.125C16.847 44.0998 16.7734 44.0731 16.7002 44.0469C16.4883 43.9709 16.2831 43.8913 16.085 43.8076C16.0525 43.7939 16.0204 43.7795 15.9883 43.7656C13.0239 42.4835 11.626 40.4502 11.626 40.4502C8.72447 38.8987 8.50355 36.7307 9.63281 35.4639C9.63925 35.4566 9.64582 35.4495 9.65234 35.4424C9.67446 35.4181 9.69661 35.3937 9.71973 35.3701C9.735 35.3545 9.7509 35.3395 9.7666 35.3242C9.79079 35.3007 9.81563 35.2777 9.84082 35.2549C9.85261 35.2442 9.86495 35.2341 9.87695 35.2236C9.90641 35.1979 9.93607 35.1722 9.9668 35.1475C9.98052 35.1364 9.99481 35.1261 10.0088 35.1152C10.0315 35.0977 10.0538 35.0795 10.0771 35.0625C10.1001 35.0457 10.1239 35.0299 10.1475 35.0137C10.1727 34.9964 10.1977 34.9786 10.2236 34.9619C10.2349 34.9547 10.2464 34.9476 10.2578 34.9404C10.2927 34.9187 10.3282 34.8975 10.3643 34.877C10.3753 34.8707 10.3863 34.8645 10.3975 34.8584C10.4359 34.8372 10.475 34.8167 10.5146 34.7969C10.5249 34.7917 10.5355 34.7873 10.5459 34.7822C10.5798 34.7657 10.6137 34.7488 10.6484 34.7334C10.6777 34.7204 10.7075 34.7085 10.7373 34.6963C10.7612 34.6865 10.7853 34.6772 10.8096 34.668C10.8315 34.6596 10.8537 34.6515 10.876 34.6436C10.9102 34.6313 10.9445 34.6187 10.9795 34.6074C10.9998 34.6009 11.0205 34.5951 11.041 34.5889C11.1335 34.5609 11.2281 34.5355 11.3252 34.5146C11.342 34.511 11.359 34.5083 11.376 34.5049C11.4198 34.4961 11.4641 34.4878 11.5088 34.4805C11.5273 34.4775 11.5458 34.4744 11.5645 34.4717C11.6016 34.4662 11.639 34.4605 11.6768 34.4561C11.71 34.4521 11.7436 34.4494 11.7773 34.4463C11.8094 34.4434 11.8416 34.4406 11.874 34.4385C11.8999 34.4367 11.926 34.4358 11.9521 34.4346C11.9878 34.4329 12.0235 34.4314 12.0596 34.4307C12.1 34.4298 12.1407 34.4303 12.1816 34.4307C12.205 34.4309 12.2284 34.4301 12.252 34.4307C12.2892 34.4316 12.3266 34.4336 12.3643 34.4355C12.395 34.4371 12.426 34.4382 12.457 34.4404C12.5152 34.4447 12.5738 34.4503 12.6328 34.457C12.6367 34.4575 12.6406 34.4585 12.6445 34.459C12.6841 34.4636 12.7238 34.4689 12.7637 34.4746C12.8663 34.4893 12.9703 34.507 13.0752 34.5293C13.1188 34.5385 13.1621 34.55 13.2061 34.5605C13.2346 34.5674 13.2634 34.5736 13.292 34.5811C13.3274 34.5903 13.3628 34.6003 13.3984 34.6104C13.4357 34.6209 13.4733 34.6311 13.5107 34.6426C13.5472 34.6538 13.5834 34.6666 13.6201 34.6787C13.6537 34.6899 13.6879 34.7 13.7217 34.7119C13.843 34.7548 13.9648 34.804 14.0879 34.8574C14.1145 34.869 14.1413 34.8805 14.168 34.8926C14.6149 35.0944 15.0722 35.3667 15.5312 35.7197L28.6309 35.5879L29.5107 35.5801C29.6466 35.5245 29.7808 35.463 29.915 35.3994C30.6865 35.034 31.4302 34.5388 32.1455 33.9385C32.4111 33.7154 32.6731 33.4784 32.9307 33.2275C33.0791 33.083 33.2263 32.9343 33.3721 32.7812C34.2892 31.8176 35.1525 30.6897 35.957 29.457C38.528 25.5182 40.4997 20.513 41.7363 16.4043C42.2137 14.818 42.5815 13.3656 42.832 12.1602C42.8637 12.0073 42.894 11.8585 42.9219 11.7139C42.9704 11.4628 43.014 11.2246 43.0508 11Z" fill="white"/>
<path d="M8 42.8369C8.31118 43.0857 8.63852 43.3187 8.97949 43.5342C9.0381 43.6012 9.09859 43.6734 9.16504 43.7461C9.63856 44.2643 10.3227 44.9282 11.2285 45.6045C13.0521 46.9659 15.7876 48.3811 19.459 48.7148C21.0127 48.8561 22.6834 49.2758 24.3662 49.9375C23.9235 50.0936 23.505 50.2795 23.1162 50.499C19.066 52.7863 26.53 53.8389 20.4707 52.4434C15.8733 51.3845 11.3781 48.1199 8 43.2041V42.8369Z" fill="white"/>
<path d="M52.4023 36.7852C52.5915 36.9892 52.7811 37.1863 52.9746 37.3721C53.8126 38.1765 54.9192 39.0128 56 39.7637V49.0088C55.7261 49.4307 55.4435 49.8467 55.1504 50.2549C54.4694 46.7382 52.8491 43.5887 50.7812 40.6992C51.2655 39.357 51.8148 38.0467 52.4023 36.7852Z" fill="white"/>
<path d="M8 26.501C9.15614 27.6505 10.4743 29.0169 11.835 30.4365C10.4632 30.4737 9.14246 30.858 8 31.6201V26.501Z" fill="white"/>
<path d="M8 10.418C12.7037 11.3362 21.6674 13.7991 28.0518 16.3506C31.0545 17.5508 32.9131 20.7955 34.2832 24.373C33.4212 26.0428 32.49 27.5598 31.5127 28.8145C30.4357 30.1971 29.4378 31.0874 28.5762 31.5889L27.8828 31.5957C27.6264 30.8498 27.2523 30.0783 26.6777 29.2871C24.0299 25.6412 14.9325 20.9114 8.3877 21.2764C15.237 18.8146 23.8773 21.6194 24.4805 21.7217C25.0798 21.8226 25.4104 21.9206 26.0137 21.9941C26.6148 22.0666 23.3537 20.2755 18.9551 19.0674C15.606 18.1476 11.0439 14.5227 8 12.2754V10.418Z" fill="white"/>
<path d="M16 4H4V16H0V0H16V4Z" fill="white"/>
<path d="M64 16H60V4H48V0H64V16Z" fill="white"/>
<path d="M29.0449 8C33.0285 10.3138 36.2612 9.31636 39.2549 9.42871L39.1035 10.3525C38.9456 11.3159 38.6528 12.6155 38.2373 14.1104C35.0264 12.4618 31.2142 11.1234 28.3682 8H29.0449Z" fill="white"/>
</svg>
