<svg width="64" height="64" viewBox="0 0 64 64" fill="none" xmlns="http://www.w3.org/2000/svg">
<path d="M4 60H16V64H0V48H4V60Z" fill="white"/>
<path d="M64 64H48V60H60V48H64V64Z" fill="white"/>
<path d="M54.8906 38.3594C52.0981 42.045 53.8065 45.3736 54.6709 47.1338C55.0346 47.8743 55.5514 48.3494 56 48.7959V51.4688C54.7846 53.1085 53.4181 54.6259 51.9219 56H46.4053C45.6751 55.6904 44.9382 55.3224 44.21 54.916C45.7044 53.9373 47.0226 52.7374 47.9971 51.3369C48.8132 51.3741 49.8092 50.6358 50.0518 49.0166C50.1734 48.2037 50.3202 47.1453 50.5381 46.0088C50.5816 45.8855 50.6269 45.7641 50.6689 45.6445C51.3216 43.7889 52.0558 41.6259 53.3555 39.3242C53.8009 38.892 54.3084 38.5572 54.8906 38.3594Z" fill="white"/>
<path d="M27.3477 11.0098C27.4433 11.0152 27.5404 11.022 27.6387 11.0312C27.8348 11.0494 28.0358 11.0758 28.2412 11.1064C30.9061 17.0727 33.1258 23.0269 34.6543 28.9639C35.5648 28.5425 36.4796 28.1257 37.3936 27.708C37.5021 26.2513 37.5335 24.8188 37.5176 23.4023L37.5166 23.4014C37.5022 22.1192 37.4468 20.8498 37.3721 19.5879C37.2339 17.2761 37.0295 14.9879 36.8721 12.6865C37.5282 12.1922 38.5907 11.8242 39.6738 11.8086C40.1167 11.8023 40.547 11.8511 40.9434 11.9482C40.9775 11.9566 41.0113 11.9655 41.0449 11.9746C41.0801 11.9841 41.1148 11.9946 41.1494 12.0049C41.1881 12.0164 41.2267 12.0275 41.2646 12.04C41.326 12.0602 41.3862 12.0818 41.4453 12.1045L41.4805 12.1182C41.4969 12.1247 41.513 12.132 41.5293 12.1387C41.5717 12.1561 41.6132 12.1746 41.6543 12.1934C41.6855 12.2076 41.7167 12.2213 41.7471 12.2363C41.7961 12.2605 41.8437 12.2864 41.8906 12.3125C41.9029 12.3193 41.9156 12.3251 41.9277 12.332C41.9909 12.3683 42.0516 12.4066 42.1104 12.4463C42.1216 12.4539 42.1325 12.462 42.1436 12.4697C42.1873 12.5002 42.2295 12.532 42.2705 12.5645C42.2889 12.579 42.3073 12.5934 42.3252 12.6084C42.3755 12.6505 42.4242 12.6933 42.4697 12.7383C42.6324 14.8324 42.7424 16.9896 42.8008 19.1709L42.8018 19.1719C42.8025 19.1979 42.803 19.224 42.8037 19.25C42.8072 19.385 42.8094 19.5201 42.8125 19.6553C42.8195 19.9602 42.8261 20.2656 42.8311 20.5713C42.8336 20.7275 42.8359 20.8837 42.8379 21.04C42.8415 21.3286 42.8449 21.6173 42.8467 21.9062C42.8705 25.641 42.7382 29.3991 42.4434 32.9902C42.4167 33.3236 42.3886 33.656 42.3584 33.9863C41.1271 35.6513 39.8321 37.331 38.8311 39.2656L38.5596 39.8125C38.1293 40.7174 37.7681 41.6802 37.5088 42.7236C37.3978 43.1709 37.304 43.6326 37.2334 44.1113L39.0449 44.377C39.0946 44.04 39.1574 43.7119 39.2314 43.3916C39.2406 43.3521 39.2503 43.3127 39.2598 43.2734C39.3273 42.9939 39.4038 42.7204 39.4883 42.4521C39.9622 40.947 40.6907 39.6083 41.5371 38.3154C41.5607 38.2794 41.5837 38.243 41.6074 38.207C41.6848 38.09 41.7637 37.9738 41.8428 37.8574C41.9931 37.6361 42.146 37.4153 42.3018 37.1953L43.0449 36.1641C43.5358 35.4937 44.0383 34.8172 44.5332 34.1182C44.6805 33.9224 44.8282 33.7291 44.9766 33.5391C45.0222 33.4806 45.0686 33.4231 45.1143 33.3652C45.1967 33.2609 45.2787 33.1571 45.3613 33.0547C45.4381 32.9595 45.5159 32.8659 45.5928 32.7725C45.6844 32.6612 45.7755 32.5509 45.8672 32.4424C45.8921 32.4128 45.9165 32.3829 45.9414 32.3535C46.0575 32.217 46.1741 32.0831 46.29 31.9512C46.3267 31.9095 46.3628 31.8674 46.3994 31.8262C46.4938 31.72 46.5884 31.6156 46.6826 31.5127C46.7334 31.4572 46.7842 31.4022 46.835 31.3477C46.9542 31.2196 47.0738 31.0949 47.1924 30.9727C47.2107 30.9538 47.2288 30.9348 47.2471 30.916C48.4486 29.6854 49.6101 28.7643 50.623 28.332C51.5841 27.9222 52.3152 27.9039 53.0361 28.2891C53.6716 28.6285 54.3609 29.4118 55 30.7695C49.7672 35.8179 48.0852 40.934 46.8955 44.3164C46.3282 45.9292 45.8094 47.3966 44.8105 48.9111C44.7561 48.9936 44.6985 49.0749 44.6396 49.1562C44.6274 49.1732 44.615 49.1901 44.6025 49.207C44.5531 49.2741 44.5025 49.341 44.4502 49.4072C44.4336 49.4282 44.4163 49.4488 44.3994 49.4697C44.3548 49.525 44.3093 49.5801 44.2627 49.6348C44.2424 49.6586 44.2219 49.6824 44.2012 49.7061C43.65 50.3373 42.9674 50.9217 42.1963 51.4463C42.1522 51.4762 42.1082 51.5066 42.0635 51.5361C40.6935 52.4434 39.0556 53.1558 37.3633 53.5732C37.3516 53.5762 37.3398 53.5791 37.3281 53.582C37.2446 53.6024 37.1609 53.6217 37.0771 53.6406C36.9098 53.6792 36.7423 53.7161 36.5742 53.748C36.3756 53.7858 36.1765 53.8174 35.9785 53.8467C35.9453 53.8516 35.9121 53.8566 35.8789 53.8613C35.7262 53.8828 35.5738 53.9016 35.4219 53.918C35.3638 53.9243 35.306 53.931 35.248 53.9365C35.0731 53.9532 34.8989 53.9667 34.7256 53.9766C34.6705 53.9797 34.6154 53.9809 34.5605 53.9834C34.4373 53.9889 34.3146 53.9931 34.1924 53.9951C33.7982 54.0017 33.4101 53.9914 33.0303 53.9609C33.0228 53.9603 33.0153 53.9606 33.0078 53.96L33.0068 53.959C30.9833 53.7926 29.2035 53.0962 28.0625 51.8105C27.6691 51.3673 27.1792 50.8528 26.6465 50.3066C26.3274 49.9796 25.9919 49.6408 25.6533 49.2998C24.5339 48.1753 23.3672 47.0248 22.5566 46.165C20.1538 43.6165 16.7284 40.7943 13.876 38.6172C12.4498 37.5286 11.1688 36.6048 10.2305 35.9619C9.76136 35.6406 9.37995 35.3904 9.09277 35.2168C9.07384 35.2053 9.06001 35.1992 9.04199 35.1885C9.04035 35.1762 9.03963 35.1637 9.03809 35.1514C9.02637 35.057 9.01752 34.9619 9.01172 34.8662C9.00954 34.8321 9.00732 34.7979 9.00586 34.7637C9.00295 34.6893 9.00253 34.6148 9.00293 34.54C9.00454 33.7686 9.18007 32.9817 9.5127 32.3184C9.93969 31.4668 10.5695 30.8865 11.2529 30.6562C14.7514 32.7356 18.1722 34.9977 21.4307 38.0264C21.9935 37.3158 22.5998 36.6529 23.2432 36.0312C20.6764 31.1354 17.5037 26.9417 13.9375 23.2295C13.8041 23.0906 13.6706 22.952 13.5361 22.8145C13.0461 22.3134 12.5498 21.8199 12.0459 21.3359C12.0641 21.2248 12.0884 21.1126 12.1191 21C12.1288 20.9647 12.1406 20.9299 12.1514 20.8945C12.1584 20.8716 12.1644 20.8482 12.1719 20.8252C12.1825 20.7926 12.1944 20.7602 12.2061 20.7275C12.2144 20.7041 12.2226 20.6806 12.2314 20.6572C12.242 20.6292 12.2534 20.6013 12.2646 20.5732C12.2977 20.491 12.3333 20.4088 12.3721 20.3271C12.417 20.2325 12.4654 20.1382 12.5176 20.0449C12.5304 20.0221 12.5435 19.9993 12.5566 19.9766C12.6059 19.8917 12.6581 19.8077 12.7129 19.7246C12.7282 19.7014 12.744 19.6784 12.7598 19.6553C12.8186 19.569 12.88 19.4838 12.9443 19.4004C12.9575 19.3833 12.971 19.3665 12.9844 19.3496C13.051 19.2653 13.1196 19.1822 13.1914 19.1016C13.2064 19.0847 13.2221 19.0684 13.2373 19.0518C13.3601 18.9172 13.4896 18.7883 13.625 18.667C13.7468 18.5578 13.8722 18.4557 14 18.3613C14.013 18.3518 14.0261 18.3424 14.0391 18.333C14.0923 18.2945 14.1454 18.2566 14.1992 18.2207C14.2112 18.2127 14.2234 18.2051 14.2354 18.1973C14.2801 18.168 14.3251 18.1398 14.3701 18.1123C14.4174 18.0834 14.4652 18.0561 14.5127 18.0293C14.5447 18.0112 14.5763 17.9927 14.6084 17.9756C14.7065 17.9231 14.8048 17.8755 14.9023 17.832C14.9346 17.8177 14.967 17.8044 14.999 17.791C15.0262 17.7797 15.0531 17.7684 15.0801 17.7578C15.4675 17.6058 15.84 17.5279 16.1582 17.5312C18.2048 19.6063 20.139 21.7681 21.9346 24.04C22.0322 24.1635 22.1298 24.287 22.2266 24.4111C22.3602 24.5827 22.4929 24.7549 22.625 24.9277C22.6734 24.991 22.7214 25.0547 22.7695 25.1182C22.949 25.3547 23.1274 25.592 23.3037 25.8311C23.4668 26.052 23.6287 26.2739 23.7891 26.4971C23.8467 26.5772 23.9037 26.6578 23.9609 26.7383C24.0978 26.9305 24.2334 27.1236 24.3682 27.3174C24.4796 27.4776 24.5902 27.6384 24.7002 27.7998C24.79 27.9315 24.8789 28.0638 24.9678 28.1963C25.0614 28.336 25.1554 28.4756 25.248 28.6162C25.6325 29.1997 26.0076 29.7908 26.373 30.3896C26.4501 30.5159 26.5264 30.6426 26.6025 30.7695C26.702 30.9352 26.8005 31.1016 26.8984 31.2686C26.9758 31.4005 27.0534 31.5324 27.1299 31.665C27.1596 31.7166 27.1902 31.7677 27.2197 31.8193L27.6709 32.6221C28.3486 32.1962 29.0449 31.7908 29.7549 31.4004C27.9037 25.0777 25.5421 19.0481 22.5527 13.3848C23.4374 12.3306 24.3212 11.6282 25.3477 11.2725C25.3894 11.258 25.4314 11.2438 25.4736 11.2305C25.5189 11.2162 25.5645 11.2024 25.6104 11.1895C25.6492 11.1785 25.6883 11.1683 25.7275 11.1582C25.7678 11.1479 25.8079 11.1372 25.8486 11.1279C25.9246 11.1106 26.0014 11.0949 26.0791 11.0811C26.1063 11.0762 26.1337 11.0718 26.1611 11.0674C26.2186 11.0581 26.2765 11.0504 26.335 11.043C26.37 11.0385 26.4051 11.034 26.4404 11.0303C26.5266 11.0211 26.6138 11.014 26.7021 11.0088C26.8229 11.0019 26.9445 10.9983 27.0654 11L27.3477 11.0098Z" fill="white"/>
<path d="M8.10742 39.3584C8.9689 39.9529 10.1384 40.7971 11.4482 41.7969C12.3615 42.4939 13.3175 43.2492 14.2686 44.0273C15.1268 45.2062 16.1616 46.1881 17.541 46.8496C18.0354 47.304 18.5084 47.7548 18.9502 48.1963C15.9776 49.0224 11.3244 48.9192 9.59961 46.8242C7.60592 44.4015 7.95715 42.0202 8.10742 39.3584Z" fill="white"/>
<path d="M46.6543 15.4521C48.9887 18.0824 50.555 21.0169 51.2051 23.9844C51.2105 24.0091 51.2163 24.0343 51.2217 24.0586C50.4572 24.1487 49.7279 24.3648 49.0537 24.6523L49.0527 24.6533C48.2675 24.9885 47.5156 25.4481 46.8115 25.9688C46.8939 22.4486 46.8386 18.894 46.6543 15.4521Z" fill="white"/>
<path d="M16 4H4V16H0V0H16V4Z" fill="white"/>
<path d="M64 16H60V4H48V0H64V16Z" fill="white"/>
</svg>
