<svg width="64" height="64" viewBox="0 0 64 64" fill="none" xmlns="http://www.w3.org/2000/svg">
<path d="M4 60H16V64H0V48H4V60Z" fill="white"/>
<path d="M64 64H48V60H60V48H64V64Z" fill="white"/>
<path d="M9.10938 38.3594C9.69134 38.5572 10.1983 38.8922 10.6436 39.3242C11.9434 41.626 12.6783 43.7878 13.3311 45.6436C13.3731 45.7631 13.4175 45.8856 13.4609 46.0088C13.6789 47.1453 13.8266 48.2036 13.9482 49.0166C14.1907 50.6352 15.186 51.3735 16.002 51.3369C16.9763 52.7374 18.2947 53.9373 19.7891 54.916C19.061 55.3223 18.3246 55.6905 17.5947 56H12.0781C10.5819 54.6259 9.21543 53.1085 8 51.4688V48.7959C8.4486 48.3494 8.96538 47.8743 9.3291 47.1338C10.1935 45.3736 11.9019 42.045 9.10938 38.3594Z" fill="white"/>
<path d="M36.9346 11L37.2979 11.0088C37.3859 11.0139 37.4728 11.0211 37.5586 11.0303C37.594 11.034 37.6291 11.0386 37.6641 11.043C37.7225 11.0504 37.7805 11.0581 37.8379 11.0674C37.8653 11.0718 37.8927 11.0762 37.9199 11.0811C37.996 11.0947 38.0711 11.11 38.1455 11.127C38.1921 11.1375 38.2382 11.1493 38.2842 11.1611C38.3159 11.1693 38.3475 11.1777 38.3789 11.1865C38.4307 11.201 38.4821 11.2162 38.5332 11.2324C38.5558 11.2396 38.5781 11.2474 38.6006 11.2549C39.6492 11.6047 40.5478 12.3129 41.4473 13.3848C38.4579 19.0481 36.0963 25.0777 34.2451 31.4004C34.7775 31.6932 35.3025 31.9937 35.8174 32.3057C35.9891 32.4097 36.1596 32.5156 36.3291 32.6221C36.5158 32.2833 36.7066 31.9471 36.8994 31.6133C36.9466 31.5316 36.9945 31.4505 37.042 31.3691C37.1665 31.156 37.292 30.9436 37.4189 30.7324C37.481 30.6291 37.5428 30.5257 37.6055 30.4229C37.9852 29.7996 38.3751 29.1847 38.7754 28.5781C38.8179 28.5137 38.8616 28.45 38.9043 28.3857C39.0649 28.1443 39.2268 27.9039 39.3906 27.665C39.4531 27.5739 39.5152 27.4824 39.5781 27.3916C39.7491 27.145 39.9224 26.9002 40.0967 26.6562C40.1228 26.6197 40.1477 26.5824 40.1738 26.5459C40.3787 26.2603 40.5856 25.9764 40.7949 25.6943C40.8942 25.5605 40.9954 25.428 41.0957 25.2949C41.2129 25.1394 41.3297 24.9836 41.4482 24.8291C41.5547 24.6903 41.663 24.553 41.7705 24.415C41.8828 24.271 41.9959 24.1276 42.1094 23.9844C42.2049 23.8637 42.2992 23.7421 42.3955 23.6221C42.5196 23.4675 42.6461 23.3147 42.7715 23.1611C43.0134 22.8648 43.2573 22.57 43.5039 22.2773C43.5499 22.2228 43.5954 22.1677 43.6416 22.1133C43.7973 21.9296 43.9538 21.7467 44.1113 21.5645C44.1774 21.488 44.2442 21.4121 44.3105 21.3359C45.4447 20.0342 46.623 18.767 47.8418 17.5312C48.1625 17.5279 48.538 17.6074 48.9287 17.7617C48.9463 17.7687 48.9638 17.776 48.9814 17.7832C49.0221 17.7999 49.0627 17.8177 49.1035 17.8359C49.2 17.8791 49.2975 17.9256 49.3945 17.9775C49.5786 18.0761 49.7625 18.1903 49.9424 18.3193C49.9706 18.3396 49.9983 18.3608 50.0264 18.3818C50.0564 18.4043 50.0865 18.4269 50.1162 18.4502C50.1444 18.4723 50.1723 18.4948 50.2002 18.5176C50.2591 18.5658 50.3176 18.6155 50.375 18.667C50.5103 18.7882 50.6391 18.9174 50.7617 19.0518C50.7769 19.0684 50.7926 19.0847 50.8076 19.1016C50.8794 19.1822 50.948 19.2653 51.0146 19.3496C51.028 19.3665 51.0415 19.3833 51.0547 19.4004C51.1191 19.4838 51.1804 19.569 51.2393 19.6553C51.255 19.6784 51.2708 19.7014 51.2861 19.7246C51.3409 19.8077 51.3931 19.8917 51.4424 19.9766C51.4556 19.9993 51.4687 20.0221 51.4814 20.0449C51.5336 20.1382 51.582 20.2325 51.627 20.3271C51.6673 20.4122 51.7051 20.4974 51.7393 20.583C51.749 20.6074 51.7584 20.6318 51.7676 20.6562C51.8359 20.8374 51.8901 21.0187 51.9277 21.1982C51.9374 21.2443 51.9466 21.2902 51.9541 21.3359C51.4502 21.8199 50.9539 22.3134 50.4639 22.8145C50.3514 22.9295 50.2396 23.0452 50.1279 23.1611C46.6275 26.7942 43.5065 30.8898 40.96 35.6533C40.8927 35.7791 40.8233 35.9045 40.7568 36.0312C40.8819 36.1521 41.005 36.2751 41.127 36.3994C41.6334 36.9134 42.1159 37.4539 42.5693 38.0264C45.8278 34.9977 49.2486 32.7356 52.7471 30.6562C53.4305 30.8865 54.0603 31.4668 54.4873 32.3184C54.8302 33.0022 55.0057 33.8172 54.9961 34.6113C54.9958 34.6521 54.9945 34.6928 54.9932 34.7334C54.9913 34.7856 54.9889 34.8377 54.9854 34.8896C54.9796 34.9774 54.9727 35.0647 54.9619 35.1514C54.9604 35.1637 54.9596 35.1762 54.958 35.1885C54.94 35.1992 54.9262 35.2053 54.9072 35.2168C54.62 35.3904 54.2386 35.6406 53.7695 35.9619C52.8312 36.6048 51.5502 37.5286 50.124 38.6172C47.2716 40.7943 43.8462 43.6165 41.4434 46.165C39.9772 47.7202 37.3444 50.2253 35.9375 51.8105C34.7961 53.0967 33.0155 53.7929 30.9912 53.959C30.9844 53.9595 30.9775 53.9604 30.9707 53.9609C30.5806 53.9922 30.1817 54.0019 29.7764 53.9941C29.6777 53.9923 29.5788 53.9895 29.4795 53.9854C29.4103 53.9824 29.341 53.9806 29.2715 53.9766C29.0985 53.9666 28.9246 53.9532 28.75 53.9365C28.684 53.9302 28.618 53.9224 28.5518 53.915C28.4241 53.901 28.2962 53.8848 28.168 53.8672C28.1078 53.8589 28.0476 53.8509 27.9873 53.8418C27.8006 53.8137 27.6131 53.7836 27.4258 53.748C27.2711 53.7186 27.117 53.6843 26.9629 53.6494C25.544 53.3325 24.1531 52.806 22.915 52.127C22.885 52.1105 22.8551 52.0938 22.8252 52.0771C22.5242 51.9093 22.2325 51.7329 21.9521 51.5479C21.8876 51.5053 21.8241 51.4614 21.7607 51.418C20.6931 50.6853 19.7988 49.8351 19.1895 48.9111C18.1906 47.3966 17.6718 45.9292 17.1045 44.3164C15.9148 40.934 14.2328 35.8179 9 30.7695C9.6391 29.4118 10.3284 28.6285 10.9639 28.2891C11.6848 27.9039 12.4159 27.9222 13.377 28.332C14.3899 28.7643 15.5514 29.6854 16.7529 30.916C16.7712 30.9348 16.7893 30.9538 16.8076 30.9727C16.9326 31.1015 17.0579 31.2338 17.1836 31.3691C17.2071 31.3944 17.2304 31.4198 17.2539 31.4453C17.3813 31.5835 17.5089 31.7248 17.6367 31.8691C17.661 31.8965 17.6857 31.9236 17.71 31.9512C17.8122 32.0674 17.9143 32.1858 18.0166 32.3057C18.0756 32.3747 18.1344 32.4444 18.1934 32.5146C18.2648 32.5997 18.3359 32.6858 18.4072 32.7725C18.4823 32.8636 18.5579 32.955 18.6328 33.0479C18.7188 33.1543 18.8039 33.2625 18.8896 33.3711C18.9339 33.4271 18.9793 33.4825 19.0234 33.5391C19.1718 33.7291 19.3195 33.9224 19.4668 34.1182C19.9615 34.817 20.4643 35.4938 20.9551 36.1641L21.6982 37.1953C21.8569 37.4194 22.0121 37.6445 22.165 37.8701C23.1427 39.3096 23.9906 40.7896 24.5186 42.4795C24.5504 42.5813 24.5818 42.6837 24.6113 42.7871C24.6222 42.8254 24.633 42.8638 24.6436 42.9023C24.678 43.0274 24.7104 43.1537 24.7412 43.2812C24.7495 43.3157 24.7576 43.3502 24.7656 43.3848C24.8167 43.6044 24.8636 43.8274 24.9033 44.0547L24.9551 44.377L26.7666 44.1113C26.696 43.6326 26.6022 43.1709 26.4912 42.7236C26.1787 41.4673 25.7178 40.3281 25.168 39.2656V39.2637C24.7829 38.5198 24.3542 37.8139 23.9023 37.1318L23.3506 36.3232C23.2483 36.1775 23.1435 36.0338 23.04 35.8896C22.8953 35.6883 22.7506 35.4878 22.6045 35.2891C22.2832 34.8512 21.9607 34.4179 21.6416 33.9863C21.6086 33.6257 21.5779 33.2627 21.5488 32.8984C21.3281 30.182 21.1997 27.3711 21.1621 24.5479C21.157 24.1746 21.1543 23.8012 21.1523 23.4277C21.1521 23.3773 21.1516 23.3268 21.1514 23.2764C21.1458 21.905 21.1608 20.5337 21.1973 19.1719L21.1982 19.1689C21.2567 16.9883 21.3676 14.8318 21.5303 12.7383C21.5756 12.6934 21.6238 12.6503 21.6738 12.6084C21.6927 12.5926 21.7119 12.5769 21.7314 12.5615C21.7653 12.5348 21.8002 12.5088 21.8359 12.4834C21.857 12.4685 21.8778 12.453 21.8994 12.4385C21.9545 12.4016 22.0114 12.3659 22.0703 12.332C22.0826 12.3249 22.0959 12.3195 22.1084 12.3125C22.1453 12.292 22.1825 12.2713 22.2207 12.252L22.291 12.2168C22.3118 12.2069 22.3333 12.1981 22.3545 12.1885C22.3774 12.1781 22.4005 12.1682 22.4238 12.1582C22.5615 12.0993 22.706 12.0475 22.8564 12.0029C22.8865 11.994 22.9167 11.9849 22.9473 11.9766C22.9853 11.9662 23.0238 11.9567 23.0625 11.9473C23.114 11.9347 23.1661 11.923 23.2188 11.9121C23.2367 11.9084 23.2544 11.9039 23.2725 11.9004C23.6076 11.835 23.9622 11.8034 24.3262 11.8086C25.4093 11.8242 26.4718 12.1922 27.1279 12.6865C26.931 15.5654 26.6569 18.4233 26.5371 21.333C26.5097 22.0038 26.4905 22.6773 26.4824 23.3545C26.4652 24.7866 26.4966 26.2349 26.6064 27.708C27.5204 28.1257 28.4352 28.5425 29.3457 28.9639C30.8742 23.0269 33.0939 17.0727 35.7588 11.1064C35.9645 11.0757 36.1659 11.0494 36.3623 11.0312C36.5584 11.0129 36.7494 11.0023 36.9346 11Z" fill="white"/>
<path d="M55.8916 39.3574C56.0418 42.0196 56.3943 44.4012 54.4004 46.8242C52.6754 48.9194 48.0214 49.0227 45.0488 48.1963C45.4906 47.7548 45.9637 47.304 46.458 46.8496C47.8376 46.1882 48.8722 45.2062 49.7305 44.0273C50.6817 43.2491 51.6383 42.4941 52.5518 41.7969C53.8615 40.7972 55.0301 39.952 55.8916 39.3574Z" fill="white"/>
<path d="M17.3447 15.4521C17.1604 18.8939 17.1061 22.4486 17.1885 25.9688C16.4844 25.4481 15.7325 24.9885 14.9473 24.6533L14.9463 24.6523C14.2718 24.3647 13.5421 24.1486 12.7773 24.0586C12.7827 24.0343 12.7895 24.0091 12.7949 23.9844C13.445 21.0171 15.0105 18.0823 17.3447 15.4521Z" fill="white"/>
<path d="M16 4H4V16H0V0H16V4Z" fill="white"/>
<path d="M64 16H60V4H48V0H64V16Z" fill="white"/>
</svg>
