<svg width="64" height="64" viewBox="0 0 64 64" fill="none" xmlns="http://www.w3.org/2000/svg">
<path d="M4 60H16V64H0V48H4V60Z" fill="white"/>
<path d="M64 64H48V60H60V48H64V64Z" fill="white"/>
<path d="M14.0479 43.2715C14.4891 44.8298 14.8248 46.4155 15.0088 48.0059C15.368 51.1129 16.3617 53.9606 18.1064 56H14.1436C12.8398 54.8917 11.6276 53.6816 10.5186 52.3828C10.3823 49.6611 12.0753 46.2337 14.0479 43.2715Z" fill="white"/>
<path d="M20.9492 11C20.986 11.2246 21.0297 11.4628 21.0781 11.7139C21.2168 12.4334 21.4027 13.2565 21.6338 14.1553C21.8075 14.8302 22.0068 15.5477 22.2305 16.2959C23.4647 20.4242 25.4478 25.4836 28.041 29.457C28.8455 30.6897 29.7097 31.8177 30.627 32.7812C30.7727 32.9343 30.9199 33.083 31.0684 33.2275C31.3204 33.473 31.5761 33.7059 31.8359 33.9248C32.6811 34.6366 33.5661 35.2023 34.4893 35.5801L35.3682 35.5879L48.4688 35.7197C48.9275 35.3669 49.3844 35.0943 49.8311 34.8926C49.8577 34.8805 49.8845 34.869 49.9111 34.8574C50.0342 34.804 50.1561 34.7548 50.2773 34.7119C50.3858 34.6736 50.4938 34.6406 50.6006 34.6104C50.6366 34.6002 50.6722 34.5894 50.708 34.5801C50.732 34.5738 50.7564 34.5693 50.7803 34.5635C50.8301 34.5513 50.8794 34.5387 50.9287 34.5283C51.0025 34.5127 51.0758 34.4991 51.1484 34.4873L51.3184 34.4639C51.321 34.4635 51.3236 34.4632 51.3262 34.4629C51.4384 34.4491 51.5491 34.4397 51.6582 34.4346C51.6866 34.4332 51.7149 34.4314 51.7432 34.4307C51.8544 34.4277 51.9638 34.4298 52.0713 34.4355C52.0879 34.4364 52.1045 34.4374 52.1211 34.4385C52.1763 34.4421 52.231 34.4473 52.2852 34.4531C52.2894 34.4536 52.2936 34.4536 52.2979 34.4541C52.4127 34.4669 52.5251 34.4845 52.6348 34.5068C52.6455 34.509 52.6563 34.5114 52.667 34.5137C52.7118 34.5232 52.756 34.5338 52.7998 34.5449C52.8145 34.5486 52.8292 34.5518 52.8438 34.5557C52.8879 34.5674 52.9314 34.5805 52.9746 34.5938C52.987 34.5976 52.9994 34.6015 53.0117 34.6055C53.0506 34.6179 53.089 34.6309 53.127 34.6445C53.1473 34.6518 53.1674 34.6593 53.1875 34.667C53.2168 34.6782 53.2456 34.6902 53.2744 34.7021C53.2966 34.7113 53.319 34.7199 53.3408 34.7295C53.5366 34.8156 53.7184 34.9188 53.8848 35.0361C53.8922 35.0414 53.8998 35.0464 53.9072 35.0518C55.5108 36.2046 55.6218 38.7135 52.374 40.4502C52.374 40.4502 50.7369 42.8324 47.248 44.0654C47.1953 44.0841 47.1424 44.103 47.0889 44.1211C47.0287 44.1414 46.9675 44.1601 46.9062 44.1797C46.8516 44.1972 46.7967 44.2145 46.7412 44.2314C46.6404 44.2622 46.5382 44.2917 46.4346 44.3203C46.3505 44.3436 46.2657 44.3668 46.1797 44.3887C46.135 44.4 46.0901 44.411 46.0449 44.4219C45.9627 44.4418 45.8798 44.461 45.7959 44.4795C45.7316 44.4937 45.6669 44.5082 45.6016 44.5215C45.4904 44.5442 45.3777 44.5649 45.2637 44.585C45.2061 44.5951 45.1482 44.6048 45.0898 44.6143C44.9878 44.6308 44.8846 44.6458 44.7803 44.6602C44.7246 44.6678 44.6686 44.6756 44.6123 44.6826C44.4698 44.7003 44.3254 44.7171 44.1787 44.7305C44.0162 44.7452 43.8531 44.7628 43.6895 44.7822C43.2099 44.839 42.7258 44.9163 42.2383 45.0117C42.1093 45.0371 41.98 45.0638 41.8506 45.0918C40.532 45.3759 39.1936 45.7957 37.8662 46.3369C37.4147 46.521 36.9644 46.7192 36.5166 46.9307C36.4899 46.9433 36.4632 46.956 36.4365 46.9688C35.7587 47.2915 35.0865 47.6442 34.4248 48.0264C31.99 49.4332 29.6932 51.2288 27.7471 53.3105C27.5144 53.5594 27.2717 53.7783 27.0254 53.9727C26.9772 54.0107 26.9285 54.0471 26.8799 54.083C26.8328 54.1178 26.7858 54.1518 26.7383 54.1846C26.7011 54.2102 26.6633 54.2344 26.626 54.2588C26.538 54.3164 26.4504 54.3719 26.3613 54.4229C26.335 54.4379 26.3086 54.4524 26.2822 54.4668C26.0887 54.5728 25.8933 54.662 25.6963 54.7363C25.6849 54.7406 25.6735 54.7448 25.6621 54.749C22.993 55.7304 20.0984 53.8022 19.1582 48.7148C19.1288 48.5564 19.0996 48.3951 19.0742 48.2305L18.9824 47.5469C18.9773 47.5022 18.9712 47.4577 18.9658 47.4131C18.9025 46.8864 18.8239 46.3612 18.7334 45.8379C18.7146 45.7295 18.6966 45.6209 18.6768 45.5127C18.5929 45.0552 18.4961 44.6002 18.3936 44.1465C18.3457 43.9349 18.2978 43.7233 18.2461 43.5127C18.1604 43.1629 18.0692 42.8146 17.9736 42.4678C17.711 41.5159 17.4137 40.5759 17.0879 39.6523C16.7819 38.7849 16.453 37.9305 16.1045 37.0957L16.1035 37.0977C15.5473 35.7651 14.9455 34.4786 14.3242 33.2529C12.0345 28.7361 9.48429 25.0446 8 22.917C8.47959 18.3339 11.8369 16.499 11.8369 16.499C12.7654 18.4426 14.4155 20.234 14.8213 20.0107C15.2271 19.7874 15.1629 19.3606 14.2344 17.417C13.9589 16.8404 13.755 16.0406 13.2754 15.124C13.755 14.6643 14.7146 13.7476 15.6738 13.749C16.2211 15.1739 16.3134 16.1664 16.6328 16.8936C17.7605 19.4627 18.6879 20.8602 19.2803 21.3418C19.3606 21.4071 19.4344 21.4553 19.502 21.4873C19.5148 21.4934 19.5276 21.498 19.54 21.5029C19.5511 21.5073 19.5616 21.5121 19.5723 21.5156C19.6595 21.5443 19.7327 21.5446 19.7939 21.5137C20.1135 21.3519 20.6168 20.6617 20.3174 18.9971V18.999C20.261 18.6853 20.1751 18.3373 20.0557 17.9512C19.9203 17.5171 19.7439 17.0344 19.5098 16.501C19.4278 16.3141 19.2951 16.0186 19.1426 15.666C19.0765 15.5131 19.0076 15.349 18.9365 15.1787C18.9257 15.1527 18.9142 15.1269 18.9033 15.1006C18.8512 14.9749 18.801 14.8452 18.749 14.7148C18.7187 14.6389 18.687 14.563 18.6572 14.4863C18.648 14.4625 18.6381 14.4389 18.6289 14.415C18.6291 14.4138 18.6287 14.4124 18.6289 14.4111C18.3276 13.6259 18.0713 12.832 18.0713 12.374C18.4753 11.6007 19.22 11.156 20.3047 11.0352C20.306 11.035 20.3082 11.0343 20.3096 11.0342C20.4019 11.024 20.4965 11.0162 20.5938 11.0107C20.6055 11.01 20.6171 11.0084 20.6289 11.0078C20.7328 11.0026 20.8398 10.9999 20.9492 11Z" fill="white"/>
<path d="M56 43.2041C52.6219 48.1199 48.1267 51.3845 43.5293 52.4434C37.47 53.8389 44.934 52.7863 40.8838 50.499C40.4947 50.2793 40.0758 50.0936 39.6328 49.9375C41.3159 49.2756 42.987 48.8561 44.541 48.7148C48.2124 48.3811 50.9479 46.9659 52.7715 45.6045C53.6773 44.9282 54.3614 44.2643 54.835 43.7461C54.9014 43.6734 54.9619 43.6012 55.0205 43.5342C55.3615 43.3187 55.6888 43.0857 56 42.8369V43.2041Z" fill="white"/>
<path d="M11.5967 36.7852C12.1842 38.0467 12.7335 39.357 13.2178 40.6992C11.1501 43.5886 9.53058 46.7383 8.84961 50.2549C8.55655 49.8467 8.2739 49.4307 8 49.0088V39.7637C9.08081 39.0128 10.1874 38.1765 11.0254 37.3721C11.2187 37.1865 11.4077 36.989 11.5967 36.7852Z" fill="white"/>
<path d="M56 31.6201C54.8573 30.8578 53.5362 30.4735 52.1641 30.4365C53.5249 29.0167 54.8437 27.6507 56 26.501V31.6201Z" fill="white"/>
<path d="M56 12.2754C52.9561 14.5227 48.394 18.1476 45.0449 19.0674C40.6463 20.2755 37.3852 22.0666 37.9863 21.9941C38.5896 21.9206 38.9202 21.8226 39.5195 21.7217C40.1227 21.6194 48.763 18.8146 55.6123 21.2764C49.0675 20.9114 39.9701 25.6412 37.3223 29.2871C36.7476 30.0784 36.3726 30.8497 36.1162 31.5957L35.4238 31.5889C34.5622 31.0874 33.5643 30.1971 32.4873 28.8145C31.51 27.5597 30.5779 26.0429 29.7158 24.373C31.0859 20.7953 32.9454 17.5509 35.9482 16.3506C42.3326 13.7991 51.2963 11.3362 56 10.418V12.2754Z" fill="white"/>
<path d="M16 4H4V16H0V0H16V4Z" fill="white"/>
<path d="M64 16H60V4H48V0H64V16Z" fill="white"/>
<path d="M35.6318 8C32.7855 11.1236 28.9728 12.4616 25.7617 14.1104C25.3463 12.6156 25.0544 11.3158 24.8965 10.3525L24.7441 9.42871C27.7381 9.31611 30.9711 10.314 34.9551 8H35.6318Z" fill="white"/>
</svg>
