<svg width="36" height="36" viewBox="0 0 36 36" fill="none" xmlns="http://www.w3.org/2000/svg">
<path d="M1 35H9V36H0V27H1V35Z" fill="#FF0044"/>
<path d="M36 36H27V35H35V27H36V36Z" fill="#FF0044"/>
<path d="M22.2572 28.4656C21.7157 30.0314 21.0697 31.4498 20.4291 32.625C20.8776 31.4188 21.1135 30.1997 21.2025 28.9589C21.2975 28.9218 21.3922 28.8841 21.486 28.8441L21.492 28.8413C21.7561 28.7271 22.011 28.6014 22.2572 28.4656Z" fill="#FF0044"/>
<path d="M19.0657 29.5247C18.5738 30.4402 17.9956 31.382 17.3095 32.3619C17.633 31.478 17.886 30.5634 18.0725 29.6307C18.4086 29.6098 18.7397 29.5742 19.0657 29.5247Z" fill="#FF0044"/>
<path d="M14.9249 29.4434C15.1485 29.4835 15.3732 29.5191 15.5995 29.5477C15.3554 30.2882 15.0714 31.0464 14.7448 31.8203C14.8746 31.0427 14.9334 30.2482 14.9249 29.4434Z" fill="#FF0044"/>
<path d="M24.3331 8.54297C30.4067 11.4397 34.3736 19.1812 28.9061 27.2071C29.2902 25.0331 29.1275 23.4259 28.3579 21.7112C27.8395 25.6924 27.2071 26.9938 23.3789 31.6972C24.3627 29.7781 24.8785 27.937 24.9445 26.0057C25.6079 24.9774 25.9451 23.8098 25.9882 22.5511L25.9931 22.2704C25.9931 21.2938 25.8057 20.3524 25.4257 19.4617C25.1002 18.699 24.6404 18.0303 24.0452 17.4771C24.4517 16.9439 24.7742 16.3544 25.0109 15.7143C25.2826 14.9796 25.4383 14.2229 25.4729 13.45L25.48 13.1177C25.48 12.1772 25.3139 11.3002 24.9741 10.5106C27.3699 13.1895 28.7079 16.6931 29.5274 20.9652C29.639 15.4712 27.7468 11.0502 24.3331 8.54297Z" fill="#FF0044"/>
<path d="M17.6907 8.28479C18.3443 8.28479 18.9506 8.33776 19.5101 8.44189L19.5079 8.44025C19.5297 8.44431 19.5515 8.44865 19.5732 8.45288C19.6051 8.45907 19.6367 8.46558 19.6683 8.47211C19.7493 8.48891 19.8293 8.50688 19.9083 8.52594C19.9164 8.52789 19.9244 8.53001 19.9325 8.53198C20.0074 8.55032 20.0813 8.56983 20.1544 8.59021C20.1772 8.59655 20.2 8.60235 20.2225 8.60889C20.2977 8.63067 20.3718 8.65358 20.445 8.67755C20.4725 8.68655 20.4996 8.69626 20.5269 8.70557C20.5818 8.72438 20.6362 8.74372 20.69 8.76379C20.7114 8.77179 20.733 8.77922 20.7543 8.78741C20.8249 8.81464 20.8944 8.84312 20.963 8.87256C20.9857 8.88231 21.0081 8.89278 21.0306 8.90277C21.0882 8.92837 21.1452 8.95468 21.2014 8.98187C21.2132 8.98758 21.2254 8.99257 21.2371 8.99835L21.2613 9.01044C21.3258 9.0426 21.3893 9.07611 21.4519 9.11041C21.4719 9.12134 21.4915 9.13278 21.5112 9.14392C21.5682 9.17607 21.6245 9.20885 21.6799 9.2428C21.6886 9.24817 21.6975 9.25331 21.7062 9.25873C21.7703 9.29852 21.8328 9.34009 21.8947 9.38232C21.9121 9.39422 21.9296 9.40594 21.9468 9.41803C22.0096 9.46207 22.0715 9.50711 22.132 9.55371L22.333 9.71466C23.1114 10.3753 23.5786 11.2332 23.7343 12.2888C23.7733 12.5527 23.7925 12.829 23.7925 13.1177L23.787 13.3731C23.7836 13.4506 23.7783 13.5278 23.7717 13.6049C23.7692 13.6339 23.7653 13.6628 23.7623 13.6917C23.7569 13.7456 23.7512 13.7995 23.7442 13.8532C23.7409 13.8783 23.7374 13.9034 23.7338 13.9285C23.7262 13.9809 23.7181 14.0333 23.709 14.0856C23.7036 14.1171 23.698 14.1486 23.692 14.1801C23.683 14.2274 23.6731 14.2746 23.6629 14.3218C23.6543 14.3614 23.6454 14.4009 23.636 14.4404C23.6275 14.476 23.6183 14.5115 23.6091 14.547C23.5987 14.5871 23.5885 14.6273 23.5772 14.6673C23.5662 14.7066 23.5545 14.7457 23.5426 14.7849C23.5306 14.8244 23.5187 14.864 23.5058 14.9035C23.499 14.9242 23.4919 14.9449 23.4849 14.9656C23.4665 15.02 23.4484 15.075 23.4283 15.1293C23.398 15.2113 23.3655 15.292 23.3317 15.3715C23.3005 15.4448 23.2675 15.5168 23.2333 15.588C23.2184 15.6191 23.2022 15.6495 23.1866 15.6802C23.1656 15.7219 23.1445 15.7635 23.1224 15.8044C23.1037 15.839 23.0842 15.873 23.0647 15.9071C23.0459 15.9399 23.027 15.9726 23.0076 16.0049C22.9878 16.0378 22.9676 16.0703 22.9471 16.1027C22.9217 16.1428 22.8957 16.1825 22.8691 16.2219C22.8499 16.2503 22.8302 16.2784 22.8104 16.3065C22.789 16.3368 22.7671 16.3667 22.745 16.3965C22.7192 16.4313 22.6937 16.4662 22.667 16.5004C22.6438 16.53 22.62 16.5591 22.5961 16.5883C22.5711 16.6188 22.5461 16.6494 22.5203 16.6794C22.4753 16.7319 22.4293 16.7836 22.3819 16.8344C22.375 16.8417 22.3685 16.8495 22.3616 16.8569C21.8936 17.3428 21.3268 17.6713 20.6609 17.8423C20.7086 17.8423 20.7558 17.8434 20.8026 17.8451C21.0371 17.8534 21.2607 17.8818 21.4733 17.9313C21.5586 17.9512 21.6421 17.9746 21.7238 18.0011C21.8054 18.0275 21.8853 18.057 21.9633 18.0901C22.1974 18.1892 22.4156 18.3182 22.6181 18.4768C22.6603 18.5093 22.7016 18.5428 22.7422 18.5768C22.752 18.585 22.7617 18.5932 22.7714 18.6015C22.8048 18.63 22.8373 18.6593 22.8697 18.6888C22.8766 18.6951 22.8837 18.7012 22.8906 18.7075C23.3075 19.0935 23.6355 19.5657 23.8738 20.1242C24.1618 20.7991 24.3056 21.5145 24.3056 22.2704C24.3056 23.4584 23.9908 24.48 23.3608 25.335C22.7308 26.181 21.8849 26.8338 20.8229 27.2928C19.77 27.7428 18.5998 27.9673 17.3128 27.9673C16.2868 27.9673 15.2967 27.8414 14.3427 27.5894C13.3887 27.3374 12.5339 26.9412 11.7779 26.4012L12.9117 23.3234C13.4228 23.8166 14.0455 24.2026 14.7799 24.4814C14.7827 24.4824 14.7854 24.4836 14.7881 24.4847L15.0639 24.5792C15.2999 24.6551 15.5349 24.7157 15.7681 24.7637C15.8465 24.7798 15.9246 24.7942 16.0027 24.8071C16.0925 24.8221 16.1819 24.8348 16.2713 24.8456C16.3931 24.8602 16.5145 24.8716 16.6355 24.8785C16.7448 24.8848 16.8532 24.8895 16.9618 24.8895C17.5218 24.8895 18.0127 24.8273 18.4351 24.705C18.6164 24.6524 18.7849 24.5882 18.941 24.5132C19.1581 24.4087 19.3509 24.2831 19.5189 24.1348C19.5588 24.0995 19.5976 24.0632 19.6348 24.0255C19.6421 24.0181 19.6489 24.0103 19.6562 24.0029C20.0984 23.5521 20.366 23.0146 20.4598 22.3896C20.4641 22.3614 20.4684 22.333 20.4719 22.3044C20.4733 22.2931 20.4739 22.2817 20.4752 22.2704C20.4843 22.1903 20.4915 22.1088 20.495 22.0259L20.4983 21.8655C20.4983 21.7964 20.496 21.7288 20.4928 21.6628C20.4923 21.6531 20.4922 21.6434 20.4917 21.6337C20.4636 21.1407 20.3438 20.7373 20.1324 20.423L20.1319 20.4219C20.0796 20.3443 20.0224 20.2717 19.9589 20.205C19.7461 19.9703 19.4914 19.7812 19.1959 19.6359C19.1581 19.6173 19.1201 19.6003 19.0811 19.5831C18.9212 19.5132 18.7504 19.4541 18.568 19.4084C17.992 19.2645 17.3754 19.1926 16.7184 19.1926H15.2875V16.5196H16.7454L16.9497 16.5163C17.8074 16.4893 18.4796 16.2881 18.9679 15.9148C19.0512 15.8511 19.1299 15.7832 19.2025 15.7094C19.3527 15.5566 19.4813 15.393 19.5897 15.2194C19.7162 15.0168 19.8145 14.8005 19.8842 14.5695C19.8933 14.5391 19.9023 14.5086 19.9105 14.4778C19.9251 14.4227 19.9375 14.3668 19.949 14.3102C19.9559 14.2759 19.963 14.2414 19.9688 14.2064C19.9716 14.1889 19.9738 14.1713 19.9764 14.1537C19.9817 14.1181 19.9866 14.0822 19.9907 14.046C19.9935 14.0212 19.9962 13.9964 19.9984 13.9713C20.0032 13.9179 20.0071 13.8639 20.0094 13.8093L20.0127 13.6577C20.0127 13.6477 20.0122 13.6378 20.0121 13.628C20.0072 12.8902 19.8174 12.3534 19.4431 12.0163C19.4015 11.9789 19.3584 11.9433 19.3123 11.9108L19.2162 11.8488C19.0667 11.7575 18.8997 11.6791 18.7152 11.6136C18.6444 11.5885 18.5709 11.5653 18.4949 11.5439C18.2313 11.4698 17.9367 11.4187 17.6111 11.3901C17.4068 11.3721 17.1904 11.3626 16.9618 11.3626C16.6108 11.3626 16.1878 11.4256 15.6929 11.5516C15.2069 11.6776 14.7204 11.8623 14.2344 12.1053C13.7486 12.3482 13.3438 12.6496 13.0199 13.0095L11.6697 10.1475C11.7195 10.1041 11.7711 10.061 11.8246 10.0184C11.8376 10.0081 11.8509 9.99797 11.8641 9.98767C11.8921 9.96591 11.9215 9.94549 11.9504 9.92395C11.9921 9.8929 12.0346 9.86169 12.0784 9.83112C12.1162 9.80469 12.1544 9.77809 12.1937 9.75201C12.2309 9.7274 12.2689 9.70326 12.3074 9.67896C12.3496 9.65228 12.3922 9.62505 12.436 9.59875C12.475 9.57535 12.5154 9.55319 12.5557 9.53009C12.7476 9.41998 12.9538 9.31311 13.1748 9.20984C13.1831 9.20597 13.1912 9.20162 13.1995 9.19775C13.4576 9.07802 13.735 8.96219 14.0323 8.85168C14.5588 8.6577 15.1364 8.5138 15.7648 8.41937C15.7953 8.41478 15.8259 8.41 15.8566 8.40564C15.9306 8.39517 16.0053 8.38564 16.0807 8.37653C16.1012 8.37404 16.1216 8.37122 16.1422 8.36884C16.3276 8.34746 16.5171 8.33045 16.7108 8.3172C16.7614 8.31372 16.8123 8.31023 16.8635 8.30731C16.9103 8.30465 16.9574 8.30291 17.0046 8.30072C17.0562 8.29832 17.108 8.29543 17.1601 8.29358C17.2029 8.29207 17.246 8.29142 17.2892 8.29028C17.3465 8.28876 17.4042 8.28675 17.4622 8.28589L17.4633 8.28644C17.5385 8.28533 17.6144 8.28479 17.6907 8.28479Z" fill="#FF0044"/>
<path d="M6.00677 13.411C9.37225 14.9321 11.8948 16.71 13.6 18.6899V20.8801H16.5652C16.6796 21.6182 16.7365 22.39 16.7316 23.1943C16.3087 23.1698 15.8602 23.0781 15.3814 22.9043C14.8365 22.6978 14.4139 22.4278 14.0834 22.1089L12.2223 20.3132L12.1844 20.4148C10.6832 17.893 8.59784 15.4933 6.00677 13.411Z" fill="#FF0044"/>
<path d="M18.1588 21.0454C18.4565 21.1198 18.6115 21.2317 18.7086 21.3387L18.7224 21.3541L18.7311 21.3635C18.7078 21.3354 18.8108 21.4211 18.8108 21.8655C18.8108 22.3121 18.6799 22.5935 18.4411 22.8323L18.4318 22.8417C18.4 22.8739 18.3511 22.9131 18.2791 22.9548C18.1925 22.2961 18.0747 21.6411 17.9258 20.9932C18.005 21.0091 18.0827 21.0264 18.1588 21.0454Z" fill="#FF0044"/>
<path d="M4.50604 10.6238C7.01727 10.9356 9.2035 11.6411 11.0061 12.6969L12.576 16.0247L13.6 14.887V18.5625C11.6217 15.4697 8.62239 12.7288 4.88892 10.816L4.50604 10.6238Z" fill="#FF0044"/>
<path d="M13.6983 14.8321H13.6494L13.673 14.8052C13.6815 14.8141 13.6899 14.8231 13.6983 14.8321Z" fill="#FF0044"/>
<path d="M16.1005 13.1891C16.4657 13.6893 16.8236 14.2333 17.1623 14.8123C17.0405 14.8243 16.9023 14.8321 16.7454 14.8321H15.3743C15.1501 14.4803 14.9143 14.1362 14.6662 13.801C14.762 13.7364 14.8693 13.6742 14.9892 13.6143C15.2809 13.4684 15.5649 13.3528 15.8417 13.2643L16.1005 13.1891Z" fill="#FF0044"/>
<path d="M16.9618 13.0501C17.7018 13.0501 18.0971 13.1669 18.2829 13.2599C18.3002 13.3211 18.3252 13.4451 18.3252 13.6577C18.3252 14.0543 18.213 14.3003 18.0148 14.5085C17.5752 13.9805 17.0739 13.5066 16.5152 13.099C16.713 13.0636 16.8595 13.0501 16.9618 13.0501Z" fill="#FF0044"/>
<path d="M3.9375 7.34821C6.72128 7.15551 9.2241 7.48824 11.4302 8.23535C11.1161 8.43228 10.8252 8.6448 10.5612 8.87476L9.89648 9.45319C8.16331 8.42084 6.17505 7.6866 3.9375 7.34821Z" fill="#FF0044"/>
<path d="M9 1H1V9H0V0H9V1Z" fill="#FF0044"/>
<path d="M36 9L35 8.99835V1H27V0H36V9Z" fill="#FF0044"/>
<path d="M6.05017 4.73895C9.32759 5.22878 12.1552 5.96134 14.5838 6.92908C14.1921 7.02158 13.8134 7.13375 13.4489 7.26801L13.444 7.26965C13.3159 7.31724 13.1899 7.36661 13.0655 7.41687C11.1951 6.40119 8.88574 5.56315 6.05017 4.73895Z" fill="#FF0044"/>
<path d="M10.5699 4.5C14.3431 4.88461 17.3824 5.6524 19.8391 6.7868C19.1565 6.65823 18.4379 6.59675 17.6907 6.59674C17.2355 6.59674 16.7913 6.61439 16.3592 6.65112C14.6458 5.8612 12.6933 5.17401 10.5699 4.5Z" fill="#FF0044"/>
</svg>
