<svg width="64" height="64" viewBox="0 0 64 64" fill="none" xmlns="http://www.w3.org/2000/svg">
<path d="M4 60H16V64H0V48H4V60Z" fill="#FF0044"/>
<path d="M64 64H48V60H60V48H64V64Z" fill="#FF0044"/>
<path d="M39.8057 49.9033C38.798 52.9656 37.5523 55.7364 36.3184 58C37.1675 55.7165 37.5901 53.4073 37.7227 51.0527C37.866 50.9874 38.009 50.9211 38.1504 50.8516C38.7297 50.5666 39.2811 50.2493 39.8057 49.9033Z" fill="#FF0044"/>
<path d="M34.0322 52.2334C33.1291 53.9415 32.0561 55.6989 30.7725 57.5322C31.3664 55.9092 31.8288 54.2286 32.1631 52.5137C32.7984 52.4495 33.4215 52.3559 34.0322 52.2334Z" fill="#FF0044"/>
<path d="M26.5342 52.376C26.9383 52.4323 27.339 52.4785 27.7363 52.5156C27.3014 53.8364 26.7956 55.1889 26.2129 56.5693C26.442 55.1974 26.5473 53.7957 26.5342 52.376Z" fill="#FF0044"/>
<path d="M44.6982 15.9385C54.6591 21.5829 60.6693 34.7447 51.3887 48.3682C52.0714 44.5034 51.7823 41.646 50.4141 38.5977C49.4924 45.6754 48.3681 47.989 41.5625 56.3506C43.525 52.5224 44.4397 48.869 44.3525 44.9678C45.4903 42.9008 46.0591 40.5798 46.1309 38.0791L46.1387 37.5283C46.1387 33.8005 45.0835 30.4959 42.6846 27.9609C40.1921 25.3098 36.7128 24.208 32.7705 24.208C32.3048 24.208 31.8498 24.2186 31.4062 24.2402L31.4473 23.6318H44.6982V19.0264C48.7699 23.7437 51.0709 29.8566 52.4932 37.2715C52.6752 28.3071 49.855 20.9514 44.6982 16.3564V15.9385Z" fill="#FF0044"/>
<path d="M41.6982 20.6318H28.6426L28.1621 27.7842C28.1688 27.7822 28.176 27.7803 28.1826 27.7783C28.4872 27.6881 28.7895 27.6116 29.0889 27.5449C29.1543 27.5304 29.219 27.5134 29.2842 27.5C29.3195 27.4927 29.3554 27.4884 29.3906 27.4814C29.7205 27.4164 30.0467 27.3641 30.3701 27.3281C31.1061 27.2481 31.9065 27.208 32.7705 27.208C32.9931 27.208 33.2122 27.2117 33.4277 27.2197C33.6186 27.2269 33.8068 27.2375 33.9922 27.251C34.0462 27.2549 34.0998 27.2612 34.1533 27.2656C34.2862 27.2767 34.4178 27.2874 34.5479 27.3018C34.6249 27.3103 34.7013 27.3214 34.7773 27.3311C34.8937 27.3459 35.0091 27.3604 35.123 27.3779C35.1777 27.3863 35.232 27.3962 35.2861 27.4053C35.4113 27.4262 35.535 27.4484 35.6572 27.4727C35.7238 27.4859 35.7897 27.5005 35.8555 27.5146C35.958 27.5368 36.0598 27.5585 36.1602 27.583C36.2444 27.6036 36.3274 27.6271 36.4102 27.6494C36.4895 27.6708 36.5685 27.6919 36.6465 27.7148C36.7273 27.7386 36.8073 27.7636 36.8867 27.7891C36.9762 27.8178 37.0648 27.8471 37.1523 27.8779C37.2167 27.9006 37.2804 27.9244 37.3438 27.9482C37.44 27.9844 37.535 28.0217 37.6289 28.0605C37.686 28.0841 37.7426 28.1082 37.7988 28.1328C37.8839 28.17 37.9677 28.2086 38.0508 28.248C38.1234 28.2825 38.1955 28.3174 38.2666 28.3535C38.3351 28.3883 38.4026 28.4245 38.4697 28.4609C38.5373 28.4976 38.6047 28.534 38.6709 28.5723C38.7466 28.6161 38.8206 28.6621 38.8945 28.708C38.955 28.7456 39.0159 28.7823 39.0752 28.8213C39.1371 28.862 39.1973 28.905 39.2578 28.9473C39.3272 28.9957 39.3972 29.0432 39.4648 29.0938C39.5167 29.1325 39.5664 29.1739 39.6172 29.2139C39.6907 29.2716 39.7646 29.3285 39.8359 29.3887C39.8814 29.4271 39.9251 29.4674 39.9697 29.5068C40.0373 29.5665 40.1054 29.6255 40.1709 29.6875C40.2097 29.7242 40.2461 29.7633 40.2842 29.8008C40.3562 29.8718 40.4295 29.9417 40.499 30.0156C42.259 31.8716 43.1387 34.3763 43.1387 37.5283C43.1386 40.0242 42.5789 42.1765 41.459 43.9844C40.355 45.7923 38.8101 47.1842 36.8262 48.1602C36.4665 48.3371 36.096 48.4967 35.7158 48.6416C35.7117 48.6432 35.7073 48.6449 35.7031 48.6465C35.5026 48.7226 35.299 48.7931 35.0928 48.8604C35.0369 48.8786 34.9811 48.8975 34.9248 48.915C34.8672 48.933 34.809 48.9495 34.751 48.9668C34.6787 48.9883 34.6062 49.0098 34.5332 49.0303C34.4677 49.0486 34.402 49.0665 34.3359 49.084C34.2739 49.1004 34.2119 49.1171 34.1494 49.1328C34.0639 49.1543 33.978 49.1753 33.8916 49.1953C33.8452 49.2061 33.7986 49.2162 33.752 49.2266C33.6722 49.2443 33.5922 49.2618 33.5117 49.2783C33.453 49.2904 33.3941 49.3021 33.335 49.3135C33.2417 49.3315 33.148 49.3488 33.0537 49.3652C33.0281 49.3697 33.0023 49.3736 32.9766 49.3779C32.8639 49.397 32.7508 49.4158 32.6367 49.4326C32.6308 49.4335 32.625 49.4347 32.6191 49.4355C31.7655 49.5606 30.8721 49.624 29.9385 49.624C29.3258 49.624 28.6964 49.5917 28.0498 49.5322C28.0423 49.5315 28.0348 49.531 28.0273 49.5303C27.8544 49.5142 27.6803 49.4959 27.5049 49.4756C27.4711 49.4717 27.4372 49.4679 27.4033 49.4639C27.259 49.4465 27.1138 49.4284 26.9678 49.4082C26.9073 49.3999 26.8469 49.3907 26.7861 49.3818C26.6434 49.361 26.4998 49.339 26.3555 49.3154C26.3454 49.3138 26.3352 49.3132 26.3252 49.3115L26.3242 49.3105C25.9815 49.2542 25.6337 49.1918 25.2822 49.1201C23.6504 48.8001 22.2425 48.2478 21.0586 47.4639L22.835 42.0879C23.3941 42.5961 24.105 43.0425 24.9668 43.4297C25.1108 43.4944 25.259 43.5562 25.4111 43.6182C25.4952 43.652 25.5803 43.6869 25.667 43.7197C26.1106 43.8875 26.5497 44.024 26.9844 44.1289C27.1503 44.169 27.3158 44.2035 27.4805 44.2344C28.0352 44.3384 28.5823 44.3906 29.1221 44.3906C29.2656 44.3906 29.4107 44.3867 29.5576 44.3828L29.5566 44.3838C30.1961 44.3668 30.8673 44.3148 31.5703 44.2236C31.9842 44.1634 32.3853 44.0715 32.7744 43.9512C33.2125 43.8156 33.6353 43.6434 34.042 43.4316C34.2338 43.3278 34.417 43.2109 34.5908 43.0811C35.113 42.691 35.554 42.1837 35.9141 41.5596C36.0253 41.3694 36.1227 41.1644 36.209 40.9453C36.2808 40.763 36.3429 40.5705 36.3975 40.3682C36.5696 39.7292 36.6582 38.9911 36.6582 38.1523C36.6582 37.8974 36.6467 37.6491 36.624 37.4082C36.6159 37.3226 36.6057 37.2381 36.5947 37.1543C36.5707 36.9696 36.5389 36.7894 36.501 36.6133C36.4829 36.5296 36.4636 36.4469 36.4424 36.3652C36.4102 36.2409 36.3744 36.1189 36.335 35.999C36.1773 35.5216 35.9621 35.0799 35.6895 34.6738L35.6885 34.6729C35.4307 34.2892 35.1236 33.936 34.7627 33.6162C34.3754 33.2681 33.9372 32.9739 33.4492 32.7324C33.2298 32.6239 33.0005 32.5255 32.7607 32.4385C31.7936 32.0876 30.6606 31.9121 29.3623 31.9121C28.4665 31.9121 27.5547 31.9998 26.627 32.1758C25.715 32.3358 24.8903 32.5364 24.1543 32.7764C23.6878 32.9285 23.3028 33.0766 22.9971 33.2158C22.8205 33.2959 22.6698 33.3721 22.5469 33.4482L23.1709 15.5439H41.6982V20.6318Z" fill="#FF0044"/>
<path d="M28.9961 34.9199C29.5124 36.9158 29.7695 39.0711 29.7441 41.375C29.5301 41.3847 29.3229 41.3916 29.1221 41.3916C28.4091 41.3916 27.6168 41.2501 26.7285 40.9141L26.3916 40.7803C25.6443 40.4661 25.1583 40.1461 24.8525 39.8682L22.4541 37.6875C22.3657 37.5244 22.2757 37.3618 22.1846 37.1992L24.126 35.999C24.1384 35.9922 24.2073 35.9543 24.3574 35.8916C24.5313 35.819 24.7704 35.7305 25.085 35.6279C25.6631 35.4394 26.3462 35.2709 27.1445 35.1309L27.1855 35.123C27.8082 35.005 28.4113 34.9396 28.9961 34.9199Z" fill="#FF0044"/>
<path d="M31.292 35.1221C31.9871 35.2996 32.4468 35.569 32.7568 35.8477L32.7725 35.8613C33.3081 36.3359 33.6582 36.9852 33.6582 38.1523C33.6582 39.2677 33.458 39.8176 33.3252 40.0449L33.3154 40.0605C33.0872 40.4562 32.8515 40.6607 32.6221 40.7871C32.5821 40.8075 32.5415 40.8265 32.501 40.8457C32.2486 38.9106 31.8456 36.9929 31.292 35.1221Z" fill="#FF0044"/>
<path d="M10.6787 23.8418C14.201 25.4338 17.2034 27.1846 19.6963 29.0732L19.5557 33.0996C17.1555 29.7899 14.1766 26.6529 10.6787 23.8418Z" fill="#FF0044"/>
<path d="M8.01074 18.8867C12.638 19.4613 16.6463 20.7847 19.916 22.7773L19.7549 27.4033C16.6991 24.2185 12.9657 21.4183 8.69141 19.2285L8.01074 18.8867Z" fill="#FF0044"/>
<path d="M7 13.0635C11.8991 12.7244 16.3082 13.3024 20.2012 14.6025L20.0664 18.4619C16.4511 15.7522 12.0877 13.8329 7 13.0635Z" fill="#FF0044"/>
<path d="M16 4H4V16H0V0H16V4Z" fill="#FF0044"/>
<path d="M64 16H60V4H48V0H64V16Z" fill="#FF0044"/>
<path d="M10.7559 8.4248C16.8353 9.33341 22.0446 10.7108 26.4854 12.5439H21.9902C18.8985 11.0199 15.1886 9.71325 10.7559 8.4248Z" fill="#FF0044"/>
<path d="M18.791 8C26.0146 8.73632 31.7243 10.2643 36.2578 12.5439H30.5693C27.185 10.8292 23.1951 9.39797 18.791 8Z" fill="#FF0044"/>
</svg>
