<svg width="36" height="36" viewBox="0 0 36 36" fill="none" xmlns="http://www.w3.org/2000/svg">
<path d="M1 35H9V36H0V27H1V35Z" fill="#FF0044"/>
<path d="M36 36H27V35H35V27H36V36Z" fill="#FF0044"/>
<path d="M21.5035 7.66406C26.2001 10.4756 28.3758 14.9615 29.5274 20.9652C29.639 15.4712 27.7468 11.0502 24.3331 8.54297C30.4067 11.4397 34.3736 19.1812 28.9061 27.2071C29.2902 25.0331 29.1275 23.4259 28.3579 21.7112C27.8395 25.6924 27.2071 26.9938 23.3789 31.6972C25.4681 27.6219 25.4499 23.8986 23.486 18.9168C24.1163 23.9926 22.2482 29.288 20.4291 32.625C20.8425 31.5132 21.0766 30.3906 21.1805 29.25H21.5035V11.2473C22.0873 11.8095 22.6248 12.4027 23.1163 13.0287C22.7481 11.9778 22.2029 11.0585 21.5035 10.2415V7.66406Z" fill="#FF0044"/>
<path d="M19.2123 29.25C18.6903 30.2521 18.0645 31.2836 17.3095 32.3619C17.6769 31.358 17.9536 30.3149 18.1445 29.25H19.2123Z" fill="#FF0044"/>
<path d="M15.6956 29.25C15.4311 30.0848 15.1153 30.9423 14.7448 31.8203C14.885 30.9805 14.943 30.121 14.9222 29.25H15.6956Z" fill="#FF0044"/>
<path d="M19.816 8.25732L19.8166 27.5625H16.1713V9.95856L16.3729 9.86407L18.4719 8.88409L19.4755 8.41663L19.4744 8.41608L19.816 8.25732Z" fill="#FF0044"/>
<path d="M4.50604 10.6238C8.96881 11.178 12.4061 12.9725 14.4838 15.7758V25.9612C13.417 21.5003 10.4574 16.9878 6.00677 13.411C9.58314 15.0274 12.2076 16.934 13.9109 19.0646C11.9429 15.7669 8.82329 12.8317 4.88892 10.816L4.50604 10.6238Z" fill="#FF0044"/>
<path d="M3.9375 7.34821C8.09833 7.06019 11.6313 7.94604 14.4838 9.63556V13.5582C12.0474 10.384 8.51284 8.04015 3.9375 7.34821Z" fill="#FF0044"/>
<path d="M9 1H1V9H0V0H9V1Z" fill="#FF0044"/>
<path d="M36 9H35V1H27V0H36V9Z" fill="#FF0044"/>
<path d="M6.05017 4.73895C10.312 5.3759 13.8134 6.42252 16.6652 7.86511L14.9919 8.64624C12.8565 7.03161 9.95113 5.87282 6.05017 4.73895Z" fill="#FF0044"/>
<path d="M10.5699 4.5C14.1205 4.86192 17.0211 5.56347 19.398 6.59015L17.7632 7.3526C15.7442 6.25307 13.298 5.36593 10.5699 4.5Z" fill="#FF0044"/>
</svg>
