<svg width="36" height="36" viewBox="0 0 36 36" fill="none" xmlns="http://www.w3.org/2000/svg">
<path d="M1 35H9V36H0V27H1V35Z" fill="#FF0044"/>
<path d="M36 36H27V35H35V27H36V36Z" fill="#FF0044"/>
<path d="M21.9727 29.25C21.4961 30.506 20.9609 31.6494 20.4291 32.625C20.8425 31.5132 21.0766 30.3906 21.1805 29.25H21.9727Z" fill="#FF0044"/>
<path d="M19.2123 29.25C18.6903 30.2521 18.0645 31.2836 17.3095 32.3619C17.6769 31.358 17.9536 30.3149 18.1445 29.25H19.2123Z" fill="#FF0044"/>
<path d="M16.5086 25.8481C16.2177 27.7056 15.6388 29.7022 14.7448 31.8203C15.0654 29.9006 14.9564 27.8787 14.4564 25.8481H16.5086Z" fill="#FF0044"/>
<path d="M24.9615 8.86487C30.6721 11.9817 34.1825 19.4616 28.9061 27.2071C29.2902 25.0331 29.1275 23.4259 28.3579 21.7112C27.8395 25.6924 27.2071 26.9938 23.3789 31.6972C23.8021 30.8716 24.1375 30.0601 24.3891 29.25H24.9615V25.8481H27.2296V19.8539H24.9615V10.4958C27.3654 13.1765 28.7065 16.6854 29.5274 20.9652C29.6319 15.818 27.978 11.6123 24.9615 9.0401V8.86487Z" fill="#FF0044"/>
<path fill-rule="evenodd" clip-rule="evenodd" d="M23.274 8.74347V21.5414H25.5421V24.1606H23.274V27.5625H19.7369V24.1606H10.827L10.6381 23.8634L17.577 8.74347H23.274ZM16.9832 18.1934L15.444 21.5414H19.899L20.0204 10.6738L16.9832 18.1934Z" fill="#FF0044"/>
<path d="M6.00677 13.411C8.40095 14.4931 10.3683 15.7054 11.9185 17.0277L11.1154 18.7778C9.74595 16.8573 8.03053 15.0374 6.00677 13.411Z" fill="#FF0044"/>
<path d="M4.50604 10.6238C8.12912 11.0737 11.0759 12.3417 13.1688 14.3026L12.1339 16.5586C10.2531 14.2928 7.79303 12.3039 4.88892 10.816L4.50604 10.6238Z" fill="#FF0044"/>
<path d="M3.9375 7.34821C8.41656 7.03817 12.1677 8.0888 15.126 10.0377L13.8615 12.7936C11.4598 10.0103 8.13713 7.98333 3.9375 7.34821Z" fill="#FF0044"/>
<path d="M6.05017 4.73895C10.0942 5.34336 13.4535 6.31672 16.223 7.64703L15.5566 9.09943C13.3779 7.24281 10.3067 5.97616 6.05017 4.73895Z" fill="#FF0044"/>
<path d="M9 1H1V9H0V0H9V1Z" fill="#FF0044"/>
<path d="M36 9H35V1H27V0H36V9Z" fill="#FF0044"/>
<path d="M10.5699 4.5C14.6332 4.91418 17.8449 5.77368 20.395 7.05597H17.1953C15.2916 6.09143 13.0473 5.28636 10.5699 4.5Z" fill="#FF0044"/>
</svg>
