<svg width="64" height="64" viewBox="0 0 64 64" fill="none" xmlns="http://www.w3.org/2000/svg">
<path d="M4 60H16V64H0V48H4V60Z" fill="#FF0044"/>
<path d="M64 64H48V60H60V48H64V64Z" fill="#FF0044"/>
<path d="M39.4199 51.0264C38.4885 53.6433 37.3996 56.0166 36.3184 58C37.0685 55.9829 37.4872 53.9457 37.666 51.875C38.2738 51.6376 38.8593 51.3564 39.4199 51.0264Z" fill="#FF0044"/>
<path d="M33.7354 52.7822C32.8957 54.3172 31.9189 55.8949 30.7725 57.5322C31.3261 56.0195 31.7629 54.4562 32.0908 52.8623C32.6487 52.8597 33.1972 52.8331 33.7354 52.7822Z" fill="#FF0044"/>
<path d="M26.5264 51.9512C26.938 52.1042 27.3593 52.2373 27.79 52.3506C27.3433 53.7237 26.8199 55.1313 26.2129 56.5693C26.4649 55.0608 26.5668 53.5163 26.5264 51.9512Z" fill="#FF0044"/>
<path d="M43.2588 15.1875C54.0563 20.3372 61.1086 34.0998 51.3887 48.3682C52.0714 44.5034 51.7823 41.646 50.4141 38.5977C49.4924 45.6754 48.3681 47.989 41.5625 56.3506C43.3835 52.7983 44.3009 49.3965 44.3545 45.8076C44.9526 44.7351 45.4447 43.5735 45.8311 42.3311L45.832 42.3262C46.6973 39.5268 47.1334 36.4156 47.1846 33.0254L47.1904 32.3438C47.1904 26.776 46.3203 22.0314 44.2188 18.4873C48.5907 23.2746 51.016 29.5706 52.4932 37.2715C52.6915 27.5044 49.3277 19.6448 43.2588 15.1875Z" fill="#FF0044"/>
<path d="M30.1357 25.709C31.9256 28.6305 33.4696 32.1016 34.3262 35.6924C34.2504 36.5481 34.1469 37.3526 34.0127 38.1064L34.0107 38.1162L34.0088 38.127C33.7715 39.515 33.4082 40.4603 33.0225 41.0869L32.8525 41.3418C32.7668 41.4608 32.6871 41.5463 32.5918 41.6074C32.1714 37.7718 31.1565 33.9899 29.5635 30.4883C29.628 28.9256 29.777 27.548 30.0029 26.3467V26.3418C30.0445 26.1189 30.0891 25.9082 30.1357 25.709Z" fill="#FF0044"/>
<path d="M32.0459 22.7676C32.4463 22.7676 32.6055 22.8582 32.8164 23.1465L32.832 23.167L32.8467 23.1875C33.261 23.7344 33.7008 24.7024 33.9883 26.3174L33.9941 26.3467L34.1035 26.9785C34.233 27.7971 34.3273 28.6906 34.3887 29.6611C33.4994 27.5945 32.2108 25.7608 30.5791 24.2803C30.7716 23.8066 30.9752 23.4498 31.1738 23.1875L31.1729 23.1865C31.4131 22.8728 31.615 22.7676 32.0459 22.7676Z" fill="#FF0044"/>
<path fill-rule="evenodd" clip-rule="evenodd" d="M31.998 14.7285C32.9312 14.7285 33.8136 14.8122 34.6455 14.9795C34.6507 14.9805 34.6559 14.9814 34.6611 14.9824C34.8162 15.0138 34.9696 15.0477 35.1211 15.085C35.1329 15.0879 35.1445 15.0918 35.1562 15.0947C35.2934 15.1289 35.4292 15.1651 35.5635 15.2041C35.5824 15.2096 35.6013 15.2151 35.6201 15.2207C35.7584 15.2617 35.8951 15.3055 36.0303 15.3516C36.0627 15.3626 36.0947 15.3744 36.127 15.3857C36.4054 15.4836 36.6772 15.5921 36.9424 15.7119C36.9514 15.716 36.9607 15.7195 36.9697 15.7236C37.0999 15.7829 37.2285 15.8446 37.3555 15.9092C37.3675 15.9153 37.3796 15.9215 37.3916 15.9277C37.522 15.9947 37.6504 16.0651 37.7773 16.1377C37.7923 16.1462 37.8074 16.1545 37.8223 16.1631C37.9318 16.2265 38.0395 16.2928 38.1465 16.3604C38.1715 16.3761 38.1968 16.3912 38.2217 16.4072C38.3298 16.4769 38.4365 16.549 38.542 16.623C38.575 16.6462 38.6078 16.6698 38.6406 16.6934C38.8648 16.8549 39.0828 17.0266 39.2949 17.208C39.3289 17.2371 39.3628 17.2663 39.3965 17.2959C39.6082 17.4819 39.8142 17.6776 40.0137 17.8838C40.029 17.8997 40.0443 17.9157 40.0596 17.9316C40.1394 18.0152 40.218 18.1007 40.2959 18.1875C40.3512 18.2491 40.4057 18.3117 40.46 18.375C40.5185 18.4433 40.5773 18.5118 40.6348 18.582C40.669 18.6239 40.7025 18.6665 40.7363 18.709C40.8245 18.8199 40.9126 18.9323 40.998 19.0479C41.3306 19.4979 41.6374 19.9858 41.918 20.5117C42.0301 20.7219 42.1384 20.9379 42.2422 21.1602C42.7099 22.1613 43.0932 23.2854 43.3926 24.5322C43.4258 24.6707 43.4581 24.8107 43.4893 24.9521C43.9569 27.075 44.1904 29.539 44.1904 32.3438L44.1855 32.9814C44.185 33.0163 44.1832 33.0511 44.1826 33.0859C44.179 33.2925 44.1737 33.4976 44.167 33.7012C44.1638 33.7962 44.1591 33.8909 44.1553 33.9854C44.1497 34.1247 44.1438 34.2634 44.1367 34.4014C44.1306 34.5207 44.1244 34.6395 44.1172 34.7578C44.1076 34.915 44.0974 35.0712 44.0859 35.2266C44.0806 35.2977 44.076 35.3687 44.0703 35.4395C44.0526 35.6608 44.0315 35.8801 44.0098 36.0977C44.0022 36.1734 43.9944 36.2489 43.9863 36.3242C43.9669 36.506 43.9451 36.6862 43.9229 36.8652C43.9164 36.9167 43.9109 36.9682 43.9043 37.0195C43.8126 37.73 43.6986 38.4191 43.5625 39.0869C43.5574 39.112 43.553 39.1371 43.5479 39.1621L43.5469 39.1602C43.3837 39.9499 43.1914 40.7106 42.9658 41.4404C42.4882 42.9762 41.8412 44.3186 41.0293 45.4707V45.4736C41.0153 45.4934 41.0004 45.5125 40.9863 45.5322C40.7496 45.8637 40.4991 46.1792 40.2344 46.4785C40.172 46.5491 40.1088 46.6187 40.0449 46.6875C40.0118 46.7231 39.9779 46.7578 39.9443 46.793C39.8926 46.8472 39.8408 46.901 39.7881 46.9541C39.7384 47.0041 39.6883 47.0535 39.6377 47.1025C39.5861 47.1526 39.534 47.202 39.4814 47.251C39.4379 47.2915 39.3947 47.3323 39.3506 47.3721C39.2529 47.4602 39.1545 47.5473 39.0537 47.6318C38.9512 47.7169 38.8465 47.799 38.7402 47.8789C37.6119 48.7319 36.2767 49.3084 34.7344 49.6113C34.7227 49.6136 34.7109 49.6159 34.6992 49.6182C34.4198 49.6722 34.1338 49.7169 33.8408 49.7529C33.7741 49.7612 33.7071 49.77 33.6396 49.7773C33.5797 49.7838 33.5195 49.7892 33.459 49.7949C33.3659 49.8038 33.2721 49.8112 33.1777 49.8184C33.1165 49.823 33.055 49.8282 32.9932 49.832C32.8603 49.8404 32.7262 49.8476 32.5908 49.8525C32.3959 49.8596 32.1983 49.8643 31.998 49.8643C30.7744 49.8643 29.6499 49.7305 28.624 49.4678C28.6112 49.4645 28.5987 49.4613 28.5859 49.458C28.5131 49.4391 28.441 49.4187 28.3691 49.3984C28.3131 49.3826 28.2575 49.3662 28.2021 49.3496C27.9242 49.2663 27.6542 49.173 27.3916 49.0693C27.3773 49.0637 27.3629 49.0584 27.3486 49.0527C27.2568 49.016 27.1661 48.9777 27.0762 48.9385C27.0605 48.9316 27.0449 48.9249 27.0293 48.918C26.7522 48.7952 26.4846 48.6604 26.2256 48.5137C26.2212 48.5112 26.2163 48.5094 26.2119 48.5068L26.2109 48.5059C25.761 48.25 25.3368 47.9601 24.9414 47.6318C23.1496 46.1279 21.8453 44.0642 21.0293 41.4404C20.3038 39.0932 19.9017 36.4357 19.8213 33.4688C19.8179 33.3427 19.8158 33.216 19.8135 33.0889C19.8091 32.8427 19.8057 32.5941 19.8057 32.3438C19.8057 32.0148 19.8098 31.6906 19.8164 31.3711C19.8188 31.2533 19.8219 31.1361 19.8252 31.0195C19.8306 30.828 19.8379 30.6383 19.8457 30.4502C19.8516 30.306 19.857 30.1627 19.8643 30.0205C19.8779 29.7559 19.8937 29.4949 19.9121 29.2373C20.1781 25.5065 20.9475 22.5112 22.2217 20.251C22.2291 20.2379 22.2367 20.225 22.2441 20.2119C22.4786 19.7994 22.7297 19.411 22.998 19.0479C23.0741 18.9457 23.1513 18.8456 23.2295 18.7471C23.2667 18.7002 23.3051 18.6545 23.3428 18.6084C23.3761 18.5677 23.4087 18.5264 23.4424 18.4863C23.4896 18.4302 23.5379 18.3752 23.5859 18.3203C23.6365 18.2625 23.6869 18.2049 23.7383 18.1484C23.753 18.1322 23.7674 18.1157 23.7822 18.0996C23.8516 18.0243 23.9223 17.9507 23.9932 17.8779C24.0089 17.8617 24.0242 17.8452 24.04 17.8291L24.0654 17.8037C24.2287 17.6391 24.3962 17.4814 24.5674 17.3301C24.6065 17.2955 24.646 17.2614 24.6855 17.2275C24.7323 17.1875 24.7789 17.1475 24.8262 17.1084C24.8698 17.0724 24.9139 17.0372 24.958 17.002C25.6125 16.4789 26.3202 16.0457 27.082 15.7031C27.0947 15.6974 27.1065 15.6922 27.1191 15.6865C27.244 15.631 27.3703 15.578 27.498 15.5273C27.5331 15.5134 27.5683 15.4999 27.6035 15.4863C27.7193 15.4419 27.836 15.399 27.9541 15.3584C27.9778 15.3502 28.0016 15.342 28.0254 15.334C28.1583 15.2894 28.2929 15.2477 28.4287 15.208C28.4734 15.1949 28.5184 15.1824 28.5635 15.1699C28.6979 15.1325 28.8334 15.0961 28.9707 15.0635C28.9895 15.059 29.0085 15.0552 29.0273 15.0508C29.1668 15.0184 29.3078 14.9885 29.4502 14.9609C29.471 14.9569 29.4918 14.9531 29.5127 14.9492C29.6669 14.9203 29.8229 14.8944 29.9805 14.8711C30.012 14.8664 30.0435 14.8618 30.0752 14.8574C30.2142 14.838 30.3545 14.8207 30.4961 14.8057C30.5172 14.8034 30.5384 14.801 30.5596 14.7988C30.7232 14.7822 30.8886 14.7686 31.0557 14.7578C31.0667 14.7571 31.0778 14.7565 31.0889 14.7559C31.386 14.7375 31.69 14.7285 31.998 14.7285ZM32.0459 19.7676C31.2965 19.7676 30.6292 19.9303 30.0449 20.2559L30.0459 20.2568C29.9971 20.284 29.949 20.3124 29.9014 20.3418C29.5177 20.5789 29.1712 20.8891 28.8623 21.2734C28.8353 21.307 28.8087 21.3413 28.7822 21.376L28.6348 21.5791C28.5101 21.758 28.3914 21.9479 28.2783 22.1484C28.1387 22.3964 28.0085 22.6612 27.8867 22.9424C27.8359 23.0597 27.786 23.1796 27.7383 23.3027C27.4558 24.0314 27.2273 24.861 27.0537 25.792C26.8505 26.8727 26.707 28.0521 26.6211 29.3301L26.6221 29.3311C26.5759 30.0202 26.5458 30.7379 26.5332 31.4844C26.5317 31.5761 26.5313 31.6682 26.5303 31.7607C26.5283 31.9375 26.5264 32.1159 26.5264 32.2959L26.5342 33.1611C26.5349 33.2026 26.5362 33.2439 26.5371 33.2852C26.574 35.0273 26.7099 36.6375 26.9443 38.1162C26.9719 38.2899 27 38.4618 27.0303 38.6318C27.1843 39.4508 27.3814 40.1962 27.6211 40.8682C27.7238 41.156 27.8337 41.4305 27.9521 41.6914C28.0311 41.8655 28.1142 42.0333 28.2002 42.1953C28.2863 42.3575 28.3756 42.5139 28.4688 42.6641C28.5616 42.8139 28.6579 42.9578 28.7578 43.0957C28.8196 43.178 28.8833 43.2569 28.9482 43.333C29.0887 43.4976 29.2371 43.6468 29.3926 43.7822C29.4613 43.8421 29.5309 43.8999 29.6025 43.9541L29.6016 43.9551C30.2834 44.4707 31.0986 44.7285 32.0459 44.7285C32.3087 44.7285 32.5606 44.7077 32.8018 44.668C32.981 44.6385 33.154 44.5963 33.3213 44.5449C33.4099 44.5177 33.4967 44.4875 33.582 44.4541C33.7834 44.3754 33.9755 44.2799 34.1582 44.167C34.5846 43.903 34.9613 43.5464 35.2861 43.0957C35.4686 42.8439 35.6365 42.571 35.7939 42.2793C35.8697 42.1389 35.9437 41.9944 36.0137 41.8447C36.0773 41.7088 36.1394 41.5694 36.1982 41.4258C36.2719 41.2459 36.342 41.06 36.4082 40.8682C36.4413 40.7723 36.4737 40.675 36.5049 40.5762C36.5986 40.2791 36.6839 39.9686 36.7607 39.6445C36.8376 39.3206 36.9058 38.9828 36.9658 38.6318C37.3018 36.7439 37.4697 34.6318 37.4697 32.2959C37.4697 29.832 37.2934 27.664 36.9414 25.792C36.6054 23.904 36.0373 22.432 35.2373 21.376C34.4534 20.3042 33.3897 19.7676 32.0459 19.7676Z" fill="#FF0044"/>
<path d="M10.6787 23.8418C13.048 24.9126 15.1819 26.0557 17.084 27.2637C16.9885 28.0688 16.921 28.8985 16.875 29.751C15.0438 27.6701 12.9731 25.6857 10.6787 23.8418Z" fill="#FF0044"/>
<path d="M8.01074 18.8867C11.8817 19.3674 15.3184 20.3741 18.2529 21.8564C17.9042 22.8907 17.6241 23.9909 17.4062 25.1514C14.8504 22.8929 11.926 20.8857 8.69141 19.2285L8.01074 18.8867Z" fill="#FF0044"/>
<path d="M7 13.0635C12.7832 12.6632 17.8836 13.5399 22.2578 15.376C21.6631 15.9374 21.1072 16.5645 20.5918 17.2568L20.585 17.2656C20.335 17.6039 20.0987 17.9555 19.876 18.3203C16.2982 15.6853 11.9987 13.8194 7 13.0635Z" fill="#FF0044"/>
<path d="M16 4H4V16H0V0H16V4Z" fill="#FF0044"/>
<path d="M64 16H60V4H48V0H64V16Z" fill="#FF0044"/>
<path d="M10.7559 8.4248C16.9257 9.34693 22.199 10.7527 26.6826 12.627C25.8475 12.9358 25.0536 13.3251 24.3037 13.7939C20.8007 11.7064 16.3543 10.0521 10.7559 8.4248Z" fill="#FF0044"/>
<path d="M18.791 8C25.4571 8.67949 30.8344 10.0323 35.1875 12.0283C34.1716 11.8275 33.1067 11.7275 31.998 11.7275C31.0758 11.7275 30.184 11.7978 29.3252 11.9375C26.2215 10.4857 22.6665 9.23016 18.791 8Z" fill="#FF0044"/>
</svg>
