<svg width="64" height="64" viewBox="0 0 64 64" fill="none" xmlns="http://www.w3.org/2000/svg">
<path d="M4 60H16V64H0V48H4V60Z" fill="#FF0044"/>
<path d="M64 64H48V60H60V48H64V64Z" fill="#FF0044"/>
<path d="M39.2666 51.4521C38.37 53.9009 37.3406 56.1247 36.3184 58C37.0498 56.0331 37.4653 54.0469 37.6514 52.0293C38.2027 51.867 38.7412 51.6748 39.2666 51.4521Z" fill="#FF0044"/>
<path d="M33.7891 52.6836C32.9375 54.2497 31.9434 55.8599 30.7725 57.5322C31.3435 55.9719 31.7911 54.358 32.1221 52.7119C32.2807 52.7167 32.4395 52.7197 32.5986 52.7197C32.9997 52.7197 33.3966 52.7065 33.7891 52.6836Z" fill="#FF0044"/>
<path d="M26.9033 51.6611C27.2341 51.7865 27.5671 51.8996 27.9014 52.0029C27.4313 53.486 26.8712 55.0097 26.2129 56.5693C26.4888 54.9172 26.5849 53.2222 26.5107 51.5039C26.6407 51.558 26.7713 51.6111 26.9033 51.6611Z" fill="#FF0044"/>
<path d="M46.168 16.8438C55.2246 22.9049 60.2033 35.4287 51.3887 48.3682C52.0714 44.5034 51.7823 41.646 50.4141 38.5977C49.4924 45.6754 48.3681 47.989 41.5625 56.3506C43.0152 53.5168 43.8913 50.7785 44.2148 47.9648C44.8803 47.2287 45.4693 46.4167 45.9746 45.5273C47.2361 43.3342 47.8553 40.85 47.9277 38.1641L47.9346 37.624C47.9346 35.2801 47.4669 33.0624 46.4873 31.0215C45.474 28.9106 43.9522 27.2078 41.9688 25.9629C41.8544 25.8897 41.7395 25.8177 41.623 25.749L44.9199 19.2881C48.8534 23.9691 51.097 29.9927 52.4932 37.2715C52.6612 28.9981 50.2726 22.0943 45.8496 17.4668L46.168 16.8438Z" fill="#FF0044"/>
<path d="M33.4629 34.96C33.7536 34.96 33.9798 34.9869 34.1582 35.0254C34.6336 36.8326 34.9404 38.6766 35.0205 40.5029C34.9111 40.6966 34.7915 40.8556 34.667 40.9873L34.666 40.9883C34.1177 41.5689 33.5905 41.7764 32.9346 41.7764C32.819 41.7764 32.711 41.7688 32.6094 41.7598C32.3911 39.6905 31.9991 37.6363 31.4375 35.6318C31.5607 35.549 31.6904 35.4719 31.8262 35.3994L31.835 35.3945L31.8428 35.3906C32.4033 35.0875 32.931 34.96 33.4629 34.96Z" fill="#FF0044"/>
<path fill-rule="evenodd" clip-rule="evenodd" d="M34.4229 14.7275C35.2687 14.7275 36.0416 14.7593 36.7412 14.8223C37.208 14.8644 37.6423 14.9201 38.0439 14.9902C38.6461 15.0952 39.1749 15.2324 39.6309 15.4004C40.8627 15.8323 41.8629 16.4239 42.6309 17.1758L40.2793 21.7842C39.6393 21.0802 38.7829 20.5997 37.7109 20.3438C36.9069 20.1517 36.1523 20.0324 35.4473 19.9844C35.3297 19.9764 35.2135 19.9698 35.0986 19.9658C34.9841 19.9618 34.8706 19.96 34.7588 19.96C33.3158 19.96 32.0351 20.333 30.917 21.0791C30.7458 21.1933 30.5786 21.3165 30.415 21.4482L30.1904 21.6377C29.0805 22.6004 28.1951 23.8088 27.5352 25.2637C26.8312 26.7997 26.4235 28.392 26.3115 30.04C26.2955 30.3759 26.2787 30.6877 26.2627 30.9756V31.8164C26.3311 31.6846 26.4028 31.5557 26.4756 31.4297C26.4934 31.3988 26.5121 31.3685 26.5303 31.3379C26.5729 31.266 26.6161 31.195 26.6602 31.125C26.6918 31.0748 26.7235 31.0248 26.7559 30.9756C26.8053 30.9004 26.856 30.8268 26.9072 30.7539C26.9297 30.7219 26.9518 30.6898 26.9746 30.6582C27.4879 29.9485 28.0864 29.3495 28.7715 28.8623C28.7774 28.8581 28.7832 28.8538 28.7891 28.8496C28.8202 28.8276 28.8523 28.8067 28.8838 28.7852C28.9561 28.7357 29.0294 28.6876 29.1035 28.6406C29.3616 28.4768 29.6305 28.327 29.9111 28.1924C30.9317 27.7079 31.9853 27.3794 33.0723 27.207C33.0836 27.2052 33.0951 27.2039 33.1064 27.2021C33.2294 27.183 33.3527 27.1655 33.4766 27.1504C33.5029 27.1472 33.5293 27.1437 33.5557 27.1406C33.6906 27.1251 33.826 27.1114 33.9619 27.1006C33.9892 27.0984 34.0166 27.0977 34.0439 27.0957C34.1553 27.0876 34.2669 27.0811 34.3789 27.0762C34.4121 27.0747 34.4453 27.0734 34.4785 27.0723C34.6195 27.0673 34.7613 27.0645 34.9033 27.0645L35.3037 27.0693C35.5572 27.0765 35.8059 27.0904 36.0498 27.1113C36.1031 27.1159 36.1561 27.1217 36.209 27.127C36.2886 27.1348 36.3677 27.143 36.4463 27.1523C36.4629 27.1543 36.4795 27.1571 36.4961 27.1592C36.577 27.1692 36.6575 27.1788 36.7373 27.1904L36.8301 27.2051C36.8506 27.2082 36.8711 27.2116 36.8916 27.2148C36.9749 27.2282 37.0576 27.2427 37.1396 27.2578C37.1844 27.266 37.229 27.2745 37.2734 27.2832C37.3495 27.2982 37.425 27.3136 37.5 27.3301C37.5406 27.339 37.5808 27.349 37.6211 27.3584C37.6879 27.374 37.7544 27.3894 37.8203 27.4062C37.8661 27.4179 37.9116 27.4301 37.957 27.4424C38.0271 27.4614 38.0969 27.4806 38.166 27.501C38.2049 27.5125 38.2436 27.5242 38.2822 27.5361C38.3585 27.5597 38.4338 27.585 38.5088 27.6104C38.5349 27.6192 38.561 27.6277 38.5869 27.6367C38.6744 27.6672 38.7609 27.6995 38.8467 27.7324C38.8639 27.739 38.8813 27.7452 38.8984 27.752C38.9731 27.7811 39.0468 27.8117 39.1201 27.8428C39.1586 27.8591 39.1972 27.8748 39.2354 27.8916C39.2929 27.917 39.3495 27.9442 39.4062 27.9707C39.445 27.9888 39.4841 28.0058 39.5225 28.0244C39.5892 28.0569 39.6551 28.0909 39.7207 28.125C39.7537 28.1422 39.7867 28.1592 39.8193 28.1768C40.0012 28.2746 40.1787 28.3786 40.3516 28.4893C40.3593 28.4942 40.3673 28.4989 40.375 28.5039C40.6115 28.6524 40.8383 28.8099 41.0566 28.9746C41.0901 28.9999 41.1242 29.0242 41.1572 29.0498C41.2052 29.087 41.2517 29.126 41.2988 29.1641C41.3354 29.1936 41.3722 29.2229 41.4082 29.2529C41.4391 29.2787 41.4695 29.3049 41.5 29.3311C41.5528 29.3763 41.6056 29.4215 41.6572 29.4678C41.6737 29.4825 41.6897 29.4978 41.7061 29.5127C41.7588 29.5607 41.8109 29.6091 41.8623 29.6582C41.9115 29.7051 41.9598 29.7528 42.0078 29.8008C42.0337 29.8267 42.0594 29.8527 42.085 29.8789C42.1258 29.9208 42.166 29.9632 42.2061 30.0059C42.2324 30.0339 42.2592 30.0615 42.2852 30.0898C42.3317 30.1407 42.3775 30.1922 42.4229 30.2441C42.4508 30.2761 42.4784 30.3084 42.5059 30.3408C42.538 30.3787 42.5701 30.4166 42.6016 30.4551C42.6422 30.5047 42.6821 30.5549 42.7217 30.6055C42.744 30.634 42.7661 30.6626 42.7881 30.6914C42.8336 30.7511 42.8787 30.8112 42.9229 30.8721C42.9363 30.8906 42.9496 30.9091 42.9629 30.9277C43.0672 31.074 43.1665 31.2245 43.2627 31.3779C43.2851 31.4137 43.3081 31.4492 43.3301 31.4854C43.3446 31.5093 43.3587 31.5335 43.373 31.5576C43.411 31.6213 43.4488 31.6852 43.4854 31.75C43.5237 31.8179 43.5608 31.8868 43.5977 31.9561C43.6044 31.9688 43.6114 31.9814 43.6182 31.9941C43.6747 32.1014 43.7302 32.2099 43.7832 32.3203L43.9229 32.6221C44.007 32.8115 44.0856 33.0033 44.1592 33.1973C44.1807 33.2538 44.2001 33.3112 44.2207 33.3682C44.2375 33.4147 44.2553 33.461 44.2715 33.5078C44.29 33.5613 44.3074 33.6151 44.3252 33.6689C44.3421 33.7202 44.3588 33.7716 44.375 33.8232C44.3894 33.869 44.4032 33.9149 44.417 33.9609C44.436 34.0243 44.4557 34.0875 44.4736 34.1514C44.4815 34.1793 44.4894 34.2073 44.4971 34.2354C44.5197 34.3182 44.5406 34.4017 44.5615 34.4854C44.5705 34.5211 44.5793 34.5569 44.5879 34.5928C44.5995 34.6412 44.611 34.6896 44.6221 34.7383C44.6392 34.8139 44.6561 34.8896 44.6719 34.9658C44.676 34.9856 44.6796 35.0055 44.6836 35.0254C44.6978 35.0958 44.7116 35.1664 44.7246 35.2373C44.7329 35.2828 44.7412 35.3283 44.749 35.374C44.7796 35.5527 44.8051 35.7331 44.8281 35.915C44.8308 35.9362 44.8343 35.9573 44.8369 35.9785C44.8614 36.18 44.8812 36.3834 44.8965 36.5889C44.8987 36.6181 44.9004 36.6474 44.9023 36.6768C44.9234 36.9879 44.9346 37.3036 44.9346 37.624C44.9346 37.9711 44.923 38.3115 44.9023 38.6455C44.9018 38.6536 44.9019 38.6618 44.9014 38.6699C44.891 38.833 44.8776 38.9944 44.8623 39.1543C44.8586 39.1928 44.8555 39.2312 44.8516 39.2695C44.8368 39.4121 44.8194 39.5533 44.8008 39.6934C44.7954 39.7338 44.7909 39.7742 44.7852 39.8145C44.7358 40.1618 44.6735 40.5012 44.5996 40.833C44.5959 40.8496 44.5926 40.8663 44.5889 40.8828C44.4743 41.3879 44.3309 41.8747 44.1592 42.3438C44.1562 42.3519 44.1534 42.3601 44.1504 42.3682L44.1494 42.3662C43.9346 42.949 43.6782 43.5052 43.375 44.0322C42.5099 45.5597 41.3467 46.7942 39.8877 47.7393C39.8662 47.7532 39.8449 47.7674 39.8232 47.7812C39.7368 47.8364 39.6491 47.8902 39.5605 47.9434C39.5157 47.9704 39.4711 47.9979 39.4258 48.0244C39.304 48.0953 39.1803 48.1653 39.0547 48.2324C38.9469 48.2905 38.8376 48.3459 38.7275 48.4004C37.152 49.1844 35.3571 49.6183 33.3418 49.7031C33.3187 49.7041 33.2956 49.7042 33.2725 49.7051C33.0506 49.7135 32.8258 49.7197 32.5986 49.7197C31.1806 49.7197 29.7831 49.4819 28.4043 49.0107C28.2583 48.9618 28.1121 48.9115 27.9668 48.8564C27.827 48.8035 27.6891 48.7456 27.5518 48.6865C27.5176 48.6718 27.4832 48.6577 27.4492 48.6426C27.3155 48.5834 27.1831 48.5211 27.0518 48.4561C27.0246 48.4426 26.9977 48.4287 26.9707 48.415C25.8402 47.8428 24.7957 47.0544 23.8389 46.0479C22.6229 44.7359 21.6471 42.9997 20.9111 40.8398C20.2361 38.8148 19.8771 36.3539 19.835 33.457L19.8311 32.8721C19.8311 32.8375 19.8319 32.803 19.832 32.7686C19.8328 32.5168 19.8363 32.2675 19.8428 32.0205C19.845 31.9372 19.8487 31.8542 19.8516 31.7715C19.8596 31.5352 19.8695 31.3012 19.8828 31.0693C19.8838 31.0524 19.8847 31.0355 19.8857 31.0186C19.9495 29.9404 20.0704 28.9099 20.248 27.9268C20.2524 27.9029 20.2573 27.8792 20.2617 27.8555C20.2874 27.7159 20.3138 27.5771 20.3418 27.4395C20.3565 27.3669 20.3723 27.2947 20.3877 27.2227C20.4132 27.1031 20.4395 26.9843 20.4668 26.8662C20.4788 26.8143 20.4916 26.7626 20.5039 26.7109C20.5776 26.403 20.6554 26.0996 20.7412 25.8018C20.7556 25.7517 20.7714 25.7021 20.7861 25.6523C21.0412 24.7925 21.3457 23.9747 21.7031 23.2002C22.0785 22.3923 22.4958 21.6407 22.9531 20.9443C22.957 20.9384 22.961 20.9326 22.9648 20.9268C23.2989 20.4195 23.6546 19.9421 24.0322 19.4941C24.0634 19.4572 24.0955 19.4213 24.127 19.3848C24.2263 19.2693 24.3264 19.1554 24.4287 19.0439C24.4488 19.022 24.469 19.0003 24.4893 18.9785C24.603 18.8562 24.7186 18.7365 24.8359 18.6191C24.8491 18.606 24.8618 18.5922 24.875 18.5791L24.9678 18.4863C25.5622 17.9078 26.2017 17.3906 26.8867 16.9355C27.2033 16.7245 27.5273 16.5304 27.8564 16.3496L27.8555 16.3486C27.8977 16.3254 27.9409 16.304 27.9834 16.2812C28.0745 16.2325 28.1657 16.1842 28.2578 16.1377C28.2916 16.1206 28.3254 16.1037 28.3594 16.0869C28.4727 16.031 28.5864 15.9763 28.7012 15.9238C28.7396 15.9063 28.7788 15.8902 28.8174 15.873C28.9237 15.8257 29.0302 15.7788 29.1377 15.7344C29.1914 15.7122 29.2457 15.6914 29.2998 15.6699C29.3891 15.6345 29.4783 15.5989 29.5684 15.5654C29.6403 15.5388 29.7127 15.5137 29.7852 15.4883C29.8724 15.4577 29.9598 15.4272 30.0479 15.3984C30.1023 15.3806 30.1571 15.3638 30.2119 15.3467C30.3146 15.3146 30.4177 15.2835 30.5215 15.2539C30.5676 15.2408 30.6139 15.2284 30.6602 15.2158C30.7813 15.1828 30.9029 15.1508 31.0254 15.1211C31.0481 15.1156 31.071 15.1109 31.0938 15.1055C31.2278 15.0737 31.3624 15.0433 31.498 15.0156C31.5088 15.0134 31.5195 15.011 31.5303 15.0088C32.4147 14.8305 33.3352 14.7384 34.29 14.7305L34.2891 14.7295C34.3336 14.7291 34.3782 14.7275 34.4229 14.7275ZM33.4629 31.96C32.8825 31.96 32.315 32.0426 31.7588 32.2021C31.3275 32.3256 30.9032 32.4961 30.4863 32.7158C30.4628 32.7282 30.4385 32.7393 30.415 32.752C29.7856 33.0876 29.2262 33.5003 28.7344 33.9873C28.6411 34.0797 28.5505 34.1749 28.4619 34.2725C28.3056 34.4455 28.1554 34.6263 28.0146 34.8164C27.3909 35.6802 27.0474 36.6321 26.9834 37.6719C26.9834 38.7705 27.1582 39.8029 27.5088 40.7686C27.5616 40.9139 27.618 41.0579 27.6787 41.2002C27.7527 41.3654 27.8334 41.5245 27.917 41.6797C28.0313 41.8925 28.153 42.0968 28.2852 42.291C28.5033 42.6106 28.7462 42.9045 29.0127 43.1738C29.0219 43.1832 29.0308 43.1929 29.04 43.2021C29.224 43.3858 29.4194 43.5576 29.626 43.7178C29.6572 43.742 29.687 43.7683 29.7188 43.792C30.5832 44.4249 31.6117 44.7511 32.8037 44.7734L32.9346 44.7764C33.2199 44.7764 33.4975 44.7555 33.7676 44.7148C33.8573 44.7014 33.9462 44.6859 34.0342 44.668L34.2959 44.6074C35.1619 44.3823 35.9435 43.9322 36.6406 43.2568C36.7102 43.1894 36.7788 43.1197 36.8467 43.0479C36.9604 42.9276 37.067 42.8016 37.1689 42.6719C37.6436 42.0678 37.9918 41.3617 38.2129 40.5518C38.3767 39.9516 38.4716 39.2952 38.4961 38.582L38.5029 38.2002C38.5029 37.6151 38.4635 37.0659 38.3838 36.5527C38.336 36.2449 38.2738 35.95 38.1973 35.668C38.1464 35.4803 38.089 35.2983 38.0254 35.1221C37.9935 35.0337 37.9599 34.9468 37.9248 34.8613C37.8197 34.6052 37.7002 34.3621 37.5664 34.1318C37.5218 34.0552 37.4755 33.9801 37.4277 33.9062C37.3798 33.8322 37.3304 33.7596 37.2793 33.6885C37.2203 33.6052 37.1585 33.5254 37.0947 33.4482C36.9507 33.2736 36.7944 33.1146 36.626 32.9707C36.2336 32.6363 35.7752 32.3851 35.251 32.2168L35.25 32.2148C34.7214 32.0454 34.1257 31.96 33.4629 31.96Z" fill="#FF0044"/>
<path d="M10.6787 23.8418C13.136 24.9524 15.3401 26.1405 17.2949 27.3984C17.1511 28.1959 17.04 29.0137 16.9639 29.8516C15.1109 27.7339 13.0101 25.7154 10.6787 23.8418Z" fill="#FF0044"/>
<path d="M8.01074 18.8867C12.1574 19.4016 15.8057 20.5202 18.8721 22.1807C18.4099 23.2173 18.0307 24.3046 17.7295 25.4395C15.0981 23.0633 12.0631 20.9559 8.69141 19.2285L8.01074 18.8867Z" fill="#FF0044"/>
<path d="M34.7588 22.96C35.3736 22.96 36.1201 23.0484 37.0137 23.2617C37.5943 23.4004 37.8856 23.6116 38.0586 23.8018L38.7344 24.5449C37.5212 24.2174 36.2372 24.0645 34.9033 24.0645C33.7806 24.0645 32.6806 24.189 31.6084 24.4375C31.8277 24.1987 32.0586 23.9792 32.3027 23.7793C32.971 23.2434 33.7442 22.96 34.7588 22.96Z" fill="#FF0044"/>
<path d="M7 13.0635C13.2821 12.6286 18.7582 13.701 23.373 15.873C22.3672 16.7743 21.4736 17.7999 20.6875 18.9395C16.9547 15.9772 12.3823 13.8775 7 13.0635Z" fill="#FF0044"/>
<path d="M16 4H4V16H0V0H16V4Z" fill="#FF0044"/>
<path d="M64 16H60V4H48V0H64V16Z" fill="#FF0044"/>
<path d="M10.7559 8.4248C17.4091 9.41916 23.0197 10.9756 27.7217 13.0762C26.878 13.4431 26.0619 13.885 25.2764 14.4043C21.6345 12.024 16.8869 10.2069 10.7559 8.4248Z" fill="#FF0044"/>
<path d="M18.791 8C25.1177 8.64489 30.2835 9.89641 34.5146 11.7285C34.4841 11.7284 34.4535 11.7275 34.4229 11.7275C32.902 11.7275 31.4366 11.9099 30.0352 12.2764C26.768 10.6787 22.9652 9.325 18.791 8Z" fill="#FF0044"/>
</svg>
