<svg width="64" height="64" viewBox="0 0 64 64" fill="none" xmlns="http://www.w3.org/2000/svg">
<path d="M4 60H16V64H0V48H4V60Z" fill="#FF0044"/>
<path d="M64 64H48V60H60V48H64V64Z" fill="#FF0044"/>
<path d="M39.0625 52C38.2153 54.2329 37.2639 56.2655 36.3184 58C37.0533 56.0235 37.4696 54.0277 37.6543 52H39.0625Z" fill="#FF0044"/>
<path d="M34.1553 52C33.2272 53.7815 32.1147 55.6152 30.7725 57.5322C31.4256 55.7476 31.9175 53.8931 32.2568 52H34.1553Z" fill="#FF0044"/>
<path d="M29.3486 45.9521C28.8315 49.2544 27.8023 52.8039 26.2129 56.5693C26.7829 53.1566 26.5892 49.5621 25.7002 45.9521H29.3486Z" fill="#FF0044"/>
<path d="M44.376 15.7598C54.5281 21.3009 60.7689 34.5985 51.3887 48.3682C52.0714 44.5034 51.7823 41.646 50.4141 38.5977C49.4924 45.6754 48.3681 47.989 41.5625 56.3506C42.3149 54.8829 42.9111 53.4401 43.3584 52H44.376V45.9521H48.4082V35.2959H44.376V18.6592C48.6496 23.4249 51.0337 29.6629 52.4932 37.2715C52.679 28.1209 49.7387 20.6441 44.376 16.0713V15.7598Z" fill="#FF0044"/>
<path d="M32.4092 35.2959H32.1367L32.416 34.6875L32.4092 35.2959Z" fill="#FF0044"/>
<path fill-rule="evenodd" clip-rule="evenodd" d="M41.376 15.5439V38.2959H45.4082V42.9521H41.376V49H35.0879V42.9521H19.248L18.9121 42.4238L31.248 15.5439H41.376ZM30.1924 32.3438L27.4561 38.2959H35.376L35.5918 18.9756L30.1924 32.3438Z" fill="#FF0044"/>
<path d="M10.6787 23.8418C14.935 25.7655 18.4326 27.9207 21.1885 30.2715L19.7607 33.3828C17.3261 29.9686 14.2765 26.7332 10.6787 23.8418Z" fill="#FF0044"/>
<path d="M8.01074 18.8867C14.4518 19.6866 19.6906 21.9409 23.4111 25.4268L21.5713 29.4375C18.2276 25.4094 13.8543 21.8736 8.69141 19.2285L8.01074 18.8867Z" fill="#FF0044"/>
<path d="M7 13.0635C14.9628 12.5123 21.6315 14.3801 26.8906 17.8447L24.6426 22.7441C20.373 17.7961 14.466 14.1926 7 13.0635Z" fill="#FF0044"/>
<path d="M10.7559 8.4248C17.9453 9.4993 23.9174 11.2297 28.8408 13.5947L27.6562 16.1768C23.783 12.8761 18.3229 10.6243 10.7559 8.4248Z" fill="#FF0044"/>
<path d="M16 4H4V16H0V0H16V4Z" fill="#FF0044"/>
<path d="M64 16H60V4H48V0H64V16Z" fill="#FF0044"/>
<path d="M18.791 8C26.0146 8.73632 31.7243 10.2643 36.2578 12.5439H30.5693C27.185 10.8292 23.1951 9.39797 18.791 8Z" fill="#FF0044"/>
</svg>
