<svg width="64" height="64" viewBox="0 0 64 64" fill="none" xmlns="http://www.w3.org/2000/svg">
<path d="M4 60H16V64H0V48H4V60Z" fill="#FF0044"/>
<path d="M64 64H48V60H60V48H64V64Z" fill="#FF0044"/>
<path d="M38.2285 13.625C46.578 18.6233 50.4459 26.5982 52.4932 37.2715C52.6915 27.5044 49.3277 19.6448 43.2588 15.1875C54.0563 20.3372 61.1086 34.0998 51.3887 48.3682C52.0714 44.5034 51.7823 41.646 50.4141 38.5977C49.4924 45.6754 48.3681 47.989 41.5625 56.3506C45.2765 49.1056 45.2443 42.4865 41.7529 33.6299C42.8733 42.6536 39.5523 52.0675 36.3184 58C37.0533 56.0235 37.4696 54.0277 37.6543 52H38.2285V19.9951C39.2663 20.9946 40.2218 22.0493 41.0957 23.1621C40.4411 21.2938 39.4719 19.6595 38.2285 18.207V13.625Z" fill="#FF0044"/>
<path d="M34.1553 52C33.2272 53.7815 32.1147 55.6152 30.7725 57.5322C31.4256 55.7476 31.9175 53.8931 32.2568 52H34.1553Z" fill="#FF0044"/>
<path d="M27.9033 52C27.4331 53.4841 26.8717 55.0086 26.2129 56.5693C26.4623 55.0765 26.5654 53.5484 26.5283 52H27.9033Z" fill="#FF0044"/>
<path d="M35.2285 14.6797L35.2295 14.6807V49H28.749V17.7041L29.1074 17.5361L32.8389 15.7939L32.8398 15.7949L34.623 14.9629L34.6211 14.9619L35.2285 14.6797Z" fill="#FF0044"/>
<path d="M8.01074 18.8867C15.9446 19.8719 22.0553 23.0622 25.749 28.0459V46.1533C23.8524 38.2227 18.591 30.2005 10.6787 23.8418C17.0367 26.7154 21.7023 30.1048 24.7305 33.8926C21.2318 28.03 15.6859 22.8119 8.69141 19.2285L8.01074 18.8867Z" fill="#FF0044"/>
<path d="M7 13.0635C14.397 12.5515 20.6779 14.1263 25.749 17.1299V24.1035C21.4176 18.4604 15.1339 14.2936 7 13.0635Z" fill="#FF0044"/>
<path d="M16 4H4V16H0V0H16V4Z" fill="#FF0044"/>
<path d="M64 16H60V4H48V0H64V16Z" fill="#FF0044"/>
<path d="M10.7559 8.4248C18.3324 9.55716 24.5571 11.4178 29.627 13.9824L26.6523 15.3711C22.8561 12.5006 17.6909 10.4406 10.7559 8.4248Z" fill="#FF0044"/>
<path d="M18.791 8C25.1031 8.64341 30.2596 9.89062 34.4854 11.7158L31.5791 13.0713C27.9897 11.1166 23.6408 9.53944 18.791 8Z" fill="#FF0044"/>
</svg>
