<svg width="36" height="36" viewBox="0 0 36 36" fill="none" xmlns="http://www.w3.org/2000/svg">
<path d="M1 35H9V36H0V27H1V35Z" fill="#FF0044"/>
<path d="M36 36H27V35H35V27.0137L36 27V36Z" fill="#FF0044"/>
<path d="M22.0875 28.9418C21.5831 30.3193 21.0041 31.5701 20.4291 32.625C20.8405 31.5186 21.0742 30.4014 21.1789 29.2665C21.489 29.1752 21.7919 29.0671 22.0875 28.9418Z" fill="#FF0044"/>
<path d="M19.0063 29.6345C18.5273 30.5155 17.9682 31.4212 17.3095 32.3619C17.6307 31.4842 17.8825 30.5764 18.0687 29.6505C18.1579 29.6532 18.2472 29.6548 18.3367 29.6548C18.5624 29.6548 18.7856 29.6474 19.0063 29.6345Z" fill="#FF0044"/>
<path d="M15.1331 29.0594C15.3192 29.1299 15.5065 29.1935 15.6945 29.2516C15.4301 30.0859 15.115 30.943 14.7448 31.8203C14.9 30.8909 14.954 29.9375 14.9123 28.9709C14.9854 29.0014 15.0588 29.0312 15.1331 29.0594Z" fill="#FF0044"/>
<path d="M25.9695 9.47461C31.0639 12.884 33.8644 19.9287 28.9061 27.2071C29.2902 25.0331 29.1275 23.4259 28.3579 21.7112C27.8395 25.6924 27.2071 26.9938 23.3789 31.6972C24.196 30.1032 24.6888 28.5629 24.8708 26.9802C25.2451 26.5661 25.5765 26.1094 25.8607 25.6091C26.5703 24.3755 26.9186 22.9781 26.9594 21.4673L26.9632 21.1635C26.9632 19.845 26.7002 18.5976 26.1491 17.4496C25.5791 16.2622 24.7231 15.3044 23.6074 14.6041C23.5431 14.5629 23.4785 14.5225 23.413 14.4838L25.2675 10.8495C27.48 13.4826 28.742 16.8709 29.5274 20.9652C29.6219 16.3114 28.2783 12.428 25.7904 9.82507L25.9695 9.47461Z" fill="#FF0044"/>
<path d="M18.8229 19.665C18.9864 19.665 19.1136 19.6801 19.214 19.7018C19.4814 20.7183 19.6539 21.7556 19.699 22.7829C19.6375 22.8918 19.5702 22.9813 19.5002 23.0554C19.1917 23.382 18.8947 23.4992 18.5257 23.4992C18.4607 23.4992 18.4 23.495 18.3428 23.4899C18.22 22.3259 17.9995 21.1704 17.6836 20.0429C17.7529 19.9963 17.8258 19.9529 17.9022 19.9122L17.9072 19.9094L17.9116 19.9072C18.2268 19.7367 18.5237 19.665 18.8229 19.665Z" fill="#FF0044"/>
<path fill-rule="evenodd" clip-rule="evenodd" d="M19.3629 8.28424C19.8386 8.28424 20.2734 8.3021 20.6669 8.33752C20.9295 8.36121 21.1738 8.39255 21.3997 8.43201C21.7384 8.49106 22.0359 8.56824 22.2924 8.66272C22.9853 8.9057 23.5479 9.23844 23.9799 9.66138L22.6571 12.2536C22.2971 11.8576 21.8154 11.5874 21.2124 11.4434C20.7601 11.3354 20.3357 11.2682 19.9391 11.2412C19.8729 11.2367 19.8076 11.233 19.743 11.2308C19.6785 11.2285 19.6147 11.2275 19.5518 11.2275C18.7401 11.2275 18.0198 11.4373 17.3908 11.857C17.2945 11.9212 17.2005 11.9906 17.1085 12.0646L16.9821 12.1712C16.3578 12.7127 15.8598 13.3925 15.4885 14.2108C15.0925 15.0748 14.8632 15.9705 14.8002 16.8975C14.7912 17.0864 14.7818 17.2618 14.7728 17.4238V17.8967C14.8113 17.8226 14.8515 17.7501 14.8925 17.6792C14.9026 17.6618 14.9131 17.6448 14.9233 17.6276C14.9473 17.5871 14.9715 17.5472 14.9963 17.5078C15.0141 17.4796 15.0319 17.4515 15.0502 17.4238C15.078 17.3815 15.1065 17.3401 15.1353 17.2991C15.148 17.2811 15.1604 17.263 15.1732 17.2452C15.462 16.846 15.7986 16.5091 16.184 16.235C16.1873 16.2327 16.1905 16.2303 16.1938 16.2279C16.2114 16.2155 16.2294 16.2038 16.2471 16.1917C16.2878 16.1638 16.329 16.1368 16.3707 16.1104C16.5159 16.0182 16.6672 15.9339 16.825 15.8582C17.3991 15.5857 17.9918 15.4009 18.6031 15.304C18.6095 15.3029 18.616 15.3022 18.6224 15.3012C18.6915 15.2905 18.7609 15.2806 18.8306 15.2721C18.8454 15.2703 18.8602 15.2683 18.8751 15.2666C18.951 15.2579 19.0271 15.2502 19.1036 15.2441C19.1189 15.2429 19.1343 15.2424 19.1497 15.2413C19.2123 15.2368 19.2751 15.2331 19.3381 15.2303C19.3568 15.2295 19.3755 15.2288 19.3942 15.2281C19.4735 15.2253 19.5532 15.2238 19.6331 15.2238L19.8583 15.2265C20.0009 15.2305 20.1408 15.2383 20.278 15.2501C20.308 15.2527 20.3378 15.256 20.3676 15.2589C20.4123 15.2633 20.4568 15.2679 20.501 15.2732C20.5104 15.2743 20.5197 15.2759 20.5291 15.277C20.5746 15.2827 20.6198 15.2881 20.6647 15.2946L20.7169 15.3029C20.7285 15.3046 20.74 15.3065 20.7515 15.3083C20.7984 15.3158 20.8449 15.324 20.8911 15.3325C20.9162 15.3371 20.9413 15.3419 20.9663 15.3468C21.0091 15.3552 21.0516 15.3639 21.0938 15.3732C21.1166 15.3782 21.1392 15.3838 21.1619 15.3891C21.1994 15.3979 21.2368 15.4066 21.2739 15.416C21.2997 15.4226 21.3253 15.4294 21.3508 15.4363C21.3903 15.447 21.4295 15.4578 21.4684 15.4693C21.4903 15.4758 21.5121 15.4824 21.5338 15.4891C21.5766 15.5024 21.619 15.5166 21.6612 15.5308C21.6759 15.5358 21.6906 15.5406 21.7051 15.5457C21.7544 15.5628 21.803 15.581 21.8513 15.5995C21.8609 15.6032 21.8707 15.6067 21.8804 15.6105C21.9223 15.6269 21.9638 15.6441 22.0051 15.6616C22.0267 15.6707 22.0484 15.6796 22.0699 15.689C22.1023 15.7033 22.1341 15.7186 22.166 15.7335C22.1878 15.7437 22.2098 15.7532 22.2314 15.7637C22.2689 15.782 22.306 15.8011 22.3429 15.8203C22.3614 15.83 22.38 15.8395 22.3984 15.8494C22.5007 15.9044 22.6005 15.9629 22.6978 16.0252C22.7021 16.028 22.7066 16.0306 22.7109 16.0334C22.844 16.117 22.9716 16.2056 23.0944 16.2982C23.1132 16.3124 23.1324 16.3261 23.1509 16.3405C23.1779 16.3615 23.2041 16.3834 23.2306 16.4048C23.2512 16.4214 23.2718 16.4379 23.2921 16.4548C23.3095 16.4693 23.3266 16.484 23.3438 16.4987C23.3735 16.5242 23.4031 16.5496 23.4322 16.5756C23.4415 16.5839 23.4505 16.5925 23.4597 16.6009C23.4893 16.6279 23.5186 16.6551 23.5475 16.6827C23.5752 16.7091 23.6024 16.736 23.6294 16.7629C23.644 16.7775 23.6584 16.7922 23.6728 16.8069C23.6958 16.8304 23.7184 16.8543 23.7409 16.8783C23.7557 16.8941 23.7708 16.9096 23.7854 16.9255C23.8116 16.9542 23.8374 16.9831 23.8629 17.0123C23.8786 17.0303 23.8941 17.0485 23.9095 17.0667C23.9276 17.088 23.9457 17.1094 23.9634 17.131C23.9862 17.1589 24.0087 17.1871 24.0309 17.2156C24.0435 17.2316 24.0559 17.2477 24.0683 17.2639C24.0939 17.2975 24.1193 17.3313 24.1441 17.3655C24.1516 17.3759 24.1592 17.3864 24.1666 17.3969C24.2253 17.4791 24.2811 17.5638 24.3353 17.6501C24.3479 17.6702 24.3608 17.6902 24.3732 17.7105C24.3814 17.724 24.3893 17.7376 24.3973 17.7512C24.4187 17.787 24.4399 17.8229 24.4605 17.8594C24.4821 17.8976 24.5029 17.9363 24.5237 17.9753C24.5275 17.9824 24.5314 17.9895 24.5352 17.9967C24.567 18.0571 24.5982 18.1181 24.6281 18.1802L24.7066 18.3499C24.7539 18.4565 24.7981 18.5643 24.8395 18.6735C24.8516 18.7053 24.8626 18.7375 24.8741 18.7696C24.8836 18.7958 24.8936 18.8218 24.9027 18.8481C24.9131 18.8782 24.9229 18.9085 24.9329 18.9388C24.9424 18.9676 24.9518 18.9965 24.9609 19.0256C24.969 19.0513 24.9768 19.0772 24.9846 19.103C24.9953 19.1387 25.0063 19.1742 25.0164 19.2101C25.0209 19.2259 25.0253 19.2416 25.0296 19.2574C25.0424 19.304 25.0541 19.351 25.0659 19.398C25.0709 19.4181 25.0758 19.4383 25.0807 19.4584C25.0872 19.4857 25.0937 19.5129 25.0999 19.5403C25.1096 19.5828 25.1191 19.6254 25.1279 19.6683C25.1302 19.6794 25.1323 19.6906 25.1345 19.7018C25.1425 19.7414 25.1503 19.7811 25.1576 19.821C25.1623 19.8466 25.1669 19.8722 25.1713 19.8979C25.1885 19.9984 25.2029 20.0999 25.2158 20.2022C25.2173 20.2141 25.2193 20.226 25.2208 20.2379C25.2345 20.3512 25.2457 20.4657 25.2543 20.5812C25.2555 20.5977 25.2565 20.6142 25.2576 20.6307C25.2694 20.8057 25.2757 20.9833 25.2757 21.1635C25.2757 21.3587 25.2692 21.5502 25.2576 21.7381C25.2573 21.7427 25.2573 21.7473 25.257 21.7518C25.2512 21.8435 25.2436 21.9343 25.235 22.0243C25.233 22.0459 25.2312 22.0676 25.229 22.0891C25.2207 22.1693 25.2109 22.2487 25.2004 22.3275C25.1974 22.3503 25.1949 22.373 25.1917 22.3956C25.1639 22.591 25.1289 22.7819 25.0873 22.9686C25.0852 22.9779 25.0834 22.9873 25.0812 22.9966C25.0168 23.2807 24.9361 23.5545 24.8395 23.8184C24.8379 23.8229 24.8363 23.8275 24.8346 23.8321L24.834 23.831C24.7132 24.1588 24.569 24.4716 24.3984 24.7681C23.9118 25.6273 23.2575 26.3218 22.4368 26.8533C22.4247 26.8612 22.4127 26.8692 22.4006 26.877C22.3519 26.908 22.3026 26.9382 22.2528 26.9681C22.2276 26.9833 22.2025 26.9988 22.177 27.0137C22.1085 27.0536 22.0389 27.093 21.9683 27.1307C21.9076 27.1634 21.8461 27.1946 21.7842 27.2252C20.898 27.6662 19.8884 27.9103 18.7548 27.958C18.7418 27.9586 18.7288 27.9586 18.7158 27.9591C18.591 27.9638 18.4645 27.9673 18.3367 27.9673C17.5391 27.9673 16.753 27.8336 15.9774 27.5685C15.8953 27.541 15.8131 27.5127 15.7313 27.4818C15.6527 27.4519 15.5751 27.4194 15.4979 27.3862C15.4787 27.3779 15.4593 27.3699 15.4402 27.3615C15.365 27.3281 15.2905 27.2931 15.2166 27.2565C15.2014 27.249 15.1862 27.2412 15.171 27.2335C14.5351 26.9116 13.9476 26.4681 13.4094 25.9019C12.7254 25.1639 12.1765 24.1874 11.7625 22.9724C11.3828 21.8333 11.1809 20.4491 11.1572 18.8196L11.155 18.4905C11.155 18.4711 11.1555 18.4517 11.1555 18.4323C11.156 18.2907 11.1579 18.1505 11.1616 18.0115C11.1628 17.9647 11.1649 17.918 11.1665 17.8715C11.171 17.7386 11.1766 17.6069 11.1841 17.4765C11.1846 17.467 11.1852 17.4575 11.1857 17.4479C11.2216 16.8415 11.2896 16.2618 11.3895 15.7088C11.3919 15.6954 11.3948 15.6821 11.3972 15.6687C11.4117 15.5902 11.4265 15.5121 11.4423 15.4347C11.4506 15.3939 11.4594 15.3533 11.4681 15.3127C11.4824 15.2455 11.4972 15.1787 11.5126 15.1122C11.5193 15.083 11.5265 15.054 11.5334 15.0249C11.5749 14.8517 11.6187 14.681 11.6669 14.5135C11.675 14.4853 11.6839 14.4574 11.6922 14.4294C11.8357 13.9458 12.0069 13.4858 12.208 13.0501C12.4192 12.5957 12.6539 12.1729 12.9111 11.7812C12.9133 11.7779 12.9155 11.7746 12.9177 11.7713C13.1056 11.486 13.3057 11.2174 13.5181 10.9655C13.5356 10.9447 13.5537 10.9245 13.5714 10.9039C13.6273 10.839 13.6836 10.7749 13.7411 10.7122C13.7525 10.6999 13.7638 10.6876 13.7752 10.6754C13.8392 10.6066 13.9042 10.5393 13.9702 10.4733C13.9776 10.4658 13.9847 10.4581 13.9922 10.4507L14.0444 10.3986C14.3787 10.0731 14.7384 9.78221 15.1238 9.52625C15.3019 9.40751 15.4841 9.29836 15.6693 9.19666C15.693 9.18359 15.7168 9.17098 15.7407 9.1582C15.7919 9.13078 15.8432 9.10359 15.895 9.07745C15.914 9.06786 15.9331 9.05831 15.9521 9.04889C16.0159 9.01744 16.0799 8.98666 16.1444 8.95715C16.166 8.94727 16.1881 8.93826 16.2098 8.92859C16.2696 8.90196 16.3295 8.87556 16.39 8.85059C16.4202 8.83811 16.4507 8.8264 16.4811 8.81433C16.5314 8.7944 16.5815 8.77436 16.6322 8.75555C16.6726 8.74055 16.7134 8.72644 16.7542 8.71216C16.8032 8.69494 16.8524 8.6778 16.9019 8.66162C16.9326 8.65161 16.9634 8.64212 16.9942 8.63251C17.052 8.61448 17.11 8.59695 17.1683 8.58032C17.1943 8.57294 17.2203 8.566 17.2463 8.5589C17.3145 8.5403 17.3829 8.52231 17.4518 8.50562C17.4646 8.50252 17.4774 8.49986 17.4902 8.49683C17.5656 8.47898 17.6413 8.46187 17.7177 8.44629C17.7237 8.44505 17.7297 8.44367 17.7358 8.44244C18.2333 8.34215 18.751 8.29033 19.2881 8.28589C19.3132 8.28568 19.3377 8.28424 19.3629 8.28424ZM18.8229 17.9775C18.4964 17.9775 18.1772 18.024 17.8643 18.1137C17.6217 18.1831 17.3831 18.2791 17.1486 18.4026C17.1353 18.4096 17.1217 18.4158 17.1085 18.423C16.7544 18.6118 16.4398 18.8439 16.1631 19.1179C16.1106 19.1698 16.0596 19.2234 16.0098 19.2783C15.9219 19.3756 15.8374 19.4773 15.7582 19.5842C15.4074 20.0701 15.2142 20.6056 15.1782 21.1904C15.1782 21.8084 15.2765 22.3891 15.4737 22.9323C15.5034 23.0141 15.5351 23.095 15.5693 23.1751C15.6109 23.268 15.6563 23.3575 15.7033 23.4448C15.7676 23.5645 15.8361 23.6794 15.9104 23.7887C16.0331 23.9685 16.1698 24.1338 16.3196 24.2853C16.3248 24.2905 16.3298 24.296 16.335 24.3012C16.4385 24.4045 16.5484 24.5012 16.6646 24.5912C16.6822 24.6049 16.6989 24.6197 16.7168 24.633C17.203 24.989 17.7816 25.1725 18.4521 25.1851L18.5257 25.1867C18.6862 25.1867 18.8423 25.1749 18.9943 25.1521C19.0447 25.1445 19.0947 25.1358 19.1442 25.1257L19.2914 25.0917C19.7785 24.965 20.2182 24.7118 20.6104 24.332C20.6495 24.2941 20.6881 24.2548 20.7263 24.2144C20.7902 24.1468 20.8502 24.0759 20.9075 24.0029C21.1746 23.6631 21.3704 23.2659 21.4948 22.8104C21.5869 22.4728 21.6403 22.1036 21.6541 21.7024L21.6579 21.4876C21.6579 21.1585 21.6357 20.8496 21.5909 20.5609C21.564 20.3877 21.529 20.2218 21.486 20.0632C21.4573 19.9577 21.4251 19.8553 21.3893 19.7562C21.3713 19.7065 21.3524 19.6576 21.3327 19.6095C21.2736 19.4654 21.2064 19.3287 21.1311 19.1992C21.106 19.156 21.08 19.1138 21.0531 19.0723C21.0262 19.0306 20.9983 18.9898 20.9696 18.9498C20.9364 18.9029 20.9016 18.8581 20.8658 18.8146C20.7847 18.7164 20.6968 18.627 20.6021 18.546C20.3814 18.3579 20.1236 18.2166 19.8287 18.1219L19.8281 18.1208C19.5308 18.0255 19.1957 17.9775 18.8229 17.9775Z" fill="#FF0044"/>
<path d="M6.00677 13.411C7.38897 14.0357 8.62879 14.7041 9.72839 15.4116C9.64749 15.8602 9.58501 16.3202 9.54218 16.7915C8.49991 15.6003 7.3182 14.4649 6.00677 13.411Z" fill="#FF0044"/>
<path d="M4.50604 10.6238C6.83854 10.9134 8.89071 11.5426 10.6155 12.4766C10.3556 13.0597 10.1423 13.6713 9.97284 14.3097C8.49265 12.9731 6.7855 11.7877 4.88892 10.816L4.50604 10.6238Z" fill="#FF0044"/>
<path d="M19.5518 12.915C19.8977 12.915 20.3175 12.9647 20.8202 13.0847C21.1468 13.1627 21.3107 13.2815 21.408 13.3885L21.7881 13.8065C21.1056 13.6223 20.3834 13.5363 19.6331 13.5363C19.0016 13.5363 18.3828 13.6063 17.7797 13.7461C17.9031 13.6117 18.0329 13.4883 18.1703 13.3759C18.5462 13.0744 18.9811 12.915 19.5518 12.915Z" fill="#FF0044"/>
<path d="M3.9375 7.34821C7.47116 7.10361 10.5515 7.7068 13.1473 8.92859C12.5816 9.43557 12.0789 10.0125 11.6367 10.6534C9.53703 8.98715 6.96503 7.80607 3.9375 7.34821Z" fill="#FF0044"/>
<path d="M9 1H1V9H0V0H9V1Z" fill="#FF0044"/>
<path d="M36 9H35V1H27V0H36V9Z" fill="#FF0044"/>
<path d="M6.05017 4.73895C9.7926 5.29828 12.9486 6.17377 15.5934 7.35535C15.1189 7.56176 14.6598 7.81031 14.218 8.10242C12.1694 6.76352 9.49888 5.74137 6.05017 4.73895Z" fill="#FF0044"/>
<path d="M10.5699 4.5C14.1287 4.86275 17.0345 5.56673 19.4145 6.59729C19.3973 6.59725 19.3801 6.59674 19.3629 6.59674C18.5074 6.59674 17.6831 6.69931 16.8948 6.90546C15.057 6.00678 12.9179 5.24531 10.5699 4.5Z" fill="#FF0044"/>
</svg>
