<svg width="36" height="36" viewBox="0 0 36 36" fill="none" xmlns="http://www.w3.org/2000/svg">
<path d="M1 35H9V36H0V27H1V35Z" fill="#FF0044"/>
<path d="M36 36H27V35H35V27H36V36Z" fill="#FF0044"/>
<path d="M22.1737 28.7023C21.6498 30.1744 21.0372 31.5093 20.4291 32.625C20.851 31.4904 21.0865 30.3445 21.1871 29.1797C21.529 29.0462 21.8583 28.888 22.1737 28.7023Z" fill="#FF0044"/>
<path d="M18.9761 29.69C18.5038 30.5534 17.9544 31.4409 17.3095 32.3619C17.6209 31.511 17.8666 30.6316 18.0511 29.735C18.3649 29.7336 18.6734 29.7186 18.9761 29.69Z" fill="#FF0044"/>
<path d="M14.9211 29.2225C15.1526 29.3086 15.3896 29.3835 15.6319 29.4472C15.3806 30.2196 15.0862 31.0114 14.7448 31.8203C14.8865 30.9717 14.9438 30.1029 14.9211 29.2225Z" fill="#FF0044"/>
<path d="M24.3331 8.54297C30.4067 11.4397 34.3736 19.1812 28.9061 27.2071C29.2902 25.0331 29.1275 23.4259 28.3579 21.7112C27.8395 25.6924 27.2071 26.9938 23.3789 31.6972C24.4032 29.6991 24.9193 27.7855 24.9494 25.7668C25.2858 25.1635 25.5626 24.5101 25.78 23.8112L25.7805 23.8085C26.2672 22.2338 26.5126 20.4838 26.5413 18.5768L26.5446 18.1934C26.5446 15.0615 26.0552 12.3927 24.873 10.3991C27.3323 13.092 28.6965 16.6335 29.5274 20.9652C29.639 15.4712 27.7468 11.0502 24.3331 8.54297Z" fill="#FF0044"/>
<path d="M16.9514 14.4613C17.9581 16.1046 18.8267 18.0572 19.3085 20.077C19.2658 20.5583 19.2076 21.0108 19.1321 21.4349L19.131 21.4404L19.1299 21.4464C18.9965 22.2272 18.7921 22.7589 18.5751 23.1114L18.4796 23.2548C18.4313 23.3217 18.3865 23.3698 18.3329 23.4042C18.0964 21.2466 17.5256 19.1193 16.6295 17.1497C16.6658 16.2706 16.7496 15.4958 16.8766 14.82V14.8173C16.9 14.6919 16.9251 14.5733 16.9514 14.4613Z" fill="#FF0044"/>
<path d="M18.0258 12.8068C18.251 12.8068 18.3406 12.8577 18.4592 13.0199L18.468 13.0314L18.4763 13.043C18.7093 13.3506 18.9567 13.8951 19.1184 14.8035L19.1217 14.82L19.1832 15.1754C19.2561 15.6358 19.3091 16.1384 19.3436 16.6844C18.8434 15.5219 18.1186 14.4904 17.2007 13.6577C17.309 13.3912 17.4235 13.1905 17.5353 13.043C17.6704 12.8665 17.7835 12.8068 18.0258 12.8068Z" fill="#FF0044"/>
<path fill-rule="evenodd" clip-rule="evenodd" d="M17.9989 8.28479C18.5238 8.2848 19.0202 8.33185 19.4881 8.42596C19.491 8.42655 19.494 8.42702 19.4969 8.42761C19.5841 8.44528 19.6704 8.46435 19.7556 8.48529C19.7623 8.48692 19.7688 8.48913 19.7754 8.49078C19.8526 8.51 19.9289 8.53039 20.0045 8.55231C20.0151 8.55539 20.0257 8.55851 20.0363 8.56165C20.1141 8.58468 20.191 8.60935 20.267 8.63525C20.2852 8.64146 20.3033 8.64811 20.3214 8.65448C20.478 8.70955 20.6309 8.77056 20.7801 8.83795C20.7852 8.84025 20.7904 8.84223 20.7955 8.84454C20.8687 8.87789 20.941 8.91259 21.0125 8.94891C21.0192 8.95237 21.026 8.95587 21.0328 8.95935C21.1061 8.99704 21.1783 9.03661 21.2498 9.07745C21.2582 9.08226 21.2667 9.08689 21.275 9.09174C21.3366 9.1274 21.3972 9.16467 21.4574 9.2027C21.4714 9.21157 21.4857 9.22006 21.4997 9.22906C21.5605 9.26828 21.6205 9.30881 21.6799 9.35046C21.6985 9.3635 21.7169 9.37674 21.7354 9.39001C21.8615 9.48087 21.9841 9.57744 22.1034 9.6795C22.1225 9.69585 22.1416 9.71231 22.1605 9.72894C22.2796 9.83356 22.3955 9.94364 22.5077 10.0596C22.5163 10.0686 22.5249 10.0776 22.5335 10.0865C22.5784 10.1336 22.6226 10.1816 22.6664 10.2305C22.6975 10.2651 22.7282 10.3004 22.7587 10.3359C22.7917 10.3743 22.8248 10.4129 22.8571 10.4524C22.8763 10.4759 22.8952 10.4999 22.9142 10.5238C22.9638 10.5862 23.0134 10.6494 23.0614 10.7144C23.2485 10.9676 23.421 11.242 23.5789 11.5378C23.6419 11.656 23.7028 11.7776 23.7612 11.9026C24.0243 12.4657 24.2399 13.0981 24.4083 13.7994C24.427 13.8773 24.4452 13.956 24.4627 14.0356C24.7257 15.2297 24.8571 16.6157 24.8571 18.1934L24.8544 18.5521C24.8541 18.5717 24.8531 18.5913 24.8527 18.6108C24.8507 18.727 24.8477 18.8424 24.8439 18.9569C24.8422 19.0104 24.8395 19.0636 24.8373 19.1168C24.8342 19.1952 24.8309 19.2732 24.8269 19.3508C24.8234 19.4179 24.82 19.4847 24.8159 19.5513C24.8105 19.6397 24.8048 19.7276 24.7983 19.8149C24.7954 19.855 24.7928 19.8949 24.7896 19.9347C24.7796 20.0592 24.7677 20.1826 24.7555 20.3049C24.7512 20.3475 24.7468 20.39 24.7423 20.4324C24.7314 20.5346 24.7191 20.636 24.7066 20.7367C24.703 20.7657 24.6999 20.7946 24.6962 20.8235C24.6446 21.2231 24.5804 21.6107 24.5039 21.9864C24.501 22.0005 24.4986 22.0146 24.4957 22.0287L24.4951 22.0276C24.4033 22.4718 24.2952 22.8997 24.1683 23.3102C23.8996 24.1741 23.5357 24.9292 23.079 25.5773V25.5789C23.0711 25.5901 23.0627 25.6008 23.0548 25.6119C22.9216 25.7983 22.7808 25.9758 22.6318 26.1442C22.5968 26.1839 22.5612 26.223 22.5253 26.2617C22.5066 26.2817 22.4875 26.3013 22.4687 26.321C22.4396 26.3515 22.4104 26.3818 22.3808 26.4117C22.3528 26.4398 22.3246 26.4676 22.2962 26.4952C22.2672 26.5233 22.2379 26.5511 22.2083 26.5787C22.1838 26.6015 22.1595 26.6244 22.1347 26.6468C22.0798 26.6964 22.0244 26.7453 21.9677 26.7929C21.9101 26.8408 21.8512 26.8869 21.7914 26.9319C21.1567 27.4117 20.4057 27.736 19.5381 27.9064C19.5315 27.9077 19.5249 27.9089 19.5183 27.9102C19.3611 27.9406 19.2002 27.9658 19.0355 27.986C18.9979 27.9907 18.9602 27.9956 18.9223 27.9998C18.8886 28.0034 18.8547 28.0064 18.8207 28.0096C18.7683 28.0146 18.7156 28.0188 18.6625 28.0228C18.628 28.0254 18.5934 28.0283 18.5587 28.0305C18.4839 28.0352 18.4085 28.0393 18.3323 28.0421C18.2227 28.046 18.1115 28.0486 17.9989 28.0486C17.3106 28.0486 16.6781 27.9734 16.101 27.8256C16.0938 27.8238 16.0868 27.822 16.0796 27.8201C16.0386 27.8095 15.9981 27.798 15.9576 27.7866C15.9261 27.7777 15.8949 27.7685 15.8637 27.7592C15.7074 27.7123 15.5555 27.6598 15.4078 27.6015C15.3997 27.5983 15.3916 27.5954 15.3836 27.5922C15.332 27.5715 15.2809 27.55 15.2303 27.5279C15.2216 27.524 15.2127 27.5202 15.204 27.5164C15.0481 27.4473 14.8976 27.3714 14.7519 27.2889C14.7494 27.2875 14.7467 27.2865 14.7442 27.2851C14.4911 27.1412 14.2519 26.9776 14.0295 26.7929C13.0216 25.9469 12.288 24.7861 11.829 23.3102C11.4209 21.9899 11.1947 20.4951 11.1495 18.8262C11.1475 18.7553 11.1464 18.684 11.1451 18.6125C11.1426 18.474 11.1407 18.3342 11.1407 18.1934C11.1407 18.0083 11.143 17.826 11.1467 17.6462C11.1481 17.58 11.1498 17.514 11.1517 17.4485C11.1547 17.3408 11.1588 17.234 11.1632 17.1282C11.1665 17.0471 11.1695 16.9665 11.1736 16.8865C11.1813 16.7377 11.1902 16.5909 11.2006 16.446C11.3502 14.3474 11.783 12.6626 12.4997 11.3912C12.5038 11.3838 12.5082 11.3765 12.5123 11.3692C12.6442 11.1372 12.7855 10.9187 12.9364 10.7144C12.9792 10.657 13.0226 10.6006 13.0666 10.5452C13.0875 10.5189 13.1091 10.4931 13.1303 10.4672C13.1491 10.4443 13.1674 10.4211 13.1863 10.3986C13.2129 10.367 13.2401 10.3361 13.2671 10.3052C13.2955 10.2726 13.3239 10.2402 13.3528 10.2085C13.3611 10.1994 13.3692 10.1901 13.3775 10.181C13.4165 10.1387 13.4563 10.0973 13.4962 10.0563C13.505 10.0472 13.5136 10.0379 13.5225 10.0289L13.5368 10.0146C13.6287 9.92202 13.7229 9.83331 13.8192 9.74817C13.8412 9.72871 13.8634 9.70957 13.8856 9.69049C13.9119 9.66796 13.9381 9.64547 13.9647 9.62347C13.9892 9.6032 14.0141 9.58341 14.0389 9.5636C14.407 9.26937 14.8051 9.02568 15.2336 8.83301C15.2407 8.82981 15.2474 8.82684 15.2545 8.82367C15.3247 8.79243 15.3958 8.76265 15.4677 8.73413C15.4874 8.72631 15.5072 8.71868 15.527 8.71106C15.5921 8.68604 15.6578 8.66191 15.7242 8.6391C15.7375 8.63451 15.7509 8.62986 15.7643 8.62537C15.8391 8.60028 15.9147 8.57682 15.9911 8.5545C16.0163 8.54716 16.0416 8.54013 16.067 8.53308C16.1426 8.51205 16.2188 8.49157 16.296 8.47321C16.3066 8.47069 16.3173 8.46853 16.3279 8.46606C16.4063 8.44783 16.4856 8.43101 16.5657 8.41553C16.5774 8.41327 16.5892 8.41114 16.6009 8.40894C16.6876 8.39265 16.7754 8.37808 16.864 8.36499C16.8817 8.36238 16.8995 8.35979 16.9173 8.3573C16.9955 8.34637 17.0744 8.33665 17.1541 8.32819C17.1659 8.32692 17.1778 8.32555 17.1898 8.32434C17.2818 8.31501 17.3748 8.30732 17.4688 8.30127C17.475 8.30087 17.4813 8.30056 17.4875 8.30017C17.6546 8.28983 17.8256 8.28479 17.9989 8.28479ZM18.0258 11.1193C17.6043 11.1193 17.2289 11.2108 16.9003 11.3939C16.8728 11.4092 16.8463 11.4257 16.8195 11.4423C16.6037 11.5756 16.4088 11.7501 16.235 11.9663C16.2199 11.9852 16.2049 12.0045 16.19 12.024L16.1071 12.1382C16.0369 12.2389 15.9702 12.3457 15.9066 12.4585C15.828 12.598 15.7548 12.7469 15.6863 12.9051C15.6577 12.9711 15.6296 13.0385 15.6028 13.1078C15.4439 13.5177 15.3153 13.9843 15.2177 14.508C15.1034 15.1159 15.0227 15.7793 14.9744 16.4982C14.9484 16.8858 14.932 17.2901 14.9249 17.71C14.9241 17.7615 14.9238 17.8134 14.9233 17.8654C14.9222 17.9649 14.9211 18.0652 14.9211 18.1664L14.9255 18.6531C14.9259 18.6764 14.9266 18.6997 14.9271 18.7229C14.9479 19.7028 15.0243 20.6086 15.1562 21.4404C15.1717 21.538 15.1875 21.6348 15.2045 21.7304C15.2911 22.1911 15.402 22.6103 15.5369 22.9883C15.5946 23.1502 15.6565 23.3047 15.7231 23.4514C15.7675 23.5493 15.8142 23.6437 15.8626 23.7349C15.911 23.8261 15.9613 23.9141 16.0137 23.9985C16.0659 24.0828 16.1201 24.1638 16.1763 24.2413C16.211 24.2876 16.2468 24.332 16.2834 24.3748C16.3624 24.4674 16.4459 24.5513 16.5333 24.6275C16.572 24.6612 16.6111 24.6937 16.6514 24.7242C17.035 25.0142 17.493 25.1598 18.0258 25.1598C18.1736 25.1598 18.3153 25.1481 18.451 25.1257C18.5518 25.1092 18.6491 25.0854 18.7432 25.0565C18.7931 25.0412 18.8419 25.0242 18.8899 25.0054C19.0032 24.9612 19.1112 24.9075 19.214 24.8439C19.4538 24.6954 19.6658 24.4949 19.8484 24.2413C19.9511 24.0997 20.0455 23.9462 20.1341 23.7821C20.1767 23.7031 20.2183 23.6219 20.2577 23.5377C20.2935 23.4612 20.3284 23.3828 20.3615 23.302C20.403 23.2008 20.4424 23.0963 20.4796 22.9883C20.4982 22.9344 20.5164 22.8797 20.534 22.8241C20.5867 22.657 20.6347 22.4823 20.6779 22.3C20.7212 22.1178 20.7595 21.9278 20.7933 21.7304C20.9823 20.6684 21.0767 19.4804 21.0767 18.1664C21.0767 16.7805 20.9775 15.561 20.7795 14.508C20.5905 13.446 20.271 12.618 19.821 12.024C19.38 11.4211 18.7817 11.1193 18.0258 11.1193Z" fill="#FF0044"/>
<path d="M6.00677 13.411C7.33949 14.0134 8.5398 14.6563 9.60974 15.3358C9.55602 15.7887 9.51805 16.2554 9.49219 16.7349C8.46212 15.5645 7.29736 14.4482 6.00677 13.411Z" fill="#FF0044"/>
<path d="M4.50604 10.6238C6.68346 10.8942 8.61662 11.4604 10.2673 12.2943C10.0711 12.876 9.91357 13.4949 9.79102 14.1476C8.35335 12.8773 6.7084 11.7482 4.88892 10.816L4.50604 10.6238Z" fill="#FF0044"/>
<path d="M3.9375 7.34821C7.19055 7.12303 10.0595 7.61621 12.52 8.64899C12.1855 8.96479 11.8728 9.31753 11.5829 9.70697L11.579 9.71191C11.4385 9.90219 11.3055 10.1 11.1802 10.3052C9.16773 8.823 6.74927 7.77344 3.9375 7.34821Z" fill="#FF0044"/>
<path d="M9 1H1V9H0V0H9V1Z" fill="#FF0044"/>
<path d="M36 9H35V1H27V0H36V9Z" fill="#FF0044"/>
<path d="M6.05017 4.73895C9.52073 5.25765 12.4869 6.04839 15.009 7.10266C14.5392 7.27636 14.0927 7.49535 13.6708 7.75909C11.7004 6.58487 9.19931 5.6543 6.05017 4.73895Z" fill="#FF0044"/>
<path d="M10.5699 4.5C14.3196 4.88221 17.3443 5.64314 19.793 6.76593C19.2215 6.65296 18.6225 6.59674 17.9989 6.59674C17.4801 6.59674 16.9785 6.63629 16.4954 6.71484C14.7496 5.89819 12.7499 5.19196 10.5699 4.5Z" fill="#FF0044"/>
</svg>
