<svg width="36" height="36" viewBox="0 0 36 36" fill="none" xmlns="http://www.w3.org/2000/svg">
<path d="M1 35H9V36H0V27H1V35Z" fill="#FF0044"/>
<path d="M36 36H27V35H35V27H36V36Z" fill="#FF0044"/>
<path d="M21.9727 29.25C21.4961 30.506 20.9609 31.6494 20.4291 32.625C20.8425 31.5132 21.0766 30.3906 21.1805 29.25H21.9727Z" fill="#FF0044"/>
<path d="M19.2123 29.25C18.6903 30.2521 18.0645 31.2836 17.3095 32.3619C17.6769 31.358 17.9536 30.3149 18.1445 29.25H19.2123Z" fill="#FF0044"/>
<path d="M15.6956 29.25C15.4311 30.0848 15.1153 30.9423 14.7448 31.8203C14.885 30.9805 14.943 30.121 14.9222 29.25H15.6956Z" fill="#FF0044"/>
<path d="M25.3048 29.25C24.7726 29.9632 24.139 30.7633 23.3789 31.6972C23.8021 30.8716 24.1375 30.0601 24.3891 29.25H25.3048Z" fill="#FF0044"/>
<path d="M24.3331 8.54297C30.4067 11.4397 34.3736 19.1812 28.9061 27.2071C29.2902 25.0331 29.1275 23.4259 28.3579 21.7112C27.9873 24.5577 27.5577 26.0339 25.9442 28.3634V22.7972H24.6649C24.4517 21.7231 24.121 20.6007 23.6739 19.4068C24.2198 18.8072 24.6753 18.154 25.0269 17.4435C25.553 16.38 25.8039 15.1887 25.8333 13.9136L25.836 13.6577C25.836 12.6956 25.6793 11.7803 25.3411 10.9385C27.5079 13.5589 28.7508 16.9167 29.5274 20.9652C29.639 15.4712 27.7468 11.0502 24.3331 8.54297Z" fill="#FF0044"/>
<path d="M18.1274 8.28479C18.5816 8.28479 19.0188 8.3202 19.4387 8.39026C19.451 8.39231 19.4626 8.39419 19.4749 8.3963C19.5274 8.40533 19.5796 8.41474 19.6315 8.42487C19.6472 8.42794 19.663 8.43103 19.6787 8.4342C19.8221 8.46318 19.9635 8.49622 20.1028 8.53363C20.114 8.53664 20.1251 8.53991 20.1363 8.54297C20.196 8.55933 20.2554 8.57614 20.3143 8.59406C20.3305 8.59898 20.3465 8.6044 20.3626 8.60944C20.4142 8.62554 20.4655 8.64212 20.5164 8.65942C20.5362 8.66615 20.556 8.67284 20.5757 8.67975C20.6279 8.69803 20.6796 8.71733 20.7312 8.73688C20.7409 8.74055 20.7506 8.74414 20.7603 8.74786C20.8174 8.76984 20.8742 8.79244 20.9306 8.81598C20.9443 8.82171 20.9581 8.82719 20.9718 8.83301C21.0368 8.86066 21.1012 8.8895 21.1652 8.91925L21.3333 8.9989C21.3996 9.0317 21.4646 9.06611 21.5288 9.10107C21.5698 9.12336 21.6106 9.14547 21.6508 9.16864C21.6634 9.17592 21.6756 9.1838 21.6881 9.19116C21.7256 9.21321 21.7629 9.23535 21.7996 9.25818C21.8205 9.27115 21.8411 9.28451 21.8617 9.29773C21.8878 9.31447 21.914 9.33112 21.9397 9.34827C21.97 9.36846 22 9.38903 22.0298 9.40979C22.0464 9.42136 22.0628 9.4332 22.0792 9.44495C22.1032 9.46211 22.127 9.4796 22.1506 9.49713C22.1766 9.51638 22.2025 9.53566 22.2281 9.55536C22.2471 9.57002 22.2659 9.58495 22.2847 9.59985C22.3103 9.62019 22.3358 9.64058 22.361 9.66138C22.3813 9.67811 22.4015 9.69489 22.4214 9.71191C22.4456 9.73246 22.4692 9.75355 22.4929 9.77454C22.512 9.79148 22.5311 9.80839 22.55 9.82562C22.5718 9.84555 22.5934 9.86574 22.6148 9.88605C22.6384 9.9084 22.6619 9.93081 22.6851 9.95361C22.698 9.96633 22.7108 9.97921 22.7236 9.99207C22.7494 10.018 22.7752 10.0441 22.8005 10.0706C22.8252 10.0966 22.8493 10.1232 22.8735 10.1497C22.8844 10.1616 22.8952 10.1734 22.9059 10.1854C22.932 10.2145 22.9575 10.2441 22.9828 10.2739C22.997 10.2905 23.0112 10.3071 23.0251 10.3239C23.1356 10.4568 23.2406 10.5956 23.3388 10.7413L23.4366 10.8935C23.4977 10.9928 23.5547 11.0946 23.608 11.1989C23.6224 11.2272 23.6359 11.256 23.6497 11.2846C23.6602 11.3062 23.6709 11.3276 23.681 11.3494C23.6947 11.3788 23.7075 11.4086 23.7206 11.4384C23.7331 11.4671 23.7459 11.4957 23.7579 11.5247C23.7639 11.5391 23.7697 11.5536 23.7755 11.5681C23.7921 11.6093 23.8084 11.6508 23.8239 11.6927C23.8298 11.7088 23.8351 11.725 23.8409 11.7411C23.8542 11.7786 23.8674 11.8162 23.8799 11.8542C23.8902 11.8855 23.8999 11.9171 23.9095 11.9487C23.9171 11.9733 23.9244 11.9981 23.9315 12.0229C23.9399 12.0519 23.9484 12.0809 23.9562 12.1102C23.9642 12.1397 23.9713 12.1694 23.9788 12.1992C23.9871 12.2325 23.9952 12.266 24.0029 12.2997C24.0088 12.3255 24.015 12.3512 24.0205 12.3772C24.0279 12.4118 24.0347 12.4466 24.0414 12.4816C24.0473 12.5122 24.0525 12.543 24.0579 12.5739C24.0637 12.6072 24.0696 12.6407 24.0749 12.6744C24.0789 12.6999 24.0828 12.7255 24.0864 12.7513C24.0915 12.787 24.0963 12.8229 24.1007 12.8589C24.1031 12.8781 24.1051 12.8974 24.1073 12.9166C24.112 12.958 24.1166 12.9995 24.1205 13.0413C24.1239 13.0785 24.1265 13.1158 24.1293 13.1534C24.1316 13.1844 24.134 13.2155 24.1359 13.2468C24.1372 13.269 24.1386 13.2914 24.1397 13.3138C24.1445 13.4096 24.1472 13.5066 24.1479 13.6049C24.1481 13.6225 24.1485 13.64 24.1485 13.6577L24.1463 13.8752C24.1438 13.9832 24.1388 14.0897 24.1326 14.1949C24.1295 14.2472 24.1261 14.2992 24.1221 14.3509C24.1085 14.5263 24.0893 14.6976 24.065 14.8651C24.0593 14.9041 24.0531 14.9429 24.0469 14.9815C24.0425 15.0083 24.0383 15.0351 24.0337 15.0617C24.0276 15.0969 24.021 15.1318 24.0145 15.1666C24.0101 15.1896 24.0058 15.2125 24.0013 15.2353C23.9943 15.2704 23.9874 15.3054 23.9799 15.3402C23.975 15.3628 23.9701 15.3853 23.965 15.4078C23.9549 15.4523 23.9436 15.4963 23.9326 15.5402C23.9291 15.5541 23.9263 15.5681 23.9227 15.5819C23.9116 15.6251 23.9 15.6679 23.8881 15.7104C23.8811 15.7357 23.8735 15.7607 23.8661 15.7857C23.8582 15.8127 23.8508 15.8397 23.8425 15.8665C23.8337 15.895 23.8243 15.9233 23.8151 15.9516C23.8031 15.9885 23.7909 16.0251 23.7783 16.0615C23.7757 16.0688 23.7731 16.0761 23.7706 16.0834C23.696 16.2954 23.6108 16.4993 23.514 16.6948C23.091 17.5498 22.4656 18.3285 21.6376 19.0305C21.5287 19.1238 21.4164 19.2171 21.3008 19.3107C21.2888 19.3204 21.2762 19.3295 21.264 19.3392C20.6224 19.8563 19.8795 20.3786 19.0344 20.9053C18.8968 20.9913 18.7566 21.0775 18.6136 21.1635C18.4896 21.2387 18.3687 21.3132 18.251 21.3871C17.6062 21.7919 17.0578 22.1771 16.6047 22.5412C16.5767 22.5638 16.5486 22.5858 16.5212 22.6082C16.4876 22.6357 16.4545 22.6639 16.4224 22.6928C16.2288 22.8669 16.0627 23.0671 15.9236 23.2932C15.8772 23.3685 15.8337 23.4467 15.7934 23.5278C15.6525 23.8114 15.5483 24.1305 15.4814 24.4847H24.2567V27.5625H12.1339C12.0799 27.2745 12.0347 26.9864 11.9987 26.6984C11.9627 26.4014 11.9449 26.0593 11.9449 25.6723C11.9449 24.5294 12.1291 23.5527 12.498 22.7428C12.6373 22.4445 12.7997 22.1577 12.9853 21.8826C13.0418 21.7988 13.1008 21.7159 13.1616 21.6343C13.1784 21.6118 13.1956 21.5896 13.2127 21.5673C13.2363 21.5364 13.2599 21.5055 13.2841 21.475C13.2934 21.4632 13.3027 21.4515 13.3121 21.4398C13.4356 21.2865 13.5667 21.137 13.706 20.9916C13.7375 20.9587 13.7698 20.9263 13.8021 20.8938C13.8186 20.8772 13.8348 20.8603 13.8516 20.8438C13.8677 20.8279 13.8842 20.8124 13.9005 20.7966C13.9797 20.7198 14.0611 20.6441 14.1449 20.5697C14.2262 20.4984 14.3094 20.4271 14.3948 20.356C14.425 20.3309 14.4559 20.3064 14.4866 20.2813C14.5483 20.2309 14.6111 20.1806 14.675 20.1302C14.7061 20.1057 14.7373 20.0811 14.7689 20.0566C14.8344 20.0059 14.9013 19.9556 14.9689 19.905C15.0007 19.8812 15.0322 19.8568 15.0645 19.8331C15.1513 19.769 15.24 19.7052 15.3303 19.6414C15.3843 19.6032 15.4394 19.5657 15.4946 19.5276C15.5501 19.4893 15.6059 19.4505 15.6627 19.4123C15.696 19.3898 15.7294 19.3672 15.7632 19.3447C15.8393 19.2941 15.9167 19.2436 15.995 19.1931C16.0336 19.1682 16.0723 19.1433 16.1115 19.1184C16.1259 19.1092 16.1404 19.1001 16.1548 19.0909C16.3725 18.9534 16.5978 18.8162 16.8316 18.6795C17.1153 18.5136 17.3988 18.3388 17.6825 18.156C17.8375 18.0563 17.9928 17.9544 18.1478 17.8495L18.5186 17.5924C18.541 17.5766 18.5642 17.5616 18.5867 17.5457C18.8876 17.3328 19.1616 17.0988 19.4101 16.8453C19.6447 16.606 19.8566 16.3494 20.0446 16.0741C20.083 16.0182 20.1192 15.9609 20.1539 15.9027C20.1838 15.8525 20.2124 15.8014 20.2396 15.7495C20.2683 15.6946 20.2953 15.6387 20.3209 15.5819C20.4578 15.2784 20.5506 14.9478 20.5988 14.5898C20.6187 14.4425 20.6313 14.2905 20.6362 14.1339L20.6384 13.9818C20.6384 13.6307 20.5832 13.2987 20.473 12.9858C20.4161 12.8244 20.3446 12.668 20.2582 12.5167C20.2191 12.4481 20.1771 12.3805 20.1319 12.314C20.0838 12.2432 20.032 12.1737 19.977 12.1053C19.545 11.5563 18.8476 11.2813 17.8846 11.2813C17.7904 11.2813 17.698 11.2849 17.6072 11.2906C16.804 11.3417 16.1391 11.6186 15.6121 12.1218C15.5677 12.1642 15.5239 12.2079 15.4814 12.2536C15.4371 12.3019 15.3942 12.3515 15.3523 12.4019C15.1643 12.6282 15.0008 12.8759 14.8612 13.1446C14.766 13.3281 14.6818 13.5214 14.6091 13.7247C14.4938 14.0466 14.4062 14.3931 14.3476 14.7645L11.4857 13.4143C11.4948 13.3548 11.5049 13.2957 11.5159 13.2369C11.5232 13.1973 11.5313 13.158 11.5395 13.1188C11.6797 12.4441 11.9383 11.8131 12.3162 11.2258C12.3248 11.2125 12.3339 11.1995 12.3426 11.1863C12.3705 11.1437 12.3991 11.1015 12.4283 11.0594C12.4366 11.0474 12.4446 11.0351 12.453 11.0231C12.4939 10.9649 12.536 10.9069 12.5793 10.8495C12.6291 10.783 12.6803 10.7177 12.7326 10.6534C12.7407 10.6435 12.7491 10.6337 12.7573 10.6238C12.8587 10.5011 12.9644 10.3824 13.0754 10.2684C13.0796 10.264 13.0838 10.2595 13.088 10.2552L13.1803 10.1629C13.2713 10.074 13.365 9.98757 13.4621 9.90417C13.4788 9.88986 13.4963 9.87658 13.5132 9.86243C13.558 9.82475 13.6033 9.78744 13.6494 9.75092C13.6653 9.7383 13.6811 9.72549 13.6972 9.71301C14.0524 9.43743 14.4448 9.19491 14.8744 8.98627C14.9891 8.92946 15.106 8.87633 15.2249 8.82642L15.2287 8.82477C15.306 8.79236 15.3842 8.76143 15.4633 8.73193C15.4813 8.7252 15.4995 8.71874 15.5176 8.71216C15.5882 8.68657 15.6594 8.66239 15.7313 8.6391C15.7432 8.63525 15.7551 8.63135 15.767 8.62756C15.8514 8.60075 15.9367 8.57542 16.023 8.55176C16.0341 8.54871 16.0454 8.54597 16.0565 8.54297C16.1253 8.52447 16.1947 8.50674 16.2647 8.49023C16.2923 8.48373 16.3199 8.4772 16.3477 8.47101C16.5173 8.43317 16.6903 8.40118 16.8668 8.37488C16.8854 8.3721 16.9041 8.36929 16.9228 8.36664C17.0041 8.35513 17.0861 8.34441 17.1689 8.33533C17.1791 8.3342 17.1894 8.33312 17.1996 8.33203C17.4994 8.30029 17.8087 8.2848 18.1274 8.28479Z" fill="#FF0044"/>
<path d="M19.6996 22.7972H19.1794C19.2794 22.7346 19.382 22.6704 19.4881 22.606C19.5538 22.5665 19.6183 22.5258 19.6831 22.4863C19.6901 22.59 19.6952 22.6936 19.6996 22.7972Z" fill="#FF0044"/>
<path d="M23.5492 19.5419C23.6409 20.6282 23.6249 21.7202 23.5234 22.7972H19.9199C19.9538 22.6264 19.9819 22.4557 20.0078 22.2858C21.0409 21.6374 21.9513 20.9825 22.7285 20.317C23.0201 20.0698 23.2941 19.8115 23.5492 19.5419Z" fill="#FF0044"/>
<path d="M6.00677 13.411C9.4187 14.9531 11.9639 16.7595 13.6697 18.7723C13.4478 18.9461 13.2355 19.1223 13.0325 19.3002L13.0287 19.3041L13.0248 19.3074C12.6868 19.6074 12.3757 19.926 12.0938 20.2637C10.5997 17.7972 8.54606 15.4517 6.00677 13.411Z" fill="#FF0044"/>
<path d="M15.316 17.0865C15.3883 17.2207 15.4578 17.3568 15.5248 17.4946C14.8666 17.8982 14.2613 18.3128 13.7126 18.7394C12.847 17.3529 11.7764 16.0351 10.5271 14.8277L15.316 17.0865Z" fill="#FF0044"/>
<path d="M16.4745 13.7214C16.9488 14.4222 17.4028 15.1945 17.8127 16.0159C17.7476 16.0675 17.6812 16.1188 17.6116 16.168C17.2446 16.4278 16.8786 16.6705 16.5146 16.8981C16.3254 16.4975 16.1213 16.1045 15.9049 15.7187L16.0142 15.0276C16.1018 14.4732 16.2642 14.0503 16.4745 13.7214Z" fill="#FF0044"/>
<path d="M17.8846 12.9688C18.5344 12.9688 18.6473 13.1435 18.6509 13.1484L18.6564 13.155L18.6614 13.1616C18.8625 13.412 18.9509 13.6654 18.9509 13.9818C18.9508 14.5192 18.8253 14.8689 18.6542 15.1177L18.6509 15.1227C18.6227 15.164 18.5929 15.2043 18.563 15.2446C18.0766 14.5154 17.4866 13.8652 16.8025 13.3187C17.0362 13.1068 17.3552 12.9688 17.8846 12.9688Z" fill="#FF0044"/>
<path d="M4.50604 10.6238C6.58303 10.8817 8.43778 11.4088 10.0371 12.1805C9.94262 12.4982 9.86928 12.8241 9.81793 13.1578L9.68005 14.0499C8.26894 12.8192 6.66168 11.7243 4.88892 10.816L4.50604 10.6238Z" fill="#FF0044"/>
<path d="M3.9375 7.34821C7.136 7.12681 9.96372 7.59868 12.3964 8.59625C11.9653 8.96245 11.5761 9.37405 11.233 9.83221C11.1492 9.94309 11.0688 10.0555 10.9918 10.1695C9.01722 8.75934 6.66227 7.76028 3.9375 7.34821Z" fill="#FF0044"/>
<path d="M9 1H1V9H0V0H9V1Z" fill="#FF0044"/>
<path d="M36 9L35 8.98627V1H27V0H36V9Z" fill="#FF0044"/>
<path d="M6.05017 4.73895C9.52021 5.25757 12.4861 6.04808 15.0079 7.10211C14.7105 7.20714 14.4198 7.32884 14.1367 7.46851C13.9635 7.55262 13.7945 7.64166 13.6296 7.73547C11.6655 6.57267 9.1776 5.64799 6.05017 4.73895Z" fill="#FF0044"/>
<path d="M10.5699 4.5C14.2699 4.87715 17.2639 5.62354 19.6952 6.72198C19.1858 6.63824 18.6626 6.59674 18.1274 6.59674C17.5737 6.59675 17.0339 6.63767 16.5103 6.72198C14.7609 5.90237 12.7561 5.19393 10.5699 4.5Z" fill="#FF0044"/>
</svg>
