<svg width="36" height="36" viewBox="0 0 36 36" fill="none" xmlns="http://www.w3.org/2000/svg">
<path d="M1 35H9V36H0V27H1V35Z" fill="#FF0044"/>
<path d="M36 36H27V35H35V27H36V36Z" fill="#FF0044"/>
<path d="M22.3907 28.0706C21.8239 29.7931 21.1232 31.3517 20.4291 32.625C20.9067 31.3406 21.1444 30.0416 21.219 28.7172C21.2996 28.6804 21.38 28.6431 21.4596 28.604C21.7854 28.4437 22.0956 28.2652 22.3907 28.0706Z" fill="#FF0044"/>
<path d="M19.1431 29.3813C18.6351 30.3421 18.0316 31.3306 17.3095 32.3619C17.6436 31.4489 17.9037 30.5036 18.0917 29.5389C18.4491 29.5028 18.7996 29.4502 19.1431 29.3813Z" fill="#FF0044"/>
<path d="M14.9255 29.4615C15.1528 29.4932 15.3782 29.5191 15.6017 29.54C15.3571 30.283 15.0725 31.0437 14.7448 31.8203C14.8737 31.0486 14.9329 30.2601 14.9255 29.4615Z" fill="#FF0044"/>
<path d="M25.1428 8.96539C30.7457 12.1404 34.1265 19.5439 28.9061 27.2071C29.2902 25.0331 29.1275 23.4259 28.3579 21.7112C27.8395 25.6924 27.2071 26.9938 23.3789 31.6972C24.4828 29.5438 24.9973 27.4888 24.9483 25.2944C25.5883 24.1317 25.9083 22.8261 25.9486 21.4195L25.953 21.1097C25.953 19.0128 25.3595 17.154 24.0101 15.728C22.608 14.2368 20.6509 13.617 18.4334 13.617C18.1715 13.617 17.9155 13.623 17.666 13.6351L17.6891 13.2929H25.1428V10.7023C27.4331 13.3558 28.7274 16.7943 29.5274 20.9652C29.6298 15.9227 28.0434 11.7852 25.1428 9.2005V8.96539Z" fill="#FF0044"/>
<path d="M23.4553 11.6054H16.1115L15.8412 15.6286C15.8449 15.6275 15.849 15.6264 15.8527 15.6253C16.024 15.5746 16.1941 15.5315 16.3625 15.494C16.3993 15.4858 16.4357 15.4763 16.4724 15.4688C16.4922 15.4647 16.5124 15.4622 16.5322 15.4583C16.7178 15.4218 16.9013 15.3923 17.0832 15.3721C17.4972 15.3271 17.9474 15.3045 18.4334 15.3045C18.5586 15.3045 18.6819 15.3066 18.8031 15.3111C18.9105 15.3151 19.0163 15.3211 19.1206 15.3287C19.151 15.3309 19.1811 15.3344 19.2112 15.3369C19.286 15.3431 19.36 15.3492 19.4332 15.3572C19.4765 15.362 19.5195 15.3683 19.5623 15.3737C19.6277 15.3821 19.6926 15.3902 19.7567 15.4001C19.7875 15.4048 19.818 15.4104 19.8484 15.4155C19.9188 15.4272 19.9884 15.4397 20.0572 15.4534C20.0946 15.4608 20.1317 15.469 20.1687 15.477C20.2264 15.4894 20.2836 15.5016 20.3401 15.5154C20.3875 15.527 20.4341 15.5403 20.4807 15.5528C20.5254 15.5648 20.5698 15.5767 20.6136 15.5896C20.6591 15.603 20.7041 15.617 20.7488 15.6313C20.7991 15.6475 20.8489 15.664 20.8982 15.6813C20.9344 15.6941 20.9702 15.7075 21.0059 15.7209C21.06 15.7412 21.1134 15.7622 21.1663 15.7841C21.1984 15.7973 21.2302 15.8109 21.2618 15.8247C21.3097 15.8456 21.3568 15.8674 21.4036 15.8895C21.4444 15.9089 21.4849 15.9285 21.525 15.9489C21.5635 15.9684 21.6015 15.9888 21.6392 16.0093C21.6772 16.0299 21.7152 16.0504 21.7524 16.0719C21.795 16.0965 21.8366 16.1224 21.8782 16.1483C21.9122 16.1694 21.9465 16.19 21.9798 16.212C22.0146 16.2349 22.0485 16.2591 22.0825 16.2828C22.1216 16.3101 22.1609 16.3368 22.199 16.3652C22.2282 16.387 22.2561 16.4103 22.2847 16.4328C22.326 16.4653 22.3676 16.4973 22.4077 16.5311C22.4333 16.5527 22.4579 16.5754 22.483 16.5976C22.521 16.6312 22.5593 16.6643 22.5961 16.6992C22.6179 16.7199 22.6384 16.7418 22.6599 16.7629C22.7004 16.8029 22.7416 16.8422 22.7807 16.8838C23.7707 17.9278 24.2655 19.3367 24.2655 21.1097C24.2655 22.5136 23.9506 23.7243 23.3207 24.7412C22.6997 25.7582 21.8307 26.5411 20.7147 27.0901C20.5124 27.1896 20.304 27.2794 20.0901 27.3609C20.0878 27.3618 20.0853 27.3628 20.083 27.3636C19.9702 27.4065 19.8557 27.4461 19.7397 27.4839C19.7082 27.4942 19.6769 27.5048 19.6452 27.5147C19.6128 27.5248 19.5801 27.5341 19.5474 27.5438C19.5068 27.5559 19.466 27.568 19.4249 27.5795C19.3881 27.5899 19.3511 27.5999 19.314 27.6097C19.2791 27.619 19.2442 27.6284 19.209 27.6372C19.1609 27.6493 19.1126 27.6611 19.064 27.6724C19.0379 27.6784 19.0117 27.6841 18.9855 27.6899C18.9406 27.6999 18.8956 27.7098 18.8503 27.7191C18.8173 27.7258 18.7842 27.7324 18.7509 27.7388C18.6985 27.749 18.6457 27.7587 18.5927 27.7679C18.5783 27.7705 18.5638 27.7726 18.5493 27.7751C18.486 27.7858 18.4223 27.7964 18.3582 27.8058C18.3549 27.8063 18.3516 27.807 18.3483 27.8075C17.8681 27.8778 17.3655 27.9135 16.8404 27.9135C16.4958 27.9135 16.1417 27.8953 15.778 27.8619C15.7738 27.8615 15.7696 27.8612 15.7654 27.8608C15.6681 27.8517 15.5702 27.8415 15.4715 27.83C15.4525 27.8278 15.4334 27.8257 15.4144 27.8234C15.3332 27.8137 15.2515 27.8035 15.1694 27.7921C15.1354 27.7874 15.1014 27.7823 15.0672 27.7773C14.9869 27.7656 14.9061 27.7532 14.825 27.7399C14.8193 27.739 14.8136 27.7387 14.8079 27.7377C14.6151 27.706 14.419 27.6704 14.2213 27.6301C13.3033 27.4501 12.5114 27.1394 11.8455 26.6984L12.8447 23.6744C13.1592 23.9603 13.5591 24.2114 14.0438 24.4292C14.1248 24.4656 14.2082 24.5004 14.2938 24.5352C14.3411 24.5542 14.3889 24.5739 14.4377 24.5923C14.6872 24.6867 14.9342 24.7635 15.1787 24.8225C15.2721 24.8451 15.3651 24.8645 15.4578 24.8818C15.7698 24.9404 16.0775 24.9697 16.3812 24.9697C16.4619 24.9697 16.5435 24.9675 16.6262 24.9653C16.9858 24.9558 17.3629 24.927 17.7583 24.8758C17.9911 24.8419 18.2167 24.7902 18.4356 24.7225C18.682 24.6463 18.9199 24.5494 19.1486 24.4303C19.2565 24.3719 19.3596 24.3061 19.4573 24.2331C19.7511 24.0137 19.9991 23.7283 20.2017 23.3773C20.2642 23.2703 20.319 23.155 20.3676 23.0317C20.4079 22.9292 20.4429 22.8209 20.4736 22.7071C20.5704 22.3477 20.6202 21.9325 20.6202 21.4607C20.6202 21.3173 20.6138 21.1776 20.601 21.0421C20.5965 20.994 20.5907 20.9464 20.5845 20.8993C20.571 20.7954 20.5531 20.694 20.5318 20.595C20.5216 20.5479 20.5108 20.5014 20.4988 20.4554C20.4807 20.3855 20.4606 20.3169 20.4384 20.2495C20.3497 19.9809 20.2287 19.7325 20.0753 19.504C19.9303 19.2882 19.757 19.089 19.554 18.9091C19.3361 18.7133 19.0897 18.5478 18.8152 18.412C18.6918 18.3509 18.5628 18.2956 18.4279 18.2466C17.8839 18.0493 17.2466 17.9506 16.5163 17.9506C16.0124 17.9506 15.4995 17.9999 14.9777 18.0989C14.4647 18.1889 14.0008 18.3017 13.5868 18.4367C13.3244 18.5223 13.1078 18.6056 12.9359 18.6839C12.8365 18.729 12.7518 18.7718 12.6826 18.8146L13.0336 8.74347H23.4553V11.6054Z" fill="#FF0044"/>
<path d="M16.3103 19.6425C16.6007 20.7651 16.7453 21.9775 16.7311 23.2734C16.6107 23.2789 16.4941 23.2828 16.3812 23.2828C15.9801 23.2827 15.5345 23.2032 15.0348 23.0142L14.8453 22.9389C14.4249 22.7622 14.1515 22.5822 13.9796 22.4258L12.6304 21.1992C12.5807 21.1075 12.5301 21.016 12.4788 20.9246L13.5709 20.2495C13.5779 20.2456 13.6166 20.2243 13.701 20.189C13.7988 20.1482 13.9333 20.0984 14.1103 20.0407C14.4355 19.9347 14.8198 19.8399 15.2688 19.7611L15.2919 19.7567C15.6421 19.6903 15.9814 19.6535 16.3103 19.6425Z" fill="#FF0044"/>
<path d="M17.6017 19.7562C17.9927 19.856 18.2513 20.0076 18.4257 20.1643L18.4345 20.172C18.7358 20.439 18.9327 20.8042 18.9327 21.4607C18.9327 22.0881 18.8201 22.3974 18.7454 22.5253L18.7399 22.5341C18.6115 22.7566 18.479 22.8717 18.3499 22.9427C18.3274 22.9542 18.3046 22.9649 18.2818 22.9757C18.1399 21.8872 17.9131 20.8085 17.6017 19.7562Z" fill="#FF0044"/>
<path d="M6.00677 13.411C7.98808 14.3065 9.67694 15.2914 11.0792 16.3537L11.0001 18.6185C9.64995 16.7568 7.97436 14.9923 6.00677 13.411Z" fill="#FF0044"/>
<path d="M4.50604 10.6238C7.10887 10.947 9.36354 11.6914 11.2028 12.8123L11.1121 15.4144C9.39323 13.6229 7.29322 12.0478 4.88892 10.816L4.50604 10.6238Z" fill="#FF0044"/>
<path d="M3.9375 7.34821C6.69327 7.15745 9.17337 7.4826 11.3632 8.21393L11.2874 10.3848C9.25374 8.86061 6.79935 7.78101 3.9375 7.34821Z" fill="#FF0044"/>
<path d="M9 1H1V9H0V0H9V1Z" fill="#FF0044"/>
<path d="M36 9H35V1H27V0H36V9Z" fill="#FF0044"/>
<path d="M6.05017 4.73895C9.46987 5.25004 12.4001 6.0248 14.898 7.05597H12.3695C10.6304 6.19869 8.54359 5.4637 6.05017 4.73895Z" fill="#FF0044"/>
<path d="M10.5699 4.5C14.6332 4.91418 17.8449 5.77368 20.395 7.05597H17.1953C15.2916 6.09143 13.0473 5.28636 10.5699 4.5Z" fill="#FF0044"/>
</svg>
