<svg width="64" height="64" viewBox="0 0 64 64" fill="none" xmlns="http://www.w3.org/2000/svg">
<path d="M4 60H16V64H0V48H4V60Z" fill="#FF0044"/>
<path d="M64 64H48V60H60V48H64V64Z" fill="#FF0044"/>
<path d="M39.0625 52C38.2153 54.2329 37.2639 56.2655 36.3184 58C37.0533 56.0235 37.4696 54.0277 37.6543 52H39.0625Z" fill="#FF0044"/>
<path d="M34.1553 52C33.2272 53.7815 32.1147 55.6152 30.7725 57.5322C31.4256 55.7476 31.9175 53.8931 32.2568 52H34.1553Z" fill="#FF0044"/>
<path d="M27.9033 52C27.4331 53.4841 26.8717 55.0086 26.2129 56.5693C26.4623 55.0765 26.5654 53.5484 26.5283 52H27.9033Z" fill="#FF0044"/>
<path d="M44.9863 52C44.0401 53.268 42.9137 54.6904 41.5625 56.3506C42.3149 54.8829 42.9111 53.4401 43.3584 52H44.9863Z" fill="#FF0044"/>
<path d="M43.2588 15.1875C54.0563 20.3372 61.1086 34.0998 51.3887 48.3682C52.0714 44.5034 51.7823 41.646 50.4141 38.5977C49.7551 43.6581 48.9915 46.2824 46.123 50.4238V40.5283H43.8486C43.4697 38.6188 42.8817 36.6234 42.0869 34.501C43.0574 33.4351 43.8673 32.2738 44.4922 31.0107C45.4276 29.1201 45.8736 27.0021 45.9258 24.7354L45.9307 24.2803C45.9307 22.57 45.6522 20.9428 45.0508 19.4463C48.9029 24.1047 51.1126 30.0742 52.4932 37.2715C52.6915 27.5044 49.3277 19.6448 43.2588 15.1875Z" fill="#FF0044"/>
<path d="M32.2266 14.7285C33.034 14.7285 33.8111 14.7915 34.5576 14.916L34.5566 14.915C34.5785 14.9187 34.6003 14.923 34.6221 14.9268C34.7153 14.9428 34.8081 14.9595 34.9004 14.9775C34.9284 14.983 34.9564 14.9885 34.9844 14.9941C35.2393 15.0457 35.4907 15.1044 35.7383 15.1709C35.7582 15.1762 35.778 15.1821 35.7979 15.1875C35.9039 15.2166 36.0095 15.2465 36.1143 15.2783C36.143 15.2871 36.1715 15.2967 36.2002 15.3057C36.2918 15.3343 36.383 15.3638 36.4736 15.3945C36.5088 15.4065 36.544 15.4184 36.5791 15.4307C36.6719 15.4632 36.7638 15.4975 36.8555 15.5322C36.8727 15.5388 36.89 15.5451 36.9072 15.5518C37.0088 15.5908 37.1098 15.631 37.21 15.6729C37.2343 15.683 37.2589 15.6928 37.2832 15.7031C37.3987 15.7523 37.5133 15.8036 37.627 15.8564L37.9258 15.998C38.0437 16.0564 38.1592 16.1175 38.2734 16.1797C38.3462 16.2193 38.4189 16.2586 38.4902 16.2998C38.5126 16.3127 38.5344 16.3267 38.5566 16.3398C38.6233 16.379 38.6896 16.4184 38.7549 16.459C38.792 16.482 38.8286 16.5058 38.8652 16.5293C38.9117 16.5591 38.9581 16.5887 39.0039 16.6191C39.0578 16.655 39.1111 16.6916 39.1641 16.7285C39.1936 16.7491 39.2227 16.7701 39.252 16.791C39.2947 16.8215 39.3368 16.8526 39.3789 16.8838C39.4251 16.918 39.4712 16.9523 39.5166 16.9873C39.5504 17.0134 39.5838 17.0399 39.6172 17.0664C39.6628 17.1026 39.7081 17.1388 39.7529 17.1758C39.7889 17.2055 39.8248 17.2354 39.8604 17.2656C39.9032 17.3022 39.9452 17.3397 39.9873 17.377C40.0213 17.4071 40.0553 17.4371 40.0889 17.4678C40.1277 17.5032 40.166 17.5391 40.2041 17.5752C40.2461 17.6149 40.2879 17.6548 40.3291 17.6953C40.3521 17.7179 40.3747 17.7408 40.3975 17.7637C40.4434 17.8099 40.4893 17.8561 40.5342 17.9033C40.5781 17.9495 40.621 17.9967 40.6641 18.0439C40.6833 18.0651 40.7026 18.0861 40.7217 18.1074C40.7679 18.1592 40.8133 18.2117 40.8584 18.2646C40.8836 18.2942 40.9088 18.3236 40.9336 18.3535C41.13 18.5898 41.3165 18.8366 41.4912 19.0957L41.665 19.3662C41.7737 19.5427 41.8751 19.7238 41.9697 19.9092C41.9954 19.9594 42.0193 20.0106 42.0439 20.0615C42.0625 20.0999 42.0816 20.138 42.0996 20.1768C42.1239 20.229 42.1467 20.282 42.1699 20.335C42.1922 20.3859 42.215 20.4367 42.2363 20.4883C42.2469 20.5139 42.2572 20.5397 42.2676 20.5654C42.2971 20.6388 42.326 20.7125 42.3535 20.7871C42.364 20.8156 42.3736 20.8444 42.3838 20.873C42.4075 20.9397 42.4309 21.0066 42.4531 21.0742C42.4714 21.1298 42.4886 21.1859 42.5059 21.2422C42.5192 21.2859 42.5322 21.3299 42.5449 21.374C42.5598 21.4256 42.5748 21.4772 42.5889 21.5293C42.603 21.5817 42.6157 21.6346 42.6289 21.6875C42.6437 21.7468 42.6582 21.8063 42.6719 21.8662C42.6823 21.912 42.6933 21.9577 42.7031 22.0039C42.7162 22.0654 42.7283 22.1273 42.7402 22.1895C42.7507 22.2438 42.7599 22.2986 42.7695 22.3535C42.7799 22.4128 42.7905 22.4723 42.7998 22.5322C42.8069 22.5776 42.8138 22.6232 42.8203 22.6689C42.8293 22.7324 42.8378 22.7962 42.8457 22.8604C42.8499 22.8944 42.8535 22.9286 42.8574 22.9629C42.8657 23.0364 42.874 23.1102 42.8809 23.1846C42.887 23.2506 42.8915 23.317 42.8965 23.3838C42.9006 23.4389 42.9049 23.4942 42.9082 23.5498C42.9106 23.5894 42.9131 23.6291 42.915 23.6689C42.9235 23.8392 42.9284 24.0117 42.9297 24.1865C42.9299 24.2177 42.9307 24.2489 42.9307 24.2803L42.9268 24.667C42.9223 24.8589 42.9134 25.0483 42.9023 25.2354C42.8969 25.3284 42.8909 25.4209 42.8838 25.5127C42.8595 25.8245 42.8254 26.1291 42.7822 26.4268C42.7722 26.4962 42.7611 26.5651 42.75 26.6338C42.7423 26.6815 42.7348 26.729 42.7266 26.7764C42.7157 26.8389 42.7041 26.901 42.6924 26.9629C42.6847 27.0037 42.677 27.0444 42.6689 27.085C42.6565 27.1474 42.6442 27.2097 42.6309 27.2715C42.6222 27.3116 42.6136 27.3517 42.6045 27.3916C42.5865 27.4707 42.5663 27.5489 42.5469 27.627C42.5407 27.6517 42.5356 27.6766 42.5293 27.7012C42.5096 27.7779 42.4889 27.854 42.4678 27.9297C42.4552 27.9745 42.4418 28.019 42.4287 28.0635C42.4146 28.1114 42.4014 28.1595 42.3867 28.207C42.371 28.2578 42.3543 28.3081 42.3379 28.3584C42.3166 28.4239 42.2949 28.4891 42.2725 28.5537C42.2679 28.5668 42.2634 28.5798 42.2588 28.5928C42.1262 28.9696 41.9747 29.3321 41.8027 29.6797C41.0507 31.1997 39.9388 32.584 38.4668 33.832C38.2733 33.9979 38.0735 34.1637 37.8682 34.3301C37.8467 34.3474 37.8243 34.3635 37.8027 34.3809C36.662 35.3 35.3413 36.2287 33.8389 37.165C33.5943 37.3178 33.3451 37.4711 33.0908 37.624C32.8703 37.7577 32.6554 37.8901 32.4463 38.0215C31.2999 38.7412 30.325 39.4259 29.5195 40.0732C29.4697 40.1135 29.4197 40.1525 29.3711 40.1924C29.3112 40.2413 29.2525 40.2913 29.1953 40.3428C28.8512 40.6523 28.5558 41.0082 28.3086 41.4102C28.2262 41.5441 28.1488 41.683 28.0771 41.8271C27.8267 42.3314 27.6414 42.8986 27.5225 43.5283H43.123V49H21.5713C21.4753 48.488 21.3951 47.9759 21.3311 47.4639C21.2671 46.9359 21.2354 46.3276 21.2354 45.6396C21.2354 43.6078 21.5628 41.8716 22.2188 40.4316C22.4663 39.9013 22.755 39.3915 23.085 38.9023C23.1854 38.7535 23.2903 38.606 23.3984 38.4609C23.4282 38.4209 23.4589 38.3815 23.4893 38.3418C23.5312 38.287 23.5731 38.232 23.6162 38.1777C23.6328 38.1569 23.6493 38.136 23.666 38.1152C23.8855 37.8427 24.1186 37.5768 24.3662 37.3184C24.4222 37.2598 24.4796 37.2023 24.5371 37.1445C24.5664 37.115 24.5953 37.085 24.625 37.0557C24.6536 37.0274 24.6829 36.9998 24.7119 36.9717C24.8528 36.8353 24.9974 36.7007 25.1465 36.5684C25.291 36.4417 25.4389 36.3148 25.5908 36.1885C25.6445 36.1439 25.6993 36.1002 25.7539 36.0557C25.8637 35.966 25.9754 35.8765 26.0889 35.7871C26.1442 35.7435 26.1997 35.6998 26.2559 35.6562C26.3723 35.5661 26.4911 35.4767 26.6113 35.3867C26.6678 35.3444 26.7239 35.301 26.7812 35.2588C26.9357 35.145 27.0934 35.0315 27.2539 34.918C27.3499 34.8501 27.4478 34.7836 27.5459 34.7158C27.6446 34.6477 27.7438 34.5787 27.8447 34.5107C27.904 34.4708 27.9634 34.4305 28.0234 34.3906C28.1588 34.3006 28.2963 34.2109 28.4355 34.1211C28.5041 34.0769 28.5731 34.0325 28.6426 33.9883C28.6682 33.972 28.694 33.9557 28.7197 33.9395C29.1066 33.6949 29.5073 33.451 29.9229 33.208C30.4272 32.9131 30.9312 32.6023 31.4355 32.2773C31.7112 32.1001 31.9872 31.9189 32.2627 31.7324L32.9219 31.2754C32.9619 31.2473 33.003 31.2207 33.043 31.1924C33.5779 30.8138 34.065 30.3978 34.5068 29.9473C34.9239 29.5219 35.3007 29.0656 35.6348 28.5762C35.7031 28.4768 35.7674 28.3749 35.8291 28.2715C35.8824 28.1822 35.9331 28.0914 35.9814 27.999C36.0325 27.9015 36.0805 27.8021 36.126 27.7012C36.3694 27.1615 36.5343 26.5739 36.6201 25.9375C36.6554 25.6755 36.6779 25.4054 36.6865 25.127L36.6904 24.8564C36.6904 24.2324 36.5924 23.6422 36.3965 23.0859C36.2953 22.7989 36.1681 22.5209 36.0146 22.252C35.9451 22.13 35.8703 22.0098 35.79 21.8916C35.7045 21.7657 35.6124 21.6422 35.5146 21.5205C34.7466 20.5445 33.5069 20.0557 31.7949 20.0557C31.6274 20.0557 31.463 20.062 31.3018 20.0723C29.8738 20.163 28.6917 20.6553 27.7549 21.5498C27.6758 21.6252 27.598 21.703 27.5225 21.7842C27.4437 21.8701 27.3674 21.9582 27.293 22.0479C26.9587 22.4502 26.6681 22.8905 26.4199 23.3682C26.2506 23.6944 26.101 24.0381 25.9717 24.3994C25.7668 24.9717 25.6111 25.5877 25.5068 26.248L20.4189 23.8477C20.4352 23.7419 20.4532 23.6368 20.4727 23.5322C20.4857 23.4619 20.5002 23.392 20.5146 23.3223C20.7638 22.1229 21.2236 21.0011 21.8955 19.957C21.9107 19.9334 21.9269 19.9103 21.9424 19.8867C21.9919 19.811 22.0429 19.736 22.0947 19.6611C22.1095 19.6398 22.1237 19.618 22.1387 19.5967C22.2114 19.4931 22.2862 19.3901 22.3633 19.2881C22.4517 19.1697 22.5427 19.0536 22.6357 18.9395C22.6502 18.9217 22.6651 18.9044 22.6797 18.8867C22.8598 18.6686 23.0479 18.4576 23.2451 18.2549C23.2527 18.2471 23.26 18.2392 23.2676 18.2314L23.4316 18.0674C23.5933 17.9093 23.76 17.7557 23.9326 17.6074C23.9622 17.582 23.9935 17.5584 24.0234 17.5332C24.1032 17.4662 24.1836 17.3999 24.2656 17.335C24.2939 17.3125 24.322 17.2898 24.3506 17.2676C24.982 16.7777 25.6797 16.3465 26.4434 15.9756C26.6473 15.8746 26.8551 15.7801 27.0664 15.6914C27.0687 15.6904 27.071 15.6894 27.0732 15.6885C27.2107 15.6309 27.3497 15.5759 27.4902 15.5234C27.5223 15.5115 27.5547 15.5 27.5869 15.4883C27.7123 15.4428 27.839 15.3998 27.9668 15.3584C27.9879 15.3516 28.0091 15.3446 28.0303 15.3379C28.1803 15.2902 28.332 15.2452 28.4854 15.2031C28.5051 15.1977 28.5251 15.1928 28.5449 15.1875C28.6673 15.1546 28.7906 15.1231 28.915 15.0938C28.9641 15.0822 29.0132 15.0706 29.0625 15.0596C29.364 14.9923 29.6716 14.9354 29.9854 14.8887C30.0185 14.8837 30.0517 14.8787 30.085 14.874C30.2295 14.8536 30.3753 14.8345 30.5225 14.8184C30.5407 14.8164 30.5589 14.8144 30.5771 14.8125C31.1101 14.7561 31.6599 14.7285 32.2266 14.7285Z" fill="#FF0044"/>
<path d="M35.0215 40.5283H34.0967C34.2745 40.4171 34.4569 40.3029 34.6455 40.1885C34.7623 40.1182 34.877 40.0459 34.9922 39.9756C35.0046 40.16 35.0136 40.3443 35.0215 40.5283Z" fill="#FF0044"/>
<path d="M41.8652 34.7412C42.0283 36.6724 41.9999 38.6137 41.8193 40.5283H35.4131C35.4735 40.2247 35.5233 39.9212 35.5693 39.6191C37.4061 38.4666 39.0246 37.3021 40.4062 36.1191L40.4072 36.1201C40.9256 35.6806 41.4117 35.2205 41.8652 34.7412Z" fill="#FF0044"/>
<path d="M10.6787 23.8418C16.7444 26.5833 21.2691 29.7946 24.3018 33.373C23.9071 33.682 23.5298 33.9953 23.1689 34.3115L23.1621 34.3184L23.1553 34.3242C22.5543 34.8576 22.0012 35.4241 21.5 36.0244C18.8439 31.6395 15.193 27.4697 10.6787 23.8418Z" fill="#FF0044"/>
<path d="M27.2285 30.376C27.357 30.6146 27.4806 30.8564 27.5996 31.1016C26.4295 31.819 25.3534 32.556 24.3779 33.3145C22.839 30.8496 20.9358 28.5069 18.7148 26.3604L27.2285 30.376Z" fill="#FF0044"/>
<path d="M29.2881 24.3936C30.1313 25.6395 30.9382 27.0125 31.667 28.4727C31.5514 28.5644 31.4332 28.6557 31.3096 28.7432C30.657 29.2049 30.0064 29.6365 29.3594 30.041C29.023 29.3288 28.6601 28.6302 28.2754 27.9443L28.4697 26.7158C28.6254 25.7301 28.9141 24.9782 29.2881 24.3936Z" fill="#FF0044"/>
<path d="M31.7949 23.0557C32.95 23.0557 33.1508 23.3661 33.1572 23.375L33.167 23.3867L33.1758 23.3984C33.5333 23.8436 33.6904 24.294 33.6904 24.8564C33.6904 25.8119 33.4671 26.4335 33.1631 26.876L33.1572 26.8848C33.1071 26.9583 33.054 27.0298 33.001 27.1016C32.1362 25.8051 31.0874 24.6492 29.8711 23.6777C30.2865 23.3009 30.8537 23.0557 31.7949 23.0557Z" fill="#FF0044"/>
<path d="M8.01074 18.8867C11.7032 19.3452 15.0005 20.2824 17.8438 21.6543C17.6758 22.2191 17.5454 22.7983 17.4541 23.3916L17.209 24.9775C14.7003 22.7897 11.843 20.8431 8.69141 19.2285L8.01074 18.8867Z" fill="#FF0044"/>
<path d="M7 13.0635C12.6862 12.6699 17.7133 13.5088 22.0381 15.2822C21.2716 15.9333 20.5798 16.665 19.9697 17.4795C19.8207 17.6766 19.6779 17.8765 19.541 18.0791C16.0306 15.5722 11.844 13.7961 7 13.0635Z" fill="#FF0044"/>
<path d="M16 4H4V16H0V0H16V4Z" fill="#FF0044"/>
<path d="M64 16H60V4H48V0H64V16Z" fill="#FF0044"/>
<path d="M10.7559 8.4248C16.9248 9.34679 22.1975 10.7521 26.6807 12.626C26.152 12.8127 25.6353 13.0291 25.1318 13.2773C24.824 13.4269 24.5235 13.5852 24.2305 13.752C20.7387 11.6847 16.3157 10.0409 10.7559 8.4248Z" fill="#FF0044"/>
<path d="M18.791 8C25.3688 8.67049 30.6914 9.9974 35.0137 11.9502C34.1081 11.8013 33.178 11.7275 32.2266 11.7275C31.2421 11.7276 30.2824 11.8003 29.3516 11.9502C26.2416 10.4931 22.6775 9.23366 18.791 8Z" fill="#FF0044"/>
</svg>
