<svg width="64" height="64" viewBox="0 0 64 64" fill="none" xmlns="http://www.w3.org/2000/svg">
<path d="M4 60H16V64H0V48H4V60Z" fill="#FF0044"/>
<path d="M64 64H48V60H60V48H64V64Z" fill="#FF0044"/>
<path d="M39.5684 50.6055C38.6057 53.3892 37.4573 55.9107 36.3184 58C37.1158 55.8557 37.535 53.6884 37.6934 51.4824C37.8622 51.4166 38.0305 51.3496 38.1973 51.2783L38.208 51.2734C38.6776 51.0705 39.1307 50.8469 39.5684 50.6055Z" fill="#FF0044"/>
<path d="M33.8945 52.4883C33.0201 54.1159 31.9922 55.7903 30.7725 57.5322C31.3476 55.9608 31.7973 54.335 32.1289 52.6768C32.7264 52.6396 33.3149 52.5764 33.8945 52.4883Z" fill="#FF0044"/>
<path d="M26.5332 52.3438C26.9307 52.4152 27.3302 52.4785 27.7324 52.5293C27.2985 53.8458 26.7936 55.1936 26.2129 56.5693C26.4438 55.187 26.5483 53.7745 26.5332 52.3438Z" fill="#FF0044"/>
<path d="M43.2588 15.1875C54.0563 20.3372 61.1086 34.0998 51.3887 48.3682C52.0714 44.5034 51.7823 41.646 50.4141 38.5977C49.4924 45.6754 48.3681 47.989 41.5625 56.3506C43.3115 52.9388 44.2284 49.6657 44.3457 46.2324C45.5251 44.4042 46.1246 42.3285 46.2012 40.0908L46.21 39.5918C46.2099 37.8557 45.8768 36.1821 45.2012 34.5986C44.6227 33.2427 43.8052 32.0538 42.7471 31.0703C43.4696 30.1225 44.043 29.0745 44.4639 27.9365C44.9469 26.6304 45.2236 25.2852 45.2852 23.9111L45.2979 23.3203C45.2979 21.6484 45.0024 20.0892 44.3984 18.6855C48.6575 23.4479 51.0363 29.6766 52.4932 37.2715C52.6915 27.5044 49.3277 19.6448 43.2588 15.1875Z" fill="#FF0044"/>
<path d="M31.4502 14.7285C32.6121 14.7285 33.69 14.8227 34.6846 15.0078C34.6832 15.0069 34.682 15.0058 34.6807 15.0049C34.7196 15.0121 34.7582 15.0198 34.7969 15.0273C34.8535 15.0383 34.9098 15.0499 34.9658 15.0615C35.1099 15.0914 35.2521 15.1234 35.3926 15.1572C35.4069 15.1607 35.4212 15.1645 35.4355 15.168C35.5687 15.2006 35.7002 15.2353 35.8301 15.2715C35.8705 15.2827 35.9111 15.2931 35.9512 15.3047C36.0848 15.3434 36.2166 15.3841 36.3467 15.4268C36.3955 15.4428 36.4438 15.46 36.4922 15.4766C36.5899 15.51 36.6866 15.5444 36.7822 15.5801C36.8203 15.5943 36.8587 15.6075 36.8965 15.6221C37.022 15.6705 37.1456 15.7211 37.2676 15.7734C37.308 15.7908 37.3477 15.8094 37.3877 15.8271C37.4902 15.8727 37.5915 15.9194 37.6914 15.9678C37.7124 15.9779 37.734 15.9868 37.7549 15.9971L37.7979 16.0186C37.9126 16.0757 38.0254 16.1353 38.1367 16.1963C38.1722 16.2157 38.2071 16.236 38.2422 16.2559C38.3435 16.313 38.4436 16.3713 38.542 16.4316C38.5576 16.4412 38.5734 16.4503 38.5889 16.46C38.7027 16.5307 38.8139 16.6046 38.9238 16.6797C38.9548 16.7008 38.9859 16.7217 39.0166 16.7432C39.1283 16.8214 39.2382 16.9015 39.3457 16.9844L39.7031 17.2705C41.0869 18.445 41.9176 19.9702 42.1943 21.8467C42.2636 22.3159 42.2979 22.8072 42.2979 23.3203L42.2881 23.7744C42.2819 23.9121 42.2725 24.0494 42.2607 24.1865C42.2563 24.2381 42.2493 24.2894 42.2441 24.3408C42.2344 24.4367 42.2244 24.5324 42.2119 24.6279C42.2061 24.6726 42.1998 24.7171 42.1934 24.7617C42.1799 24.855 42.1655 24.9481 42.1494 25.041C42.1397 25.0971 42.1298 25.153 42.1191 25.209C42.1031 25.2931 42.0855 25.377 42.0674 25.4609C42.0522 25.5313 42.0363 25.6016 42.0195 25.6719C42.0044 25.7352 41.988 25.7982 41.9717 25.8613C41.9533 25.9326 41.935 26.0041 41.915 26.0752C41.8954 26.145 41.8747 26.2146 41.8535 26.2842C41.8322 26.3545 41.811 26.425 41.7881 26.4951C41.7761 26.532 41.7634 26.5687 41.751 26.6055C41.7182 26.7023 41.6861 26.8 41.6504 26.8965C41.5964 27.0424 41.5387 27.1858 41.4785 27.3271C41.4231 27.4574 41.3645 27.5855 41.3037 27.7119C41.2771 27.7673 41.2483 27.8214 41.2207 27.876C41.1832 27.9501 41.1458 28.0239 41.1064 28.0967C41.0732 28.1582 41.0385 28.2187 41.0039 28.2793C40.9706 28.3376 40.9369 28.3957 40.9023 28.4531C40.8672 28.5116 40.8314 28.5694 40.7949 28.627C40.7497 28.6983 40.7035 28.7689 40.6562 28.8389C40.6221 28.8895 40.587 28.9394 40.5518 28.9893C40.5137 29.0432 40.4748 29.0964 40.4355 29.1494C40.3898 29.2113 40.3443 29.2733 40.2969 29.334C40.2557 29.3867 40.2133 29.4384 40.1709 29.4902C40.1264 29.5446 40.082 29.599 40.0361 29.6523C39.956 29.7455 39.8743 29.8375 39.79 29.9277C39.7778 29.9409 39.7663 29.9547 39.7539 29.9678C38.922 30.8317 37.9143 31.4157 36.7305 31.7197C36.8152 31.7197 36.8992 31.7217 36.9824 31.7246C37.3993 31.7393 37.7968 31.7899 38.1748 31.8779C38.3264 31.9132 38.4748 31.9548 38.6201 32.002C38.7651 32.049 38.9072 32.1014 39.0459 32.1602C39.4621 32.3364 39.85 32.5657 40.21 32.8477C40.2849 32.9054 40.3585 32.965 40.4307 33.0254C40.448 33.0399 40.4652 33.0546 40.4824 33.0693C40.5418 33.12 40.5997 33.1721 40.6572 33.2246C40.6695 33.2358 40.6822 33.2465 40.6943 33.2578C41.4356 33.944 42.0187 34.7835 42.4424 35.7764C42.9542 36.9762 43.2099 38.248 43.21 39.5918C43.21 41.7038 42.6502 43.5201 41.5303 45.04C40.4103 46.544 38.9065 47.7045 37.0186 48.5205C35.1466 49.3205 33.0662 49.7197 30.7783 49.7197C28.9543 49.7197 27.194 49.4959 25.498 49.0479C23.8021 48.5999 22.2824 47.8955 20.9385 46.9355L22.9541 41.4639C23.8627 42.3406 24.9698 43.0269 26.2754 43.5225C26.2803 43.5243 26.2851 43.5265 26.29 43.5283L26.7803 43.6963C27.1999 43.8313 27.6175 43.939 28.0322 44.0244C28.1715 44.0529 28.3105 44.0786 28.4492 44.1016C28.6088 44.1281 28.7679 44.1507 28.9268 44.1699C29.1433 44.1959 29.359 44.2161 29.5742 44.2285C29.7684 44.2397 29.9612 44.248 30.1543 44.248C31.1499 44.248 32.0226 44.1375 32.7734 43.9199C33.0959 43.8265 33.3954 43.7124 33.6729 43.5791C34.0588 43.3932 34.4017 43.1699 34.7002 42.9062C34.7712 42.8436 34.8402 42.779 34.9062 42.7119C34.9193 42.6989 34.9315 42.685 34.9443 42.6719C35.7305 41.8705 36.2062 40.9148 36.373 39.8037C36.3806 39.7535 36.3883 39.7032 36.3945 39.6523C36.397 39.6323 36.3981 39.612 36.4004 39.5918C36.4165 39.4493 36.4293 39.3046 36.4355 39.1572L36.4414 38.8721C36.4414 38.7491 36.4374 38.629 36.4316 38.5117C36.4308 38.4944 36.4307 38.4771 36.4297 38.46C36.3798 37.5835 36.1668 36.8663 35.791 36.3076L35.79 36.3057C35.697 36.1677 35.5953 36.0385 35.4824 35.9199C35.1041 35.5028 34.6513 35.1665 34.126 34.9082L34.127 34.9092C34.0599 34.8761 33.9913 34.845 33.9219 34.8145C33.6377 34.69 33.3341 34.585 33.0098 34.5039C31.9859 34.248 30.8896 34.1201 29.7217 34.1201H27.1777V29.3682H29.7695L30.1328 29.3623C31.6576 29.3143 32.8526 28.9566 33.7207 28.293C33.8689 28.1797 34.0087 28.059 34.1377 27.9277C34.4048 27.6562 34.6334 27.3653 34.8262 27.0566C35.051 26.6966 35.2258 26.312 35.3496 25.9014C35.3659 25.8474 35.382 25.7931 35.3965 25.7383C35.4224 25.6404 35.4445 25.541 35.4648 25.4404C35.4772 25.3793 35.4897 25.318 35.5 25.2559C35.5052 25.2248 35.509 25.1934 35.5137 25.1621C35.5231 25.0988 35.5318 25.0351 35.5391 24.9707C35.544 24.9267 35.5487 24.8824 35.5527 24.8379C35.5613 24.743 35.5682 24.647 35.5723 24.5498L35.5781 24.2803C35.5781 24.2626 35.5773 24.2451 35.5771 24.2275C35.5684 22.9158 35.2309 21.9616 34.5654 21.3623C34.4916 21.2958 34.4149 21.2325 34.333 21.1748L34.1621 21.0645C33.8963 20.9023 33.5995 20.7629 33.2715 20.6465C33.1455 20.6017 33.015 20.5605 32.8799 20.5225C32.4112 20.3907 31.8874 20.2999 31.3086 20.249C30.9455 20.2171 30.5608 20.2002 30.1543 20.2002C29.5304 20.2002 28.7783 20.3122 27.8984 20.5361C27.0344 20.7601 26.1697 21.0885 25.3057 21.5205C24.442 21.9524 23.7223 22.4882 23.1465 23.1279L20.7461 18.04C20.8347 17.9629 20.9264 17.8862 21.0215 17.8105C21.0446 17.7922 21.0683 17.7742 21.0918 17.7559C21.1415 17.7172 21.1937 17.6809 21.2451 17.6426C21.3194 17.5874 21.3948 17.5319 21.4727 17.4775C21.5398 17.4306 21.6079 17.3833 21.6777 17.3369C21.7438 17.2931 21.8114 17.2502 21.8799 17.207C21.9549 17.1596 22.0305 17.1112 22.1084 17.0645C22.1778 17.0228 22.2496 16.9835 22.3213 16.9424C22.6625 16.7466 23.0291 16.5566 23.4219 16.373C23.4366 16.3662 23.451 16.3584 23.4658 16.3516C23.9246 16.1387 24.4178 15.9328 24.9463 15.7363C25.8824 15.3915 26.9091 15.1357 28.0264 14.9678C28.0805 14.9596 28.1349 14.9511 28.1895 14.9434C28.321 14.9247 28.4539 14.9078 28.5879 14.8916C28.6243 14.8872 28.6607 14.8822 28.6973 14.8779C29.0268 14.8399 29.3637 14.8097 29.708 14.7861C29.798 14.7799 29.8885 14.7737 29.9795 14.7686C30.0627 14.7638 30.1464 14.7607 30.2305 14.7568C30.3221 14.7526 30.4142 14.7474 30.5068 14.7441C30.583 14.7415 30.6595 14.7403 30.7363 14.7383C30.8383 14.7356 30.9408 14.732 31.0439 14.7305L31.0459 14.7314C31.1796 14.7295 31.3145 14.7285 31.4502 14.7285Z" fill="#FF0044"/>
<path d="M10.6787 23.8418C16.6618 26.546 21.1462 29.7068 24.1777 33.2266V37.1201H29.4492C29.6527 38.4324 29.7538 39.8045 29.7451 41.2344C28.9932 41.1907 28.1958 41.0278 27.3447 40.7188C26.3761 40.3517 25.6247 39.8717 25.0371 39.3047L21.7285 36.1123L21.6611 36.293C18.9924 31.8098 15.2851 27.5437 10.6787 23.8418Z" fill="#FF0044"/>
<path d="M32.2822 37.4141C32.8115 37.5464 33.0871 37.7452 33.2598 37.9355L33.2842 37.9629L33.2998 37.9795C33.2583 37.9296 33.4414 38.0819 33.4414 38.8721C33.4414 39.6659 33.2088 40.1662 32.7842 40.5908L32.7676 40.6074C32.7112 40.6647 32.6241 40.7344 32.4961 40.8086C32.3422 39.6375 32.1327 38.473 31.8682 37.3213C32.009 37.3495 32.147 37.3803 32.2822 37.4141Z" fill="#FF0044"/>
<path d="M8.01074 18.8867C12.4752 19.4411 16.3618 20.6952 19.5664 22.5723L22.3574 28.4883L24.1777 26.4658V33C20.6608 27.5017 15.3287 22.6289 8.69141 19.2285L8.01074 18.8867Z" fill="#FF0044"/>
<path d="M24.3525 26.3682H24.2656L24.3076 26.3203C24.3226 26.3363 24.3376 26.3522 24.3525 26.3682Z" fill="#FF0044"/>
<path d="M28.623 23.4473C29.2724 24.3366 29.9085 25.3037 30.5107 26.333C30.2943 26.3544 30.0486 26.3682 29.7695 26.3682H27.332C26.9335 25.7427 26.5144 25.131 26.0732 24.5352C26.2435 24.4203 26.4343 24.3097 26.6475 24.2031C27.166 23.9439 27.671 23.7382 28.1631 23.5811L28.623 23.4473Z" fill="#FF0044"/>
<path d="M30.1543 23.2002C31.4699 23.2002 32.1725 23.4078 32.5029 23.5732C32.5337 23.6819 32.5781 23.9024 32.5781 24.2803C32.5781 24.9854 32.3787 25.4227 32.0264 25.793C31.2449 24.8543 30.3535 24.0117 29.3604 23.2871C29.712 23.2242 29.9724 23.2002 30.1543 23.2002Z" fill="#FF0044"/>
<path d="M7 13.0635C11.9489 12.7209 16.3984 13.3124 20.3203 14.6406C19.7619 14.9907 19.2448 15.3685 18.7754 15.7773L17.5938 16.8057C14.5126 14.9704 10.9779 13.6651 7 13.0635Z" fill="#FF0044"/>
<path d="M16 4H4V16H0V0H16V4Z" fill="#FF0044"/>
<path d="M64 16H60V4H48V0H64V16Z" fill="#FF0044"/>
<path d="M10.7559 8.4248C16.5824 9.29561 21.6092 10.5979 25.9268 12.3184C25.2303 12.4828 24.5571 12.6822 23.9092 12.9209L23.9004 12.9238C23.6728 13.0084 23.4487 13.0962 23.2275 13.1855C19.9023 11.3799 15.7969 9.89005 10.7559 8.4248Z" fill="#FF0044"/>
<path d="M18.791 8C25.4989 8.68375 30.902 10.0487 35.2695 12.0654C34.056 11.8369 32.7785 11.7276 31.4502 11.7275C30.6408 11.7275 29.8512 11.7589 29.083 11.8242C26.0371 10.4199 22.5659 9.19824 18.791 8Z" fill="#FF0044"/>
</svg>
