<svg width="64" height="64" viewBox="0 0 64 64" fill="none" xmlns="http://www.w3.org/2000/svg">
<path d="M4 60H16V64H0V48H4V60Z" fill="white"/>
<path d="M64 64H48V60H60V48H64V64Z" fill="white"/>
<path d="M16 4H4V16H0V0H16V4Z" fill="white"/>
<path d="M64 16H60V4H48V0H64V16Z" fill="white"/>
<path d="M29.531 6C28.903 5.99984 28.3006 6.24931 27.8564 6.69354C27.4121 7.13777 27.1625 7.74037 27.1623 8.36877V19.0092C27.1645 19.3449 27.238 19.6762 27.3779 19.9812C27.3399 20.463 27.45 20.9449 27.6936 21.3622L31.8685 28.5247L23.9686 34.0684L24.578 29.206C24.6261 28.816 24.5764 28.4201 24.4335 28.054C24.2906 27.688 24.059 27.3632 23.7594 27.109L17.1315 18.9154C16.9358 18.6736 16.6943 18.4726 16.4209 18.3241C16.1476 18.1756 15.8476 18.0824 15.5383 18.0499C15.2289 18.0174 14.9162 18.0462 14.618 18.1347C14.3197 18.2231 14.0418 18.3695 13.8001 18.5654L12.8814 19.3092C12.6392 19.5049 12.438 19.7463 12.2891 20.0198C12.1403 20.2933 12.0468 20.5935 12.0141 20.9032C11.9813 21.2129 12.0098 21.526 12.0981 21.8246C12.1863 22.1232 12.3325 22.4015 12.5284 22.6436L18.5063 30.0341L17.3813 39.0277C17.3222 39.5053 17.4099 39.9895 17.6327 40.416C17.8554 40.8425 18.2027 41.1911 18.6283 41.4153L22.375 46.7622C22.4458 46.8618 22.5242 46.9558 22.6094 47.0434C22.6345 47.4693 22.7741 47.8804 23.0133 48.2335C23.2526 48.5867 23.5827 48.8686 23.9688 49.0496L33.5997 53.5524C33.9119 53.6981 34.2522 53.7738 34.5967 53.7744C34.9726 53.9491 35.3878 54.0219 35.8007 53.9857C36.2136 53.9495 36.6098 53.8055 36.9496 53.5681L45.6651 47.4745C45.9201 47.2962 46.1375 47.0695 46.3048 46.8071C46.4722 46.5448 46.5863 46.2521 46.6405 45.9456C46.6948 45.6392 46.6882 45.325 46.6211 45.0212C46.554 44.7173 46.4278 44.4296 46.2495 44.1745L45.5715 43.2057C45.2122 42.6904 44.6629 42.339 44.0447 42.2289C43.4264 42.1187 42.7897 42.2588 42.2746 42.6182L35.0341 47.6839L29.1278 44.9214L41.1872 36.4589C41.4007 36.3074 41.5875 36.1215 41.7402 35.9089C42.0682 35.8025 42.369 35.6258 42.6216 35.391C42.8743 35.1562 43.0726 34.869 43.2028 34.5495L46.9247 25.3967L55.7059 20.9122C55.9831 20.7707 56.2296 20.5759 56.4315 20.3391C56.6333 20.1023 56.7865 19.828 56.8822 19.532C56.978 19.236 57.0145 18.9241 56.9896 18.614C56.9647 18.3039 56.8789 18.0017 56.7371 17.7248L56.1994 16.6686C56.0581 16.3914 55.8635 16.1449 55.6269 15.9429C55.3902 15.7409 55.116 15.5875 54.82 15.4915C54.524 15.3955 54.212 15.3586 53.9018 15.3831C53.5915 15.4076 53.2892 15.493 53.012 15.6343L43.5433 20.4717C43.1297 20.683 42.7875 21.0112 42.559 21.4153C42.186 21.6768 41.8963 22.0403 41.7246 22.4623L38.9871 29.1932L38.4651 28.4496C38.4248 28.1378 38.3228 27.8372 38.1651 27.5652L33.0842 18.8559V8.36877C33.0841 8.05759 33.0228 7.74948 32.9036 7.46202C32.7845 7.17457 32.61 6.9134 32.39 6.69344C32.17 6.47347 31.9089 6.29902 31.6215 6.18004C31.3341 6.06106 31.0261 5.99988 30.7151 6H29.531ZM15.1749 41.9995C14.3724 41.976 13.5734 42.1139 12.8251 42.4049C12.0769 42.6958 11.3946 43.1341 10.8188 43.6936C10.243 44.2531 9.78529 44.9225 9.47287 45.6621C9.16046 46.4017 8.99966 47.1966 9 47.9995C9 49.5909 9.63213 51.1172 10.7573 52.2425C11.8825 53.3678 13.4086 54 14.9999 54C16.5912 54 18.1173 53.3678 19.2425 52.2425C20.3677 51.1172 20.9999 49.5909 20.9999 47.9995C21.0005 46.438 20.3924 44.9377 19.3048 43.8174C18.2171 42.6971 16.7356 42.0449 15.1749 41.9995Z" fill="white"/>
</svg>
