<svg width="36" height="36" viewBox="0 0 36 36" fill="none" xmlns="http://www.w3.org/2000/svg">
<path d="M1 35H9V36H0V27H1V35Z" fill="white"/>
<path d="M36 36H27V35H35V27H36V36Z" fill="white"/>
<path d="M9 1H1V9H0V0H9V1Z" fill="white"/>
<path d="M36 9H35V1H27V0H36V9Z" fill="white"/>
<path d="M6.5256 4L7.76018 5.23529C8.00187 5.47866 8.17475 5.78172 8.26124 6.11362C8.34773 6.44553 8.34474 6.79442 8.25257 7.12479C8.1604 7.45516 7.98234 7.75521 7.73652 7.99439C7.4907 8.23358 7.18589 8.40337 6.85313 8.48647L7.94018 9.57353C8.40581 9.32969 8.80759 8.9798 9.1131 8.55209C9.4186 8.12438 9.61928 7.63084 9.69892 7.1113C9.77857 6.59176 9.73496 6.06077 9.5716 5.56119C9.40825 5.0616 9.12974 4.60742 8.75854 4.23529L8.52312 4H6.5256ZM5.79907 4.61118C5.33319 4.85369 4.93102 5.20258 4.62517 5.62957C4.31932 6.05655 4.1184 6.5496 4.0387 7.06874C3.95901 7.58788 4.00278 8.11849 4.16646 8.61756C4.33015 9.11662 4.60915 9.57008 4.98083 9.94118L10.1573 15.1141C10.2142 14.5763 10.3637 14.0523 10.5991 13.5653L5.97901 8.94118C5.61696 8.57811 5.41394 8.08612 5.41461 7.57339C5.41527 7.06066 5.61955 6.56919 5.98254 6.20706C6.22594 5.9522 6.5411 5.77741 6.88618 5.70588L5.79907 4.61118ZM10.6502 6.12765C10.6652 6.26335 10.6738 6.40059 10.6761 6.53941C10.684 7.0151 10.6128 7.4888 10.4655 7.94118L14.7491 12.2247C15.0149 12.4938 15.1964 12.8347 15.2711 13.2056C15.3458 13.5764 15.3106 13.961 15.1696 14.3121C15.0287 14.6632 14.7883 14.9654 14.4779 15.1817C14.1675 15.3979 13.8007 15.5188 13.4226 15.5294C13.4088 15.7324 13.4388 15.9361 13.5104 16.1265C13.5821 16.317 13.6937 16.4899 13.8379 16.6335L14.0732 16.8688C14.6629 16.7433 15.2079 16.461 15.6507 16.0517C16.0935 15.6425 16.4178 15.1214 16.5893 14.5433C16.7609 13.9653 16.7733 13.3517 16.6255 12.7671C16.4776 12.1826 16.1748 11.6487 15.7491 11.2218L10.6502 6.12765ZM18.6884 7.59188L18.6343 10.4661L20.0458 10.4928L20.0999 7.61859L18.6884 7.59188ZM23.5118 8.26794L21.8847 10.9252L23.0887 11.6625L24.7157 9.00518L23.5118 8.26794ZM27.0422 11.4378L24.4122 12.6581L25.0064 13.9388L27.6365 12.7185L27.0422 11.4378ZM13.3579 12.1676C13.0122 12.3132 12.6904 12.5099 12.4032 12.7512C12.3204 12.8203 12.2407 12.8932 12.1644 12.9694C11.5053 13.6302 11.1147 14.5119 11.0682 15.4439C11.0217 16.376 11.3226 17.2922 11.9126 18.0153C11.994 18.1151 12.0804 18.2107 12.1714 18.3018L17.592 23.7224C17.8321 23.9625 18.1033 24.1692 18.3985 24.3371C18.0786 23.6515 17.9449 22.8937 18.0108 22.14L13.1714 17.3006C13.1144 17.2445 13.0602 17.1856 13.0091 17.1241C12.959 17.0628 12.9121 16.999 12.8685 16.9329C12.5677 16.4807 12.4327 15.9383 12.4863 15.3978C12.5399 14.8573 12.7789 14.352 13.1626 13.9676C13.2097 13.9206 13.2585 13.8765 13.3085 13.8347C13.6043 13.5851 13.957 13.4124 14.3355 13.3318C14.2907 13.165 14.2029 13.0128 14.0808 12.8906L13.3579 12.1676ZM17.5544 12.6253C17.6696 13.1267 17.6945 13.6446 17.6279 14.1547L18.6508 14.5294C18.739 14.5675 18.8339 14.5873 18.93 14.5875C19.026 14.5876 19.121 14.5682 19.2093 14.5304C19.2976 14.4925 19.3772 14.4371 19.4433 14.3674C19.5094 14.2977 19.5605 14.2153 19.5937 14.1252C19.6268 14.0351 19.6412 13.9391 19.636 13.8433C19.6308 13.7474 19.6061 13.6536 19.5634 13.5675C19.5206 13.4815 19.4608 13.4052 19.3876 13.3431C19.3143 13.281 19.2291 13.2345 19.1373 13.2065V13.2082L17.5544 12.6253ZM25.6549 15.6862L25.6121 17.0973L28.2967 17.1789L28.3396 15.7678L25.6549 15.6862ZM22.058 16.3245C21.9445 16.3241 21.8326 16.3511 21.7318 16.4031C21.631 16.4551 21.5442 16.5307 21.4788 16.6235C21.4134 16.7162 21.3713 16.8233 21.3561 16.9357C21.3409 17.0482 21.353 17.1626 21.3914 17.2694L22.472 20.2412C22.6242 20.6639 22.6528 21.1212 22.5545 21.5596C22.4561 21.998 22.2349 22.3993 21.9167 22.7165L21.9114 22.7218C21.7776 22.8555 21.6283 22.9728 21.4667 23.0712C21.5 23.1197 21.5376 23.1652 21.5791 23.2071L22.4697 24.0976C22.6257 23.9831 22.7728 23.8569 22.9097 23.72L22.9149 23.7147C23.4227 23.2069 23.7753 22.5651 23.9316 21.8642C24.0878 21.1633 24.0413 20.4324 23.7973 19.7571L22.7138 16.7824C22.6818 16.694 22.6324 16.613 22.5685 16.5441C22.4521 16.4222 22.2961 16.3457 22.1285 16.3282C22.1051 16.3258 22.0815 16.3245 22.058 16.3245ZM21.1497 19.3676C20.621 19.5607 20.1495 19.8837 19.7785 20.3069C19.4075 20.7301 19.149 21.2399 19.0268 21.7893C18.9046 22.3386 18.9227 22.9099 19.0793 23.4505C19.236 23.991 19.5262 24.4834 19.9232 24.8824L24.9402 29.8994C24.8794 29.2912 24.9423 28.6769 25.1249 28.0935V28.0906L20.9185 23.8841C20.6929 23.6572 20.5268 23.378 20.4352 23.0715C20.3435 22.7649 20.329 22.4404 20.3931 22.1269C20.4571 21.8134 20.5977 21.5205 20.8022 21.2745C21.0068 21.0284 21.269 20.8367 21.5655 20.7165C21.5655 20.7106 21.562 20.7041 21.5597 20.6982L21.5744 20.7129C21.6132 20.6976 21.6526 20.6835 21.692 20.6706C21.6925 20.6663 21.6925 20.6619 21.692 20.6576C21.6673 20.6659 21.642 20.6735 21.6173 20.6824C21.6114 20.6471 21.5991 20.6053 21.5855 20.5665L21.1497 19.3676ZM24.922 20.3971L24.9185 20.4006C24.9487 20.6222 24.9631 20.8457 24.9614 21.0694C24.9578 21.2718 24.9431 21.4739 24.9173 21.6747C24.8909 21.8758 24.8516 22.0751 24.7997 22.2712L29.6938 27.1653C29.9358 27.4086 30.1089 27.7118 30.1956 28.0438C30.2822 28.3759 30.2793 28.725 30.1871 29.0556C30.095 29.3861 29.9168 29.6863 29.6708 29.9256C29.4248 30.1649 29.1197 30.3347 28.7867 30.4176L29.8738 31.5047C30.3393 31.2608 30.741 30.911 31.0464 30.4833C31.3518 30.0556 31.5524 29.5622 31.6321 29.0427C31.7117 28.5232 31.6681 27.9923 31.5048 27.4928C31.3415 26.9933 31.0631 26.5392 30.692 26.1671L24.922 20.3971ZM27.5708 26.3735C27.2695 26.5294 26.9946 26.7317 26.7561 26.9729C26.1287 27.6015 25.776 28.4532 25.7753 29.3413C25.7746 30.2295 26.1261 31.0817 26.7526 31.7112L27.0408 32H29.0358L27.7491 30.7129C27.5071 30.4695 27.334 30.1662 27.2474 29.834C27.1609 29.5019 27.1639 29.1527 27.2563 28.8221C27.3487 28.4915 27.5271 28.1913 27.7733 27.9521C28.0195 27.713 28.3248 27.5433 28.6579 27.4606L27.5708 26.3735Z" fill="white"/>
</svg>
