<svg width="36" height="36" viewBox="0 0 36 36" fill="none" xmlns="http://www.w3.org/2000/svg">
<path d="M1 35H9V36H0V27H1V35Z" fill="#FF0044"/>
<path d="M36 36H27V35H35V27H36V36Z" fill="#FF0044"/>
<path d="M4.46979 3.9375C12.2955 8.47157 17.2967 9.80986 24.7505 10.615L24.1046 10.6848C10.9062 12.2008 20.8049 16.6022 29.5928 20.3423C14.4636 17.1243 25.4555 26.1242 30.9375 32.0625C25.1698 28.3523 18.1111 24.8234 11.9169 23.4734C25.8721 22.4489 13.5078 15.1535 3.9375 13.1243C14.9757 13.0374 13.7029 12.3966 4.46979 3.9375Z" fill="#FF0044"/>
<path d="M9 1H1V9H0V0H9V1Z" fill="#FF0044"/>
<path d="M36 9H35V1H27V0H36V9Z" fill="#FF0044"/>
</svg>
