<svg width="64" height="64" viewBox="0 0 64 64" fill="none" xmlns="http://www.w3.org/2000/svg">
<path d="M4 60H16V64H0V48H4V60Z" fill="white"/>
<path d="M64 64H48V60H60V48H64V64Z" fill="white"/>
<path fill-rule="evenodd" clip-rule="evenodd" d="M49.0859 13.7715C52.1817 12.9638 54.3156 13.1712 55.2383 14.3691C55.9954 15.3535 55.912 16.9761 54.9951 19.1074C54.078 21.2391 52.3527 23.8214 49.9561 26.6475L52.0508 26.6768L53.8887 24.0234L54.834 27.1211L57.918 28.0723L55.3125 29.9395L55.3633 33.1777L52.8008 31.2266L49.7734 32.2949L50.79 29.2197L49.3682 27.3311C46.1233 31.041 41.9171 34.9671 37.3037 38.5908C35.6866 39.8682 34.035 41.0956 32.3779 42.252L33.583 43.2373L30.4785 43.9941L29.3662 47.0156L28.1143 45.0186C25.3531 46.7126 22.71 48.1145 20.3125 49.1562L21.3809 50.2314L23.96 49.7695L22.7705 52.1387L24.0342 54.4746L21.4355 54.0527L19.6309 55.9561L19.2178 53.3311L16.8516 52.1904L19.1768 50.9912L19.3809 49.5732C14.3761 51.6101 10.8811 51.8281 9.63281 50.1816C8.77 49.0494 9.01374 47.0816 10.3379 44.4834L9.32227 43.6885L6.63867 44.5625L7.58301 41.8799L5.91992 39.5557L8.73242 39.6289L10.3984 37.3408L11.2002 40.0664L12.7881 40.6055C14.4458 38.3457 16.6049 35.8885 19.1396 33.377C21.6745 30.8653 24.535 28.3485 27.5547 25.9736C27.5653 25.9673 27.5763 25.9614 27.5869 25.9551C29.9288 24.1188 32.3328 22.3935 34.7139 20.8408L34.5645 19.9111L32.4619 18.8857L34.5068 17.8311L34.835 15.4736L36.4658 17.1602L38.7529 16.7354L37.708 18.8311L37.7539 18.9307C42.0602 16.3685 45.9903 14.5792 49.0859 13.7715ZM49.4229 18.0244C48.8061 17.2216 47.4775 16.9975 45.5576 17.373C43.6377 17.7486 41.1865 18.7114 38.4258 20.1748L38.833 20.9043L37.4766 20.6807C36.6638 21.1416 35.8344 21.6384 34.9951 22.168L34.9365 22.2295L34.9316 22.2061C32.7295 23.5723 30.474 25.1529 28.2842 26.8652C28.2614 26.8903 28.2384 26.9154 28.2158 26.9404C23.6185 30.5606 19.6046 34.532 17.0498 37.9873C14.4951 41.4424 13.607 44.1012 14.5791 45.3838C15.1659 46.1589 16.4095 46.4012 18.2061 46.0898C20.0027 45.7785 22.3007 44.9223 24.9072 43.5938L26.5312 41.6309L25.6807 38.5264L28.6387 39.7363L31.3057 37.9902L31.1816 39.8418C32.7018 38.8189 34.2255 37.7099 35.7158 36.543C38.9695 33.9896 41.9662 31.2341 44.3652 28.5879L43.1094 28.2705L41.8408 29.3672L41.7314 27.6621L40.2598 26.7822L41.8555 26.1514L42.2324 24.4775L43.2979 25.8213L44.9912 25.6562L44.0967 27.0996L44.5957 28.3193C46.6983 25.9646 48.2419 23.7895 49.085 21.9912C49.9279 20.1932 50.044 18.8294 49.4229 18.0244Z" fill="white"/>
<path d="M18.4004 26.7363L20.8301 28.0576L18.3369 29.207L17.8408 31.9648L15.9727 29.8916L13.2451 30.2754L14.6025 27.8457L13.3955 25.3281L16.084 25.8887L18.0635 23.96L18.4004 26.7363Z" fill="white"/>
<path d="M16 4H4V16H0V0H16V4Z" fill="white"/>
<path d="M64 16H60V4H48V0H64V16Z" fill="white"/>
<path d="M44.2295 8.60059L46.1553 9.13281L44.5918 10.3623L44.6729 12.3887L43.0322 11.2158L41.1826 11.9492L41.7188 10.0088L40.4697 8.42188L42.4766 8.37207L43.5596 6.68848L44.2295 8.60059Z" fill="white"/>
</svg>
