<svg width="64" height="64" viewBox="0 0 64 64" fill="none" xmlns="http://www.w3.org/2000/svg">
<path d="M16 6.99381e-07V4H4V16H6.99381e-07V6.99381e-07H16Z" fill="white"/>
<path d="M64 16H60V4L48 4V0L64 6.99381e-07V16Z" fill="white"/>
<path d="M48 64V60H60L60 48H64V64H48Z" fill="white"/>
<path d="M0 48H4L4 60H16V64H6.99381e-07L0 48Z" fill="white"/>
<path d="M45.1817 7C42.1564 7 39.1329 8.15381 36.8264 10.4605L10.4598 36.825C5.84672 41.4386 5.84672 48.9267 10.4598 53.5399C15.0729 58.1533 22.564 58.1535 27.1772 53.5399L53.5402 27.1756C58.1533 22.5619 58.1533 15.0738 53.5402 10.4606C51.2336 8.15402 48.2071 7.00011 45.1817 7ZM46.2292 9.50178C46.5632 9.50178 46.8965 9.63101 47.1516 9.88589C47.6614 10.396 47.6614 11.2213 47.1516 11.7312C46.6416 12.2411 45.8163 12.2411 45.3064 11.7312C44.7967 11.2213 44.7967 10.3959 45.3064 9.886C45.4274 9.76438 45.5711 9.66784 45.7295 9.60194C45.8878 9.53604 46.0576 9.50187 46.2292 9.50178ZM49.8174 13.0903C50.1515 13.0903 50.4849 13.2164 50.7398 13.4713C51.2498 13.9813 51.2498 14.8098 50.7398 15.3198C50.2299 15.8298 49.4014 15.8298 48.8914 15.3198C48.3816 14.8098 48.3816 13.9813 48.8914 13.4713C49.1464 13.2163 49.4832 13.0903 49.8174 13.0903ZM42.5354 13.1954C42.8695 13.1954 43.2029 13.3246 43.4578 13.5796C43.9679 14.0896 43.9679 14.915 43.458 15.4249C42.9481 15.9348 42.1227 15.9348 41.6129 15.4249C41.1029 14.9149 41.1029 14.0895 41.6129 13.5796C41.7338 13.458 41.8775 13.3615 42.0358 13.2955C42.1941 13.2296 42.3639 13.1955 42.5354 13.1954ZM46.1238 16.7841C46.4581 16.7841 46.7913 16.9099 47.0464 17.165C47.5563 17.6749 47.5563 18.5035 47.0464 19.0134C46.5365 19.5234 45.708 19.5234 45.198 19.0134C44.6881 18.5035 44.6881 17.6749 45.198 17.1649C45.453 16.91 45.7894 16.784 46.1238 16.7841ZM53.6683 16.9417C54.0024 16.9417 54.3359 17.0709 54.5908 17.3259C55.1008 17.8358 55.1008 18.6612 54.5908 19.171C54.081 19.681 53.2557 19.681 52.7459 19.171C52.2359 18.6611 52.2359 17.8357 52.7459 17.3259C52.8668 17.2042 53.0105 17.1076 53.1688 17.0417C53.3271 16.9758 53.4969 16.9417 53.6683 16.9417ZM38.6844 17.0467C39.0185 17.0467 39.3519 17.176 39.6068 17.4309C40.1169 17.9408 40.1169 18.7663 39.6068 19.2761C39.0971 19.7861 38.2684 19.7861 37.7586 19.2761C37.2487 18.7662 37.2487 17.9407 37.7586 17.4309C37.8801 17.3092 38.0244 17.2126 38.1833 17.1467C38.3421 17.0808 38.5124 17.0468 38.6844 17.0467ZM42.2695 20.6354C42.6036 20.6354 42.9403 20.7646 43.1954 21.0195C43.7052 21.5295 43.7052 22.3549 43.1954 22.8647C42.6854 23.3746 41.8569 23.3746 41.347 22.8647C40.837 22.3548 40.837 21.5294 41.347 21.0195C41.4679 20.8979 41.6116 20.8013 41.7699 20.7354C41.9282 20.6695 42.098 20.6355 42.2695 20.6354ZM49.9749 20.6354C50.309 20.6354 50.6423 20.7646 50.8973 21.0195C51.4073 21.5295 51.4073 22.3549 50.8973 22.8647C50.3874 23.3746 49.562 23.3746 49.0522 22.8647C48.5423 22.3548 48.5423 21.5294 49.0522 21.0195C49.1731 20.8979 49.3168 20.8013 49.4752 20.7354C49.6335 20.6695 49.8034 20.6355 49.9749 20.6354ZM29.5081 21.1082L30.8969 22.4971L23.1324 30.2619L21.7435 28.8729L29.5081 21.1082ZM35.3682 21.1082L43.1329 28.873L41.744 30.262L33.9797 22.497L35.3682 21.1082ZM46.1238 24.4866C46.4579 24.4866 46.7912 24.6158 47.0462 24.8707C47.5561 25.3807 47.5561 26.2061 47.0462 26.716C46.5363 27.2257 45.7078 27.2257 45.1979 26.716C44.6879 26.2059 44.6879 25.3806 45.1979 24.8706C45.3194 24.7489 45.4637 24.6523 45.6226 24.5864C45.7815 24.5205 45.9518 24.4867 46.1238 24.4866ZM41.7441 33.3414L43.133 34.7303L35.365 42.4985L33.9797 41.1096L41.7441 33.3414ZM23.1324 33.3449L30.8967 41.1097L29.5079 42.4983L21.7438 34.7302L23.1324 33.3449ZM18.6937 37.0385C19.0278 37.0385 19.3611 37.1641 19.6161 37.4192C20.126 37.9291 20.126 38.7577 19.6161 39.2677C19.1061 39.7776 18.2808 39.7776 17.771 39.2677C17.2611 38.7577 17.2611 37.9292 17.771 37.4192C18.0259 37.1642 18.3594 37.0385 18.6937 37.0385ZM22.2819 40.6269C22.616 40.6269 22.9495 40.7528 23.2044 41.0078C23.7144 41.5178 23.7144 42.3463 23.2044 42.8563C22.6946 43.3662 21.8693 43.3662 21.3595 42.8563C20.8495 42.3463 20.8495 41.5178 21.3595 41.0078C21.6144 40.7528 21.9479 40.6269 22.2819 40.6269ZM15 40.732C15.3343 40.732 15.6676 40.8579 15.9227 41.1129C16.4325 41.6228 16.4325 42.4514 15.9227 42.9613C15.4127 43.4712 14.5874 43.4712 14.0775 42.9613C13.5678 42.4514 13.5678 41.6228 14.0775 41.1129C14.1986 40.9916 14.3424 40.8956 14.5008 40.8302C14.6591 40.7649 14.8287 40.7315 15 40.732ZM18.5885 44.3206C18.9226 44.3206 19.256 44.4466 19.5109 44.7015C20.0209 45.2115 20.0209 46.04 19.5109 46.55C19.001 47.06 18.1756 47.06 17.6658 46.55C17.1559 46.04 17.1559 45.2115 17.6658 44.7015C17.9208 44.4465 18.2542 44.3206 18.5885 44.3206ZM26.1328 44.4782C26.4671 44.4782 26.8004 44.6042 27.0554 44.8591C27.5653 45.3691 27.5653 46.1976 27.0554 46.7076C26.5455 47.2176 25.7203 47.2176 25.2103 46.7076C24.7004 46.1976 24.7004 45.3691 25.2103 44.8591C25.3314 44.7379 25.4752 44.6419 25.6335 44.5765C25.7918 44.5111 25.9615 44.4776 26.1328 44.4782ZM11.1489 44.5832C11.483 44.5832 11.8165 44.7093 12.0715 44.9642C12.5814 45.4742 12.5814 46.3027 12.0715 46.8127C11.5616 47.3227 10.7362 47.3227 10.2264 46.8127C9.71644 46.3027 9.71644 45.4742 10.2264 44.9642C10.3474 44.843 10.4912 44.7469 10.6495 44.6816C10.8079 44.6162 10.9776 44.5827 11.1489 44.5832ZM14.7374 48.172C15.0715 48.172 15.4048 48.2978 15.6598 48.5528C16.1698 49.0627 16.1698 49.8914 15.6598 50.4012C15.15 50.9112 14.3247 50.9112 13.8148 50.4012C13.305 49.8914 13.305 49.0627 13.8148 48.5527C13.9358 48.4315 14.0797 48.3355 14.238 48.2701C14.3964 48.2048 14.5661 48.1715 14.7374 48.172ZM22.4394 48.172C22.7735 48.172 23.107 48.2978 23.3618 48.5528C23.8719 49.0627 23.8719 49.8914 23.3618 50.4012C22.8521 50.9112 22.0268 50.9112 21.517 50.4012C21.007 49.8914 21.007 49.0627 21.517 48.5527C21.638 48.4315 21.7819 48.3355 21.9402 48.2701C22.0985 48.2048 22.2682 48.1715 22.4394 48.172ZM18.5884 52.0232C18.9225 52.0232 19.2558 52.1524 19.5108 52.4073C20.0208 52.9173 20.0208 53.7427 19.5108 54.2526C19.0009 54.7624 18.1755 54.7624 17.6657 54.2526C17.1558 53.7426 17.1558 52.914 17.6657 52.4041C17.9207 52.149 18.2541 52.0232 18.5884 52.0232Z" fill="white"/>
</svg>
