<svg width="36" height="36" viewBox="0 0 36 36" fill="none" xmlns="http://www.w3.org/2000/svg">
<path d="M1 35H9V36H0V27H1V35Z" fill="white"/>
<path d="M36 36H27V35H35V27H36V36Z" fill="white"/>
<path d="M9 1H1V9H0V0H9V1Z" fill="white"/>
<path d="M36 9H35V1H27V0H36V9Z" fill="white"/>
<path d="M17.9959 5.625C14.3225 5.625 12.626 6.32305 11.8455 7.20122C11.1659 7.96575 11.067 9.00348 11.0515 10.1821H12.8297C12.9252 9.36629 13.2568 8.63734 13.9654 8.16539C14.8237 7.59389 16.0827 7.37772 17.9959 7.37772C19.9095 7.37772 21.169 7.59616 22.0269 8.16878C22.7347 8.64108 23.0662 9.36916 23.1619 10.1821H24.9404C24.9248 9.00348 24.826 7.96575 24.1464 7.20122C23.3658 6.32305 21.6693 5.625 17.9959 5.625ZM10.1087 11.1168V12.0516H13.731V11.1168H10.1087ZM22.2609 11.1168V12.0516H25.8832V11.1168H22.2609ZM7.7992 13.1033C6.98909 13.1033 6.14977 13.5027 5.52242 14.1205C4.89506 14.7384 4.5 15.5571 4.5 16.3166V27.534C4.5 28.3811 4.70361 28.9218 5.04743 29.2652C5.39114 29.6086 5.93314 29.8125 6.78221 29.8125H29.2396C30.0723 29.8125 30.6057 29.6102 30.9467 29.2667C31.2878 28.9233 31.4918 28.3811 31.4918 27.534V16.3166C31.4918 15.5571 31.0959 14.7362 30.4774 14.1177C29.8589 13.4992 29.038 13.1033 28.2785 13.1033H7.7992ZM16.1264 16.3166H19.8655V20.0557H23.6046V23.7948H19.8655V27.534H16.1264V23.7948H12.3872V20.0557H16.1264V16.3166Z" fill="white"/>
</svg>
