<svg width="64" height="64" viewBox="0 0 64 64" fill="none" xmlns="http://www.w3.org/2000/svg">
<path d="M4 60H16V64H0V48H4V60Z" fill="white"/>
<path d="M64 64H48V60H60V48H64V64Z" fill="white"/>
<path d="M16 4H4V16H0V0H16V4Z" fill="white"/>
<path d="M64 16H60V4H48V0H64V16Z" fill="white"/>
<path d="M31.9928 10C25.4623 10 22.4462 11.241 21.0586 12.8022C19.8504 14.1613 19.6747 16.0062 19.6471 18.1014H22.8084C22.9781 16.6512 23.5676 15.3553 24.8273 14.5162C26.3532 13.5002 28.5915 13.1159 31.9928 13.1159C35.3946 13.1159 37.6338 13.5043 39.159 14.5223C40.4173 15.3619 41.0066 16.6563 41.1767 18.1014H44.3384C44.3108 16.0062 44.1351 14.1613 42.9269 12.8022C41.5393 11.241 38.5232 10 31.9928 10ZM17.971 19.7633V21.4251H24.4106V19.7633H17.971ZM39.5749 19.7633V21.4251H46.0145V19.7633H39.5749ZM13.8652 23.2947C12.4251 23.2947 10.9329 24.0048 9.81763 25.1032C8.70233 26.2017 8 27.657 8 29.0072V48.9493C8 50.4553 8.36197 51.4165 8.97321 52.0271C9.58425 52.6375 10.5478 53 12.0573 53H51.9815C53.4619 53 54.4101 52.6403 55.0163 52.0297C55.6227 51.4192 55.9855 50.4553 55.9855 48.9493V29.0072C55.9855 27.657 55.2816 26.1977 54.1821 25.0981C53.0825 23.9986 51.6232 23.2947 50.2729 23.2947H13.8652ZM28.6691 29.0072H35.3164V35.6546H41.9638V42.3019H35.3164V48.9493H28.6691V42.3019H22.0217V35.6546H28.6691V29.0072Z" fill="white"/>
</svg>
