<svg width="12" height="12" viewBox="0 0 12 12" fill="none" xmlns="http://www.w3.org/2000/svg">
<g clip-path="url(#clip0_401_4278)">
<path d="M7.20005 1.20001H4.20005C3.86817 1.20001 3.60005 1.46814 3.60005 1.80001C3.60005 2.13189 3.86817 2.40001 4.20005 2.40001V5.24064L1.94067 9.19314C1.8488 9.35626 1.80005 9.53814 1.80005 9.72564C1.80005 10.32 2.28005 10.8 2.87442 10.8H9.12567C9.71817 10.8 10.2 10.32 10.2 9.72564C10.2 9.53814 10.1513 9.35439 10.0594 9.19314L7.80005 5.24064V2.40001C8.13192 2.40001 8.40005 2.13189 8.40005 1.80001C8.40005 1.46814 8.13192 1.20001 7.80005 1.20001H7.20005ZM5.40005 5.24064V2.40001H6.60005V5.24064C6.60005 5.44876 6.65442 5.65501 6.75755 5.83689L7.53755 7.20001H4.46255L5.24255 5.83689C5.34567 5.65501 5.40005 5.45064 5.40005 5.24064Z" fill="white"/>
</g>
<defs>
<clipPath id="clip0_401_4278">
<rect width="12" height="12" fill="white"/>
</clipPath>
</defs>
</svg>
