<svg width="12" height="12" viewBox="0 0 12 12" fill="none" xmlns="http://www.w3.org/2000/svg">
<g clip-path="url(#clip0_401_4272)">
<path d="M4.80942 0.70499C4.9838 0.55874 5.24067 0.564365 5.40755 0.721865C5.63817 0.939365 5.84442 1.17937 6.04317 1.42312C6.2963 1.73249 6.60005 2.14124 6.89255 2.62687C6.99005 2.49937 7.08005 2.38687 7.1588 2.29124C7.17942 2.26687 7.20005 2.24062 7.22067 2.21437C7.3688 2.03062 7.55255 1.79999 7.79817 1.79999C8.04942 1.79999 8.22567 2.02312 8.37567 2.21437C8.40005 2.24624 8.42442 2.27624 8.4488 2.30437C8.64192 2.53687 8.8988 2.87249 9.15567 3.28687C9.66567 4.10999 10.1982 5.28187 10.1982 6.59812C10.1982 8.91749 8.31755 10.7981 5.99817 10.7981C3.6788 10.7981 1.80005 8.91937 1.80005 6.59999C1.80005 4.89187 2.57067 3.41249 3.30942 2.38124C3.68255 1.86187 4.0538 1.44562 4.33317 1.16062C4.48692 1.00312 4.64255 0.84749 4.8113 0.706865L4.80942 0.70499ZM6.03192 8.99999C6.5063 8.99999 6.9263 8.86874 7.32192 8.60624C8.1113 8.05499 8.32317 6.95249 7.8488 6.08624C7.76442 5.91749 7.5488 5.90624 7.42692 6.04874L6.95442 6.59812C6.83067 6.74062 6.60755 6.73687 6.4913 6.58874C6.16692 6.17437 5.57067 5.41874 5.26692 5.03249C5.16567 4.90312 4.98192 4.88249 4.8638 4.99687C4.52067 5.33062 3.89817 6.06187 3.89817 6.95249C3.89817 8.23874 4.84692 8.99999 6.03005 8.99999H6.03192Z" fill="white"/>
</g>
<defs>
<clipPath id="clip0_401_4272">
<rect width="12" height="12" fill="white"/>
</clipPath>
</defs>
</svg>
