<svg width="12" height="12" viewBox="0 0 12 12" fill="none" xmlns="http://www.w3.org/2000/svg">
<g clip-path="url(#clip0_414_1388)">
<path d="M7.07158 0.749964C7.07158 0.33514 6.75238 0 6.35728 0C5.96218 0 5.64297 0.33514 5.64297 0.749964V0.876521C5.64297 1.93116 5.11617 2.90611 4.25678 3.44984L4.1541 3.51546C2.86165 4.3287 2.07146 5.79113 2.07146 7.37309V8.99957C2.07146 9.4144 2.39066 9.74954 2.78576 9.74954C3.18086 9.74954 3.50006 9.4144 3.50006 8.99957V7.37309C3.50006 6.9817 3.57372 6.59969 3.70989 6.24814L7.9466 11.7229C8.19438 12.044 8.64528 12.0932 8.95109 11.833C9.2569 11.5729 9.30378 11.0995 9.056 10.7784L6.51799 7.49964H8.85734L9.7145 8.69959C9.95112 9.03004 10.3998 9.09801 10.7145 8.84958C11.0293 8.60115 11.094 8.13008 10.8574 7.79963L9.89308 6.44969C9.68995 6.16611 9.37298 5.99972 9.03591 5.99972H7.04926L5.64521 4.23027C6.54478 3.38656 7.07158 2.17021 7.07158 0.876521V0.749964ZM2.25003 3.37484C2.93978 3.37484 3.50006 2.78659 3.50006 2.0624C3.50006 1.33822 2.93978 0.749964 2.25003 0.749964C1.56028 0.749964 1 1.33822 1 2.0624C1 2.78659 1.56028 3.37484 2.25003 3.37484Z" fill="white"/>
</g>
<defs>
<clipPath id="clip0_414_1388">
<rect width="12" height="12" fill="white"/>
</clipPath>
</defs>
</svg>
