<svg width="24" height="24" viewBox="0 0 24 24" fill="none" xmlns="http://www.w3.org/2000/svg">
<g clip-path="url(#clip0_432_3354)">
<path d="M13.2 3.60002C13.2 2.93627 12.6638 2.40002 12 2.40002C11.3363 2.40002 10.8 2.93627 10.8 3.60002V11.4C10.8 11.73 10.53 12 10.2 12C9.87 12 9.6 11.73 9.6 11.4V4.80002C9.6 4.13627 9.06375 3.60002 8.4 3.60002C7.73625 3.60002 7.2 4.13627 7.2 4.80002V15C7.2 15.0563 7.2 15.1163 7.20375 15.1725L4.935 13.0125C4.335 12.4425 3.38625 12.465 2.8125 13.065C2.23875 13.665 2.265 14.6138 2.865 15.1875L7.08 19.2C8.69625 20.7413 10.845 21.6 13.08 21.6H13.8C17.445 21.6 20.4 18.645 20.4 15V7.20002C20.4 6.53627 19.8638 6.00002 19.2 6.00002C18.5363 6.00002 18 6.53627 18 7.20002V11.4C18 11.73 17.73 12 17.4 12C17.07 12 16.8 11.73 16.8 11.4V4.80002C16.8 4.13627 16.2638 3.60002 15.6 3.60002C14.9363 3.60002 14.4 4.13627 14.4 4.80002V11.4C14.4 11.73 14.13 12 13.8 12C13.47 12 13.2 11.73 13.2 11.4V3.60002Z" fill="#444856"/>
</g>
<defs>
<clipPath id="clip0_432_3354">
<rect width="24" height="24" fill="white"/>
</clipPath>
</defs>
</svg>
