<svg width="24" height="24" viewBox="0 0 24 24" fill="none" xmlns="http://www.w3.org/2000/svg">
<g clip-path="url(#clip0_432_3361)">
<path d="M16.7149 2V9.87305C16.7147 10.3905 16.2958 10.8094 15.7784 10.8096C15.2608 10.8096 14.841 10.3905 14.8409 9.87305V2H10.6856C10.1858 2.02083 9.22336 2.37463 9.3731 3.62402C9.52306 4.87365 10.019 9.31 10.2481 11.3721C10.3106 11.9761 10.1728 13.3472 9.1231 13.9971C8.07302 14.6471 5.27038 16.3089 4.00005 17.0586C3.66684 17.2668 3.0002 17.8955 3.00005 18.7451V20.8701C3.00017 21.2451 3.23804 21.9941 4.18755 21.9941H9.9981C10.2897 21.9525 11.0858 21.8201 11.9356 21.6201C12.7855 21.4201 14.6641 20.9534 15.4971 20.7451C15.4972 21.1617 15.7344 21.994 16.6836 21.9941C17.6334 21.9941 18.8714 22.0063 19.3711 21.9941C19.7258 21.9853 20.4326 21.6818 20.4327 20.6826V19.0576C20.4535 18.7867 20.42 17.983 20.1202 16.9336C19.7453 15.6214 19.3712 13.9967 19.3711 12.4971C19.3711 11.2975 19.5378 10.0397 19.6211 9.56055L20.2452 3.93652C20.266 3.81145 20.3077 3.49885 20.3077 3.24902C20.3075 2.93623 20.0577 2.00022 19.1211 2H16.7149Z" fill="#444856"/>
</g>
<defs>
<clipPath id="clip0_432_3361">
<rect width="24" height="24" fill="white"/>
</clipPath>
</defs>
</svg>
