<svg width="12" height="12" viewBox="0 0 12 12" fill="none" xmlns="http://www.w3.org/2000/svg">
<g clip-path="url(#clip0_401_4284)">
<path d="M2.40002 6.00001L2.9344 1.72501C2.9719 1.42501 3.2269 1.20001 3.53065 1.20001H6.6919C6.97315 1.20001 7.20002 1.42689 7.20002 1.70814C7.20002 1.76814 7.18877 1.83001 7.16815 1.88626L6.30002 4.20001H8.9119C9.29065 4.20001 9.60002 4.50751 9.60002 4.88814C9.60002 5.02689 9.55877 5.16189 9.48002 5.27626L5.87627 10.545C5.76565 10.7063 5.58377 10.8019 5.39065 10.8019H5.33627C5.0419 10.8019 4.8019 10.5619 4.8019 10.2675C4.8019 10.2244 4.80752 10.1813 4.81877 10.1381L5.70002 6.60001H3.00002C2.66815 6.60001 2.40002 6.33189 2.40002 6.00001Z" fill="white"/>
</g>
<defs>
<clipPath id="clip0_401_4284">
<rect width="12" height="12" fill="white"/>
</clipPath>
</defs>
</svg>
