<svg width="24" height="24" viewBox="0 0 24 24" fill="none" xmlns="http://www.w3.org/2000/svg">
<g clip-path="url(#clip0_432_3365)">
<path d="M7.72275 2V9.87305C7.72292 10.3905 8.14187 10.8094 8.65928 10.8096C9.1768 10.8096 9.59661 10.3905 9.59678 9.87305V2H13.7521C14.2519 2.02083 15.2143 2.37463 15.0646 3.62402C14.9146 4.87365 14.4187 9.31 14.1896 11.3721C14.1271 11.9761 14.2648 13.3472 15.3146 13.9971C16.3646 14.6471 19.1673 16.3089 20.4376 17.0586C20.7708 17.2668 21.4375 17.8955 21.4376 18.7451V20.8701C21.4375 21.2451 21.1996 21.9941 20.2501 21.9941H14.4396C14.148 21.9525 13.3518 21.8201 12.5021 21.6201C11.6522 21.4201 9.77356 20.9534 8.94053 20.7451C8.94044 21.1617 8.7033 21.994 7.754 21.9941C6.80426 21.9941 5.56622 22.0063 5.0665 21.9941C4.71182 21.9853 4.00509 21.6818 4.00498 20.6826V19.0576C3.98418 18.7867 4.01765 17.983 4.31748 16.9336C4.69238 15.6214 5.0665 13.9967 5.0665 12.4971C5.0665 11.2975 4.89983 10.0397 4.8165 9.56055L4.19248 3.93652C4.17164 3.81145 4.12998 3.49885 4.12998 3.24902C4.1302 2.93623 4.37993 2.00022 5.3165 2H7.72275Z" fill="#444856"/>
</g>
<defs>
<clipPath id="clip0_432_3365">
<rect width="24" height="24" fill="white"/>
</clipPath>
</defs>
</svg>
