<svg width="24" height="24" viewBox="0 0 24 24" fill="none" xmlns="http://www.w3.org/2000/svg">
<g clip-path="url(#clip0_432_3358)">
<path d="M10.8 3.60002C10.8 2.93627 11.3363 2.40002 12 2.40002C12.6638 2.40002 13.2 2.93627 13.2 3.60002V11.4C13.2 11.73 13.47 12 13.8 12C14.13 12 14.4 11.73 14.4 11.4V4.80002C14.4 4.13627 14.9363 3.60002 15.6 3.60002C16.2638 3.60002 16.8 4.13627 16.8 4.80002V15C16.8 15.0563 16.8 15.1163 16.7963 15.1725L19.065 13.0125C19.665 12.4425 20.6138 12.465 21.1875 13.065C21.7613 13.665 21.735 14.6138 21.135 15.1875L16.92 19.2C15.3038 20.7413 13.155 21.6 10.92 21.6H10.2C6.55503 21.6 3.60003 18.645 3.60003 15V7.20002C3.60003 6.53627 4.13628 6.00002 4.80003 6.00002C5.46378 6.00002 6.00003 6.53627 6.00003 7.20002V11.4C6.00003 11.73 6.27003 12 6.60003 12C6.93003 12 7.20003 11.73 7.20003 11.4V4.80002C7.20003 4.13627 7.73628 3.60002 8.40003 3.60002C9.06378 3.60002 9.60003 4.13627 9.60003 4.80002V11.4C9.60003 11.73 9.87003 12 10.2 12C10.53 12 10.8 11.73 10.8 11.4V3.60002Z" fill="#444856"/>
</g>
<defs>
<clipPath id="clip0_432_3358">
<rect width="24" height="24" fill="white"/>
</clipPath>
</defs>
</svg>
