<svg width="12" height="12" viewBox="0 0 12 12" fill="none" xmlns="http://www.w3.org/2000/svg">
<path fill-rule="evenodd" clip-rule="evenodd" d="M7.52934 7.63193C8.82296 8.96425 10.1838 10.2093 11 10.9142C9.76332 11.3277 8.06323 10.1898 6.53129 8.72177C6.88004 8.36276 7.21557 7.99441 7.52934 7.63193ZM8.17191 5.64071C6.47434 7.91138 3.08145 11.6101 1.00004 10.9142C2.41352 9.69349 5.46014 6.85333 6.96293 4.74423L8.17191 5.64071ZM5.03715 4.74423C5.1829 4.94864 5.34381 5.16005 5.51566 5.37607C5.20289 5.74656 4.86111 6.12753 4.5059 6.5079C4.25917 6.2051 4.03147 5.91255 3.82816 5.64071L5.03715 4.74423ZM2.30277 1.00497C2.30618 1.00596 2.31032 1.00759 2.31352 1.00888C2.32291 1.01274 2.33164 1.01774 2.33891 1.0245C2.3437 1.02899 2.34789 1.03424 2.3516 1.04013C2.3563 1.04767 2.3692 1.06584 2.38871 1.09286C2.39812 1.10589 2.40941 1.12166 2.42191 1.13876C2.42884 1.14823 2.43655 1.15838 2.44438 1.16903C2.45865 1.18846 2.47415 1.21035 2.49125 1.23349C2.50039 1.24586 2.51065 1.25821 2.52055 1.27157C2.54704 1.30734 2.57596 1.3474 2.60746 1.38974C2.60982 1.39291 2.61191 1.3963 2.6143 1.3995C2.66987 1.47418 2.73274 1.55843 2.80082 1.6495C2.82871 1.68682 2.85813 1.72519 2.88774 1.76474C2.94074 1.83556 2.99627 1.90976 3.05375 1.98642C3.09903 2.0468 3.14607 2.10891 3.1934 2.17196C3.34961 2.38007 3.51501 2.60086 3.67875 2.81845C3.73903 2.89855 3.79925 2.97813 3.85844 3.05673L4.46684 3.86435L4.96195 3.51083L5.11332 3.754L2.74809 5.50693L2.62211 5.30478L3.22758 4.84091L1.00492 2.03525C1.00199 2.02455 0.999666 2.01074 1.00004 1.99423C1.00029 1.98329 1.00154 1.9711 1.00395 1.9581C1.0064 1.94494 1.01045 1.93 1.01566 1.91513C1.02218 1.89667 1.03125 1.87695 1.04301 1.85653C1.05483 1.83602 1.06971 1.81478 1.08793 1.79306C1.11713 1.75827 1.15484 1.72197 1.20414 1.68661C1.21244 1.68066 1.22153 1.67456 1.23051 1.66806C1.24478 1.65772 1.25966 1.64642 1.27543 1.63485C1.28615 1.62699 1.29731 1.61879 1.30863 1.61044C1.32494 1.59841 1.34207 1.58623 1.35941 1.57333C1.39824 1.54447 1.4394 1.5132 1.48148 1.48153L1.6143 1.38193C1.6819 1.33062 1.74838 1.27963 1.80863 1.23349L1.97465 1.10556C2.01856 1.07837 2.08498 1.04356 2.15043 1.02157C2.1691 1.01531 2.18805 1.00973 2.20609 1.00595C2.22405 1.0022 2.24156 1.00047 2.25785 1.00009C2.26183 0.999998 2.26573 0.999946 2.26957 1.00009C2.2813 1.00054 2.29262 1.00207 2.30277 1.00497ZM9.76762 1.00204C9.77619 1.00313 9.78507 1.00409 9.79399 1.00595C9.80289 1.00782 9.81221 1.01026 9.82133 1.01278C9.84909 1.02051 9.87794 1.03129 9.90531 1.04306C9.91444 1.04698 9.92384 1.05063 9.93266 1.05478C9.96792 1.07136 10.0004 1.09003 10.0254 1.10556L10.1914 1.23349C10.2517 1.27961 10.3182 1.33064 10.3858 1.38193C10.4727 1.44789 10.5616 1.51452 10.6407 1.57333C10.658 1.58623 10.6751 1.59841 10.6914 1.61044C10.7028 1.61879 10.7139 1.627 10.7246 1.63485C10.7404 1.6464 10.7553 1.65773 10.7696 1.66806C10.7785 1.67455 10.7876 1.68067 10.7959 1.68661C10.8946 1.7574 10.9484 1.83043 10.9756 1.89267C10.979 1.9003 10.9818 1.90783 10.9844 1.91513C10.9857 1.91886 10.9872 1.92322 10.9883 1.92685C10.9916 1.9376 10.9943 1.94832 10.9961 1.9581C10.9967 1.96125 10.9976 1.96482 10.9981 1.96786C10.9994 1.97717 10.9998 1.9861 11 1.99423C11.0004 2.01062 10.999 2.02458 10.9961 2.03525L8.7725 4.84091L9.37797 5.30478L9.25199 5.50693L6.88676 3.754L7.03813 3.51083L7.53227 3.86435C8.01881 3.21965 8.86125 2.10123 9.32328 1.48153C9.41216 1.36233 9.48752 1.26199 9.54301 1.18661C9.60207 1.10637 9.63958 1.05442 9.64848 1.04013C9.65219 1.03424 9.65638 1.02899 9.66117 1.0245C9.66611 1.0199 9.67182 1.01601 9.67777 1.01278C9.6837 1.00958 9.69051 1.00694 9.69731 1.00497C9.70402 1.00306 9.71135 1.00188 9.71879 1.00107C9.7339 0.999428 9.75033 0.99985 9.76762 1.00204Z" fill="white"/>
</svg>
