<svg width="24" height="24" viewBox="0 0 24 24" fill="none" xmlns="http://www.w3.org/2000/svg">
<g clip-path="url(#clip0_432_3363)">
<path d="M12.0075 6.59998C13.665 6.59998 15.0075 5.25748 15.0075 3.59998H17.0138C17.6513 3.59998 18.2625 3.85123 18.7125 4.30123L23.16 8.75248C23.6288 9.22123 23.6288 9.98248 23.16 10.4512L21.2588 12.3525C20.79 12.8212 20.0288 12.8212 19.56 12.3525L18.0075 10.8V19.2C18.0075 20.5237 16.9313 21.6 15.6075 21.6H8.40752C7.08377 21.6 6.00751 20.5237 6.00751 19.2V10.8L4.45501 12.3525C3.98626 12.8212 3.22501 12.8212 2.75626 12.3525L0.858765 10.4475C0.390015 9.97873 0.390015 9.21748 0.858765 8.74873L5.30626 4.30123C5.75626 3.85123 6.36752 3.59998 7.00502 3.59998H9.01127C9.01127 5.25748 10.3538 6.59998 12.0113 6.59998H12.0075Z" fill="#444856"/>
</g>
<defs>
<clipPath id="clip0_432_3363">
<rect width="24" height="24" fill="white"/>
</clipPath>
</defs>
</svg>
