<svg width="12" height="12" viewBox="0 0 12 12" fill="none" xmlns="http://www.w3.org/2000/svg">
<g clip-path="url(#clip0_303_2674)">
<path d="M2.42327 1.24665C2.09788 0.921254 1.56944 0.921254 1.24405 1.24665C0.918652 1.57204 0.918652 2.10048 1.24405 2.42588L4.82077 6L1.24665 9.57673C0.921254 9.90212 0.921254 10.4306 1.24665 10.756C1.57204 11.0813 2.10048 11.0813 2.42588 10.756L6 7.17923L9.57673 10.7534C9.90212 11.0787 10.4306 11.0787 10.756 10.7534C11.0813 10.428 11.0813 9.89952 10.756 9.57412L7.17923 6L10.7534 2.42327C11.0787 2.09788 11.0787 1.56944 10.7534 1.24405C10.428 0.918652 9.89952 0.918652 9.57412 1.24405L6 4.82077L2.42327 1.24665Z" fill="#444856"/>
</g>
<defs>
<clipPath id="clip0_303_2674">
<rect width="12" height="12" fill="white"/>
</clipPath>
</defs>
</svg>
