<svg width="12" height="12" viewBox="0 0 12 12" fill="none" xmlns="http://www.w3.org/2000/svg">
<g clip-path="url(#clip0_255_2398)">
<path d="M4.5002 1.6502C4.5002 1.40082 4.29957 1.2002 4.0502 1.2002C3.80082 1.2002 3.6002 1.40082 3.6002 1.6502V2.4002C2.93832 2.4002 2.4002 2.93832 2.4002 3.6002H1.6502C1.40082 3.6002 1.2002 3.80082 1.2002 4.0502C1.2002 4.29957 1.40082 4.5002 1.6502 4.5002H2.4002V5.5502H1.6502C1.40082 5.5502 1.2002 5.75082 1.2002 6.0002C1.2002 6.24957 1.40082 6.4502 1.6502 6.4502H2.4002V7.5002H1.6502C1.40082 7.5002 1.2002 7.70082 1.2002 7.9502C1.2002 8.19957 1.40082 8.4002 1.6502 8.4002H2.4002C2.4002 9.06207 2.93832 9.6002 3.6002 9.6002V10.3502C3.6002 10.5996 3.80082 10.8002 4.0502 10.8002C4.29957 10.8002 4.5002 10.5996 4.5002 10.3502V9.6002H5.5502V10.3502C5.5502 10.5996 5.75082 10.8002 6.0002 10.8002C6.24957 10.8002 6.4502 10.5996 6.4502 10.3502V9.6002H7.5002V10.3502C7.5002 10.5996 7.70082 10.8002 7.9502 10.8002C8.19957 10.8002 8.4002 10.5996 8.4002 10.3502V9.6002C9.06207 9.6002 9.6002 9.06207 9.6002 8.4002H10.3502C10.5996 8.4002 10.8002 8.19957 10.8002 7.9502C10.8002 7.70082 10.5996 7.5002 10.3502 7.5002H9.6002V6.4502H10.3502C10.5996 6.4502 10.8002 6.24957 10.8002 6.0002C10.8002 5.75082 10.5996 5.5502 10.3502 5.5502H9.6002V4.5002H10.3502C10.5996 4.5002 10.8002 4.29957 10.8002 4.0502C10.8002 3.80082 10.5996 3.6002 10.3502 3.6002H9.6002C9.6002 2.93832 9.06207 2.4002 8.4002 2.4002V1.6502C8.4002 1.40082 8.19957 1.2002 7.9502 1.2002C7.70082 1.2002 7.5002 1.40082 7.5002 1.6502V2.4002H6.4502V1.6502C6.4502 1.40082 6.24957 1.2002 6.0002 1.2002C5.75082 1.2002 5.5502 1.40082 5.5502 1.6502V2.4002H4.5002V1.6502ZM4.2002 3.6002H7.8002C8.13207 3.6002 8.4002 3.86832 8.4002 4.2002V7.8002C8.4002 8.13207 8.13207 8.4002 7.8002 8.4002H4.2002C3.86832 8.4002 3.6002 8.13207 3.6002 7.8002V4.2002C3.6002 3.86832 3.86832 3.6002 4.2002 3.6002ZM4.5002 4.5002V7.5002H7.5002V4.5002H4.5002Z" fill="#B9B29D"/>
</g>
<defs>
<clipPath id="clip0_255_2398">
<rect width="12" height="12" fill="white"/>
</clipPath>
</defs>
</svg>
