<svg width="50" height="40" viewBox="0 0 50 40" fill="none" xmlns="http://www.w3.org/2000/svg">
<path d="M44 28.8V3L41 0H0V40H31L44 28.8Z" fill="#1A1A1A"/>
<path d="M7 33.4525C7 33.5845 6.968 33.7065 6.904 33.8185C6.84 33.9265 6.754 34.0125 6.646 34.0765C6.534 34.1405 6.412 34.1725 6.28 34.1725L6.112 34.1725L6.112 33.6865L6.28 33.6865C6.344 33.6865 6.4 33.6645 6.448 33.6205C6.492 33.5725 6.514 33.5165 6.514 33.4525L6.514 30.5725C6.514 30.5085 6.492 30.4545 6.448 30.4105C6.4 30.3625 6.344 30.3385 6.28 30.3385L5.314 30.3385C5.25 30.3385 5.196 30.3625 5.152 30.4105C5.108 30.4545 5.086 30.5085 5.086 30.5725L5.086 33.4525C5.086 33.5845 5.054 33.7065 4.99 33.8185C4.922 33.9265 4.834 34.0125 4.726 34.0765C4.618 34.1405 4.498 34.1725 4.366 34.1725L3.4 34.1725C3.268 34.1725 3.148 34.1405 3.04 34.0765C2.928 34.0125 2.84 33.9265 2.776 33.8185C2.712 33.7065 2.68 33.5845 2.68 33.4525L2.68 30.5725C2.68 30.4405 2.712 30.3205 2.776 30.2125C2.84 30.1005 2.928 30.0125 3.04 29.9485C3.148 29.8845 3.268 29.8525 3.4 29.8525L3.568 29.8525L3.568 30.3385L3.4 30.3385C3.336 30.3385 3.282 30.3625 3.238 30.4105C3.19 30.4545 3.166 30.5085 3.166 30.5725L3.166 33.4525C3.166 33.5165 3.19 33.5725 3.238 33.6205C3.282 33.6645 3.336 33.6865 3.4 33.6865L4.366 33.6865C4.43 33.6865 4.484 33.6645 4.528 33.6205C4.572 33.5725 4.594 33.5165 4.594 33.4525L4.594 30.5725C4.594 30.4405 4.628 30.3205 4.696 30.2125C4.76 30.1005 4.846 30.0125 4.954 29.9485C5.062 29.8845 5.182 29.8525 5.314 29.8525L6.28 29.8525C6.412 29.8525 6.534 29.8845 6.646 29.9485C6.754 30.0125 6.84 30.1005 6.904 30.2125C6.968 30.3205 7 30.4405 7 30.5725L7 33.4525ZM7 27.5049L3.166 27.5049L3.166 29.4249L2.68 29.4249L2.68 25.1049L3.166 25.1049L3.166 27.0189L7 27.0189L7 27.5049ZM7 24.6442L3.4 24.6442C3.268 24.6442 3.148 24.6122 3.04 24.5482C2.928 24.4842 2.84 24.3982 2.776 24.2902C2.712 24.1782 2.68 24.0562 2.68 23.9242L2.68 21.0442C2.68 20.9122 2.712 20.7922 2.776 20.6842C2.84 20.5722 2.928 20.4842 3.04 20.4202C3.148 20.3562 3.268 20.3242 3.4 20.3242L7 20.3242L7 20.8102L5.422 20.8102L5.422 24.1582L7 24.1582L7 24.6442ZM4.936 24.1582L4.936 20.8102L3.4 20.8102C3.336 20.8102 3.282 20.8342 3.238 20.8822C3.19 20.9262 3.166 20.9802 3.166 21.0442L3.166 23.9242C3.166 23.9882 3.19 24.0442 3.238 24.0922C3.282 24.1362 3.336 24.1582 3.4 24.1582L4.936 24.1582ZM7 17.9366L3.166 17.9366L3.166 19.8566L2.68 19.8566L2.68 15.5366L3.166 15.5366L3.166 17.4506L7 17.4506L7 17.9366ZM7 14.3798C7 14.5118 6.968 14.6338 6.904 14.7458C6.84 14.8538 6.754 14.9398 6.646 15.0038C6.534 15.0678 6.412 15.0998 6.28 15.0998L2.68 15.0998L2.68 14.6138L6.28 14.6138C6.344 14.6138 6.4 14.5918 6.448 14.5478C6.492 14.4998 6.514 14.4438 6.514 14.3798L6.514 11.4998C6.514 11.4358 6.492 11.3818 6.448 11.3378C6.4 11.2898 6.344 11.2658 6.28 11.2658L2.68 11.2658L2.68 10.7798L6.28 10.7798C6.412 10.7798 6.534 10.8118 6.646 10.8758C6.754 10.9398 6.84 11.0278 6.904 11.1398C6.968 11.2478 7 11.3678 7 11.4998L7 14.3798ZM7 9.42908C7 9.56108 6.968 9.68308 6.904 9.79508C6.84 9.90308 6.754 9.98908 6.646 10.0531C6.534 10.1171 6.412 10.1491 6.28 10.1491L6.112 10.1491L6.112 9.66308L6.28 9.66308C6.344 9.66308 6.4 9.64108 6.448 9.59708C6.492 9.54908 6.514 9.49308 6.514 9.42908L6.514 6.54908C6.514 6.48508 6.492 6.43108 6.448 6.38708C6.4 6.33908 6.344 6.31508 6.28 6.31508L5.314 6.31508C5.25 6.31508 5.196 6.33908 5.152 6.38708C5.108 6.43108 5.086 6.48508 5.086 6.54908L5.086 9.42908C5.086 9.56108 5.054 9.68308 4.99 9.79508C4.922 9.90308 4.834 9.98908 4.726 10.0531C4.618 10.1171 4.498 10.1491 4.366 10.1491L3.4 10.1491C3.268 10.1491 3.148 10.1171 3.04 10.0531C2.928 9.98908 2.84 9.90308 2.776 9.79508C2.712 9.68308 2.68 9.56108 2.68 9.42908L2.68 6.54908C2.68 6.41708 2.712 6.29708 2.776 6.18908C2.84 6.07708 2.928 5.98908 3.04 5.92508C3.148 5.86108 3.268 5.82908 3.4 5.82908L3.568 5.82908L3.568 6.31508L3.4 6.31508C3.336 6.31508 3.282 6.33908 3.238 6.38708C3.19 6.43108 3.166 6.48508 3.166 6.54908L3.166 9.42908C3.166 9.49308 3.19 9.54908 3.238 9.59708C3.282 9.64108 3.336 9.66308 3.4 9.66308L4.366 9.66308C4.43 9.66308 4.484 9.64108 4.528 9.59708C4.572 9.54908 4.594 9.49308 4.594 9.42908L4.594 6.54908C4.594 6.41708 4.628 6.29708 4.696 6.18908C4.76 6.07708 4.846 5.98908 4.954 5.92508C5.062 5.86108 5.182 5.82908 5.314 5.82908L6.28 5.82908C6.412 5.82908 6.534 5.86108 6.646 5.92508C6.754 5.98908 6.84 6.07708 6.904 6.18908C6.968 6.29708 7 6.41708 7 6.54908L7 9.42908Z" fill="#B9B29D"/>
<path d="M0 3H40L41 4V27.7273L30 37H0" stroke="#B9B29D"/>
<g clip-path="url(#clip0_501_424)">
<path d="M18.333 18.3332C18.333 17.5913 18.5581 16.8669 18.9784 16.2556C19.3988 15.6444 19.9947 15.175 20.6874 14.9095C21.3801 14.644 22.1371 14.5948 22.8583 14.7686C23.5796 14.9423 24.2312 15.3307 24.727 15.8825C24.7619 15.9199 24.8042 15.9496 24.8511 15.97C24.898 15.9904 24.9485 16.0009 24.9997 16.0009C25.0508 16.0009 25.1014 15.9904 25.1483 15.97C25.1952 15.9496 25.2374 15.9199 25.2723 15.8825C25.7666 15.3271 26.4184 14.9354 27.1408 14.7596C27.8632 14.5838 28.622 14.6321 29.3163 14.8982C30.0105 15.1643 30.6073 15.6355 31.0271 16.2491C31.4469 16.8628 31.6699 17.5897 31.6663 18.3332C31.6663 19.8599 30.6663 20.9999 29.6663 21.9999L26.005 25.5419C25.8808 25.6845 25.7276 25.7991 25.5557 25.8781C25.3838 25.957 25.197 25.9984 25.0079 25.9996C24.8187 26.0008 24.6314 25.9618 24.4585 25.885C24.2856 25.8083 24.131 25.6956 24.005 25.5545L20.333 21.9999C19.333 20.9999 18.333 19.8665 18.333 18.3332Z" stroke="#B9B29D" stroke-linecap="round" stroke-linejoin="round"/>
<path d="M19.1465 20.6668H23.3332L23.6665 20.0002L24.9998 23.0002L26.3332 18.3335L27.3332 20.6668H30.8465" stroke="#B9B29D" stroke-linecap="round" stroke-linejoin="round"/>
</g>
<defs>
<clipPath id="clip0_501_424">
<rect width="16" height="16" fill="white" transform="translate(17 12)"/>
</clipPath>
</defs>
</svg>
