<svg width="50" height="40" viewBox="0 0 50 40" fill="none" xmlns="http://www.w3.org/2000/svg">
<path d="M44 28.8V3L41 0H0V40H31L44 28.8Z" fill="#1A1A1A"/>
<path d="M0 3H40L41 4V27.7273L30 37H0" stroke="#B9B29D"/>
<g clip-path="url(#clip0_501_424)">
<path d="M18.333 18.3332C18.333 17.5913 18.5581 16.8669 18.9784 16.2556C19.3988 15.6444 19.9947 15.175 20.6874 14.9095C21.3801 14.644 22.1371 14.5948 22.8583 14.7686C23.5796 14.9423 24.2312 15.3307 24.727 15.8825C24.7619 15.9199 24.8042 15.9496 24.8511 15.97C24.898 15.9904 24.9485 16.0009 24.9997 16.0009C25.0508 16.0009 25.1014 15.9904 25.1483 15.97C25.1952 15.9496 25.2374 15.9199 25.2723 15.8825C25.7666 15.3271 26.4184 14.9354 27.1408 14.7596C27.8632 14.5838 28.622 14.6321 29.3163 14.8982C30.0105 15.1643 30.6073 15.6355 31.0271 16.2491C31.4469 16.8628 31.6699 17.5897 31.6663 18.3332C31.6663 19.8599 30.6663 20.9999 29.6663 21.9999L26.005 25.5419C25.8808 25.6845 25.7276 25.7991 25.5557 25.8781C25.3838 25.957 25.197 25.9984 25.0079 25.9996C24.8187 26.0008 24.6314 25.9618 24.4585 25.885C24.2856 25.8083 24.131 25.6956 24.005 25.5545L20.333 21.9999C19.333 20.9999 18.333 19.8665 18.333 18.3332Z" stroke="#B9B29D" stroke-linecap="round" stroke-linejoin="round"/>
<path d="M19.1465 20.6668H23.3332L23.6665 20.0002L24.9998 23.0002L26.3332 18.3335L27.3332 20.6668H30.8465" stroke="#B9B29D" stroke-linecap="round" stroke-linejoin="round"/>
</g>
<defs>
<clipPath id="clip0_501_424">
<rect width="16" height="16" fill="white" transform="translate(17 12)"/>
</clipPath>
</defs>
</svg>
