<svg width="36" height="36" viewBox="0 0 36 36" fill="none" xmlns="http://www.w3.org/2000/svg">
<g clip-path="url(#clip0_341_4890)">
<rect width="36" height="36" fill="black"/>
<path fill-rule="evenodd" clip-rule="evenodd" d="M19.7794 4.17803C20.4836 3.93787 21.1477 3.96621 21.7062 4.11245C22.4027 4.29484 22.949 4.6632 23.2378 4.9458C23.2417 4.9496 23.2438 4.95181 23.2477 4.95566C23.3558 5.06464 23.4092 5.13312 23.5068 5.25208C23.8009 5.61072 23.9635 6.37297 24.5129 6.8086C25.1222 7.29172 26.0106 7.55557 26.6477 8.62594C26.7031 8.71902 26.7328 8.77213 26.7851 8.86704C26.7914 8.8784 26.796 8.88425 26.8012 8.89617C26.8062 8.90775 26.8072 8.91498 26.8114 8.9269C26.9514 9.32312 27.2235 9.99005 27.577 10.6838C27.8885 11.2953 28.253 11.9063 28.6351 12.3697C28.6975 12.4454 28.734 12.4865 28.7998 12.5591C28.8061 12.566 28.81 12.5695 28.8158 12.5767C28.822 12.5842 28.8248 12.5889 28.8305 12.5967C29.2989 13.2429 29.9287 14.9525 29.0866 16.9765C28.7764 17.7221 28.5216 18.3576 28.3208 18.8747C28.1648 19.2765 28.0415 19.6057 27.9494 19.8583C26.7304 21.2019 25.9318 23.4452 25.9318 25.9857C25.9318 27.8253 26.3506 29.509 27.0445 30.8082C27.2714 31.3756 27.5543 32.07 27.8477 32.7897C28.4303 34.2185 29.0473 35.7336 29.2964 36.4452C29.3719 36.6608 29.2625 36.8984 29.0515 36.9756C28.8404 37.0529 28.6076 36.9402 28.532 36.7245C28.2917 36.0386 27.6858 34.5505 27.0981 33.1089C26.5184 31.6869 25.9497 30.294 25.8038 29.8389C25.8026 29.8351 25.8015 29.8331 25.8003 29.8294C25.7991 29.8256 25.7987 29.8234 25.7977 29.8196C25.3127 28.0044 25.1652 26.571 25.1825 25.5084C25.1992 24.4874 25.3695 23.7737 25.5687 23.3978C26.2314 22.1476 26.5657 21.4158 27.0123 20.0692C27.0813 19.8612 27.3623 19.4897 27.4541 18.8632C27.4733 18.7319 27.2206 18.6811 27.0766 18.5704C26.7249 18.2999 26.2953 17.9741 25.9725 17.7439C25.665 17.5245 25.4873 17.4328 25.2105 17.2778C24.9274 17.1193 24.5688 16.9103 23.9299 16.4679C22.9047 15.758 22.6861 14.5309 22.0795 14.1952C21.6291 13.946 21.0028 14.3021 20.6669 14.5922C19.8275 15.3172 19.2086 15.8593 18.9579 16.2272C17.5707 18.263 17.8885 20.876 18.1159 21.8499L18.6366 23.7991L21.7477 25.6142L21.5457 25.9741L20.4032 28.0171L22.0758 34.277C22.1347 34.498 22.0067 34.7258 21.7903 34.7861C21.574 34.8462 21.3512 34.7163 21.292 34.4955L19.5309 27.9043L20.6384 25.9224L18.0876 24.4342L17.9417 24.3499L17.5998 23.0704L15.4619 27.2101L15.8813 28.7799L15.8535 28.8875L15.4013 30.6468L15.3409 30.8789L13.2433 31.4637C13.4571 32.2471 13.6404 33.019 13.7417 33.3981C13.9165 34.0525 14.1346 34.9116 14.3627 35.8685C14.4155 36.0911 14.2817 36.3157 14.0638 36.3699C13.8458 36.424 13.626 36.2871 13.5729 36.0645C13.3465 35.1146 13.1297 34.2635 12.957 33.6168C12.9382 33.5464 12.9181 33.4685 12.8966 33.384C12.8907 33.2708 12.8834 33.1569 12.8744 33.0426C12.6153 29.7547 9.84848 27.5568 8.30158 23.889C8.10924 23.4329 6.47154 18.1257 6.24458 17.7225C5.98171 17.2555 5.72041 16.9037 5.58653 16.4028C5.40368 15.7186 5.5365 15.0132 5.74474 14.4398C5.94187 13.897 6.2293 13.4344 6.44241 13.1372C6.46057 13.1119 6.46484 13.0786 6.47765 13.0497C6.6362 12.6916 6.91085 12.3808 7.30955 12.134C8.14779 11.6152 8.86564 11.4668 9.4404 11.5274C9.46766 11.5303 9.52507 11.5666 9.52075 11.5396C9.44467 11.0645 9.35132 10.5704 9.48682 10.0849C9.65257 9.49118 10.0701 8.98235 10.7969 8.64628C11.4412 8.34842 12.8116 8.2461 13.4968 8.88685C13.3195 8.24609 13.4159 7.43496 13.8697 6.77523C14.147 6.37217 14.6773 5.81683 15.2839 5.6477C15.7328 5.52254 16.146 5.42619 16.5184 5.46526C17.8805 5.60818 18.2055 6.15086 18.5878 6.80664C18.0296 5.826 18.9207 4.47086 19.7794 4.17803ZM16.7061 15.7178C17.0385 16.9844 16.4555 17.5094 16.282 17.6644C15.0272 18.7858 13.7301 18.0765 13.2465 17.4263C13.3871 18.1899 13.1424 18.8267 12.8323 19.1378C12.4065 19.565 11.986 19.8882 11.6118 19.9621C11.2488 20.0337 10.6429 20.129 10.1089 19.9621C9.60923 19.8059 9.31227 19.5025 8.86335 18.9962C8.56737 18.6624 7.52278 18.3345 6.73704 17.7831C7.20625 18.5164 7.67903 20.2822 7.67903 20.2822C7.7344 20.4895 8.92555 23.4033 10.0008 25.1908C10.4178 25.8839 10.7384 26.5532 11.0187 26.8874C11.5597 27.5323 11.9861 28.3594 12.3051 28.8873C12.5648 29.3172 12.8056 29.9845 13.0141 30.6674L14.6744 30.2045L15.0404 28.7844L14.5936 27.1119L14.668 26.9672L17.2915 21.8855C17.0833 20.8342 17.0575 17.5644 18.6442 16.0196C18.0131 16.2299 17.2915 16.3934 16.7061 15.7178ZM9.35664 12.3531C8.99335 12.3148 8.45083 12.3974 7.73039 12.8433C7.45279 13.0151 7.30003 13.2059 7.2178 13.3916C7.2053 13.4198 7.19395 13.4487 7.18422 13.4776C7.07273 13.8096 7.13112 14.2185 7.31531 14.6531C7.49693 15.0817 7.76721 15.4891 8.018 15.7439C8.39669 16.1286 9.17505 17.1072 9.53621 18.4589C9.54345 18.486 9.55107 18.5122 9.55926 18.5375C9.70351 18.9824 10.0084 19.2094 10.3638 19.3205C10.7351 19.4365 11.1444 19.4169 11.4035 19.3594C11.4076 19.3585 11.4098 19.3573 11.414 19.3565C11.4186 19.3556 11.4214 19.3559 11.426 19.3552C11.6619 19.3174 12.0343 19.1745 12.3306 18.8772C12.5828 18.6242 12.8086 18.2459 12.8086 17.6758C12.8086 17.2384 12.4084 16.3099 11.5757 14.9317C10.7845 13.6223 10.036 12.4917 9.68818 12.4295C9.59726 12.3949 9.48654 12.3668 9.35664 12.3531ZM24.1676 7.57914C23.632 7.47915 22.5681 8.39749 21.9521 8.80981C21.2592 9.27357 20.6198 9.85583 19.6072 10.0906C19.2039 10.184 17.7864 10.9874 17.4463 11.3109C17.1063 11.6344 16.8813 12.04 17.0479 12.729C17.2146 13.418 17.7487 13.6847 18.3731 13.8355C19.0278 13.9936 19.5852 13.827 20.406 13.789C22.5345 13.6904 23.8441 12.2116 25.0618 10.8834C23.2019 13.4504 23.1372 13.0238 22.813 13.8269C22.6131 14.322 23.4647 15.1422 24.3857 15.78C25.0021 16.207 25.3391 16.4035 25.6012 16.5503C25.8691 16.7003 26.0873 16.8139 26.4376 17.0638C26.7731 17.3032 27.2133 17.6366 27.5659 17.9078C27.6362 17.9619 27.7173 18.1251 27.7655 18.0622C28.035 17.7095 28.1205 17.1759 28.3386 16.6515C29.0498 14.9418 28.5327 13.5242 28.1831 13.0986C27.7037 12.515 27.2181 11.7784 26.8559 11.0676C26.496 10.3613 26.2651 9.65814 26.0621 9.24714C25.4817 8.07264 24.7375 7.68557 24.1676 7.57914ZM6.72569 13.6299C5.82413 14.4734 5.68468 15.3056 6.21129 16.4722C6.33589 16.7482 6.66206 17.098 7.07623 17.425C7.48712 17.7494 8.24644 17.7484 9.22445 18.7936C8.97571 17.7138 8.18169 16.1688 7.57777 15.5702C7.27267 15.2677 6.64278 14.6699 6.72569 13.6299ZM12.4571 9.06046C12.132 9.05647 11.6964 9.14154 11.1317 9.40268C10.5954 9.65067 10.3609 9.98093 10.2684 10.3124C10.1954 10.5738 10.2028 10.8667 10.2648 11.1644C10.3811 11.9422 10.8834 13.029 11.4881 14.1552C12.1969 15.4753 12.9715 16.4283 13.5363 16.9505C14.1529 17.5207 14.7941 18.0424 15.5838 17.6513C16.4542 17.2203 16.5025 16.1927 16.0296 15.1887C15.2527 13.5391 14.2426 10.923 13.9142 10.2139C13.7184 9.79111 13.1158 9.06855 12.4571 9.06046ZM18.2575 7.02374C17.9863 6.62555 16.5064 6.09231 15.4961 6.53618C14.6574 6.90468 14.1356 7.66287 14.0443 8.31944C13.9708 8.8488 14.2531 9.87928 14.4094 10.3175C14.8458 11.5415 15.9169 13.2471 16.7593 14.8214C17.1479 15.5478 17.5249 15.7492 17.771 15.7913C18.9523 15.9933 19.7518 14.8458 20.4245 14.2205C19.5772 14.3756 18.5527 14.4651 18.0313 14.2599C17.3617 13.9965 16.6372 13.5097 16.5229 12.6439C16.4294 11.9355 16.5906 11.4782 17.131 10.9915C17.8433 10.3501 18.5272 10.0591 19.0017 9.92164C19.222 8.8288 18.9015 7.96976 18.2575 7.02374ZM21.5046 4.91645C21.0729 4.80338 20.5705 4.78345 20.037 4.96534C19.4249 5.17405 19.1038 5.53305 19.0326 5.9008C18.7166 7.53181 20.1677 9.48283 20.1706 9.48668C20.1771 9.48158 23.0793 7.22416 23.2654 6.72255C23.4926 6.10999 22.8482 5.71976 22.6696 5.54011C22.4767 5.34594 22.0522 5.05986 21.5046 4.91645Z" fill="#B9B29D"/>
</g>
<defs>
<clipPath id="clip0_341_4890">
<rect width="36" height="36" fill="white"/>
</clipPath>
</defs>
</svg>
